<svg width="28" height="28" viewBox="0 0 28 28" fill="none" xmlns="http://www.w3.org/2000/svg">
<g clip-path="url(#clip0_214_287)">
<path d="M8.93348 17.2873C9.04498 17.3339 9.17043 17.3342 9.28215 17.2882C9.39388 17.2423 9.48283 17.1538 9.52933 17.0423L10.1717 15.5002H12.6016L13.244 17.0423C13.3408 17.2745 13.6076 17.3842 13.8398 17.2874C14.0721 17.1905 14.1818 16.9237 14.0849 16.6915L11.8071 11.2248C11.7364 11.0551 11.5706 10.9446 11.3867 10.9446C11.2028 10.9446 11.037 11.0551 10.9662 11.2248L8.68846 16.6915C8.64192 16.803 8.6416 16.9285 8.68756 17.0402C8.73351 17.1519 8.82193 17.2408 8.93348 17.2873ZM11.3866 12.5846L12.2217 14.5891H10.5516L11.3866 12.5846Z" fill="url(#paint0_linear_214_287)"/>
<path fill-rule="evenodd" clip-rule="evenodd" d="M15.0308 16.4113C14.7791 16.4113 14.5752 16.6152 14.5752 16.8668C14.5752 17.1184 14.7791 17.3224 15.0308 17.3224H17.7641C18.0157 17.3224 18.2197 17.1184 18.2197 16.8668C18.2197 16.6152 18.0157 16.4113 17.7641 16.4113H16.853V11.8557H17.7641C18.0157 11.8557 18.2197 11.6518 18.2197 11.4001C18.2197 11.1485 18.0157 10.9446 17.7641 10.9446H15.0308C14.7791 10.9446 14.5752 11.1485 14.5752 11.4001C14.5752 11.6518 14.7791 11.8557 15.0308 11.8557H15.9419V16.4113H15.0308Z" fill="url(#paint1_linear_214_287)"/>
<path d="M0.453484 20.5112C0.453484 21.5176 1.26934 22.3335 2.27569 22.3335C2.50395 22.3326 2.72996 22.2884 2.94171 22.2032C4.01864 23.0277 5.53839 23.4578 7.40616 23.4578C7.68767 23.4578 7.98017 23.4445 8.27671 23.4254C9.59964 26.1287 11.5084 27.8001 13.6646 27.8001C15.8207 27.8001 17.7295 26.1287 19.0529 23.4268C19.3499 23.4459 19.6419 23.4591 19.9234 23.4591C21.7912 23.4591 23.3109 23.0291 24.3879 22.2045C24.5996 22.2892 24.8254 22.333 25.0534 22.3335C25.8577 22.3312 26.5654 21.8018 26.7948 21.0309C27.0241 20.26 26.721 19.4299 26.0488 18.9883C26.1126 17.5214 25.5454 15.8568 24.3911 14.1334C25.5454 12.4105 26.1126 10.7459 26.0488 9.27858C26.8364 8.77033 27.1085 7.74663 26.6772 6.91441C26.2459 6.08219 25.2526 5.71423 24.3833 6.06461C23.1455 5.11753 21.3179 4.69797 19.0533 4.84556C17.7314 2.14007 15.8217 0.466797 13.6646 0.466797C11.5075 0.466797 9.59785 2.14007 8.27447 4.84561C6.01082 4.69891 4.18403 5.11892 2.94445 6.06466C2.07564 5.7171 1.08489 6.0856 0.654343 6.91642C0.223797 7.74725 0.494015 8.76921 1.27893 9.27862C1.21608 10.7451 1.78368 12.4096 2.93808 14.1335C1.78368 15.8568 1.21608 17.5215 1.28032 18.9883C0.765085 19.3237 0.454067 19.8965 0.453484 20.5112ZM1.36461 20.5112C1.36461 20.0081 1.77252 19.6001 2.27574 19.6001C2.77896 19.6001 3.18687 20.008 3.18687 20.5112C3.18687 21.0145 2.77896 21.4224 2.27574 21.4224C2.03408 21.4224 1.80233 21.3264 1.63147 21.1555C1.4606 20.9846 1.36461 20.7529 1.36461 20.5112ZM8.83983 5.80592C10.0526 5.95114 11.2474 6.21934 12.4059 6.60635C11.5905 6.97027 10.7942 7.37562 10.0202 7.82087C9.24343 8.26917 8.49102 8.75836 7.76609 9.28638C8.00492 8.09279 8.36472 6.9266 8.83983 5.80592ZM19.5627 9.28638C18.838 8.75832 18.0857 8.26908 17.309 7.82087C16.5361 7.37616 15.7412 6.97081 14.9274 6.60635C16.0847 6.21952 17.2783 5.95136 18.4898 5.80592C18.9647 6.92665 19.3241 8.09279 19.5627 9.28638ZM18.4894 22.4611C17.2766 22.3158 16.0818 22.0476 14.9233 21.6606C15.7387 21.2967 16.535 20.8913 17.309 20.4461C18.0858 19.9978 18.8382 19.5086 19.5631 18.9806C19.3243 20.1742 18.9645 21.3403 18.4894 22.4611ZM16.8535 8.61032C17.8808 9.20155 18.8629 9.86802 19.7918 10.6043C19.9594 11.7732 20.0431 12.9526 20.0424 14.1335C20.0432 15.3143 19.9596 16.4938 19.7923 17.6627C18.8632 18.3989 17.8809 19.0654 16.8535 19.6567C15.8294 20.249 14.7636 20.7663 13.6646 21.2046C12.5656 20.7661 11.4998 20.2485 10.4757 19.6557C9.44837 19.0645 8.46627 18.398 7.53739 17.6617C7.20391 15.3207 7.20391 12.9443 7.53739 10.6033C8.46631 9.86743 9.44846 9.20128 10.4757 8.61027C11.5007 8.01747 12.5674 7.49981 13.6673 7.06137C14.7654 7.50004 15.8303 8.01769 16.8535 8.61032ZM20.8168 11.4653C21.7255 12.2697 22.5507 13.1636 23.28 14.1335C22.5517 15.1032 21.7275 15.9971 20.8201 16.8017C20.9095 15.9151 20.9541 15.0246 20.9535 14.1335C20.9538 13.2424 20.9089 12.3518 20.8192 11.4653H20.8168ZM6.51238 16.8017C5.60354 15.9975 4.77827 15.1036 4.04917 14.1335C4.77751 13.1638 5.60166 12.2698 6.50915 11.4653C6.32995 13.2396 6.32995 15.0274 6.50915 16.8017H6.51238ZM10.0229 20.4461C10.7958 20.8908 11.5907 21.2962 12.4045 21.6606C11.2472 22.0475 10.0536 22.3156 8.84207 22.4611C8.36709 21.3403 8.00748 20.1742 7.76878 18.9806C8.49277 19.5086 9.24428 19.9978 10.0201 20.4461H10.0229ZM13.6646 26.889C11.9535 26.889 10.3987 25.5319 9.25208 23.3307C10.7619 23.1167 12.2423 22.7309 13.6646 22.1809C15.0874 22.7311 16.5685 23.1169 18.0789 23.3307C16.93 25.5319 15.3757 26.889 13.6646 26.889ZM25.0535 21.4224C24.5503 21.4224 24.1424 21.0145 24.1424 20.5112C24.1424 20.008 24.5503 19.6001 25.0535 19.6001C25.5567 19.6001 25.9647 20.008 25.9647 20.5112C25.9647 21.0145 25.5567 21.4224 25.0535 21.4224ZM25.1492 18.6986C25.1168 18.6986 25.0863 18.689 25.0535 18.689C24.0471 18.689 23.2313 19.5049 23.2313 20.5112C23.233 20.9186 23.3725 21.3134 23.6272 21.6314C22.635 22.2861 21.1867 22.5972 19.452 22.5321C20.0168 21.121 20.4171 19.6496 20.6451 18.1469C21.8234 17.1981 22.8897 16.1181 23.8235 14.928C24.5927 16.0447 25.0503 17.3462 25.1492 18.6986ZM25.9646 7.75568C25.9646 8.25886 25.5567 8.66681 25.0535 8.66681C24.5503 8.66681 24.1424 8.2589 24.1424 7.75568C24.1424 7.25246 24.5503 6.84455 25.0535 6.84455C25.5567 6.84455 25.9646 7.2525 25.9646 7.75568ZM23.6272 6.63549C23.3725 6.9535 23.233 7.34832 23.2313 7.75568C23.2313 8.76208 24.0471 9.57789 25.0535 9.57789C25.0863 9.57789 25.1168 9.57014 25.1492 9.56834C25.0504 10.9207 24.5928 12.2223 23.8235 13.339C22.8895 12.1487 21.8231 11.0688 20.6446 10.12C20.4164 8.61727 20.0156 7.1458 19.4501 5.73485C21.1863 5.66926 22.6354 5.97902 23.6272 6.63549ZM13.6646 1.37792C15.3757 1.37792 16.9305 2.73502 18.0771 4.93626C16.5681 5.15048 15.0884 5.53624 13.6669 6.08609C12.2441 5.53583 10.763 5.15008 9.25258 4.93626C10.3992 2.73502 11.9535 1.37792 13.6646 1.37792ZM2.27569 6.8446C2.77887 6.8446 3.18682 7.2525 3.18682 7.75573C3.18682 8.25895 2.77892 8.66685 2.27569 8.66685C1.77247 8.66685 1.36457 8.25895 1.36457 7.75573C1.36457 7.2525 1.77252 6.8446 2.27569 6.8446ZM2.18006 9.56834C2.21239 9.56834 2.24292 9.57789 2.27574 9.57789C3.28214 9.57789 4.09795 8.76204 4.09795 7.75568C4.09625 7.34832 3.95672 6.95346 3.70206 6.63549C4.6938 5.98086 6.142 5.67016 7.87723 5.73485C7.31245 7.14589 6.91208 8.61736 6.68414 10.12C5.50598 11.0688 4.43963 12.1486 3.50573 13.3385C2.73628 12.2221 2.27865 10.9206 2.18006 9.56834ZM3.50573 14.9284C4.44008 16.1183 5.5067 17.1981 6.68504 18.1469C6.91324 19.6498 7.31389 21.1214 7.87907 22.5325C6.14523 22.5981 4.69609 22.2861 3.7039 21.6314C3.95789 21.3132 4.09674 20.9184 4.09795 20.5112C4.09795 19.5048 3.2821 18.689 2.27574 18.689C2.24292 18.689 2.21243 18.6972 2.18006 18.6986C2.27883 17.3463 2.73641 16.0449 3.50573 14.9284Z" fill="url(#paint2_linear_214_287)"/>
</g>
<defs>
<linearGradient id="paint0_linear_214_287" x1="14.1201" y1="14.0425" x2="8.65332" y2="14.0425" gradientUnits="userSpaceOnUse">
<stop stop-color="#F92B74"/>
<stop offset="1" stop-color="#FB4C59"/>
</linearGradient>
<linearGradient id="paint1_linear_214_287" x1="18.2197" y1="14.0424" x2="14.5752" y2="14.0424" gradientUnits="userSpaceOnUse">
<stop stop-color="#F92B74"/>
<stop offset="1" stop-color="#FB4C59"/>
</linearGradient>
<linearGradient id="paint2_linear_214_287" x1="26.8813" y1="13.743" x2="0.450195" y2="13.743" gradientUnits="userSpaceOnUse">
<stop stop-color="#F92B74"/>
<stop offset="1" stop-color="#FB4C59"/>
</linearGradient>
<clipPath id="clip0_214_287">
<rect width="27.3333" height="27.3333" fill="white" transform="translate(0 0.466553)"/>
</clipPath>
</defs>
</svg>
