<svg width="91" height="235" viewBox="0 0 91 235" fill="none" xmlns="http://www.w3.org/2000/svg">
<path opacity="0.45" d="M0.5 0.5C68.3333 34.6667 163.3 129 0.5 233" stroke="#170F49" stroke-dasharray="3 3"/>
<path d="M0.511616 232.699C0.452173 232.969 0.622595 233.235 0.892264 233.295L5.28677 234.263C5.55644 234.323 5.82323 234.152 5.88268 233.883C5.94212 233.613 5.7717 233.346 5.50203 233.287L1.5958 232.426L2.45685 228.52C2.51629 228.25 2.34587 227.983 2.0762 227.924C1.80653 227.864 1.53974 228.035 1.48029 228.304L0.511616 232.699ZM6.68983 228.579L0.730736 232.385L1.26905 233.228L7.22814 229.421L6.68983 228.579Z" fill="#9491AB"/>
</svg>
