<svg width="71" height="54" viewBox="0 0 71 54" fill="none" xmlns="http://www.w3.org/2000/svg">
<path opacity="0.15" d="M6.05266 18.0002C3.05983 18.0002 1.56341 18.0002 0.636342 19.1065C-0.290721 20.2128 -0.0573071 21.5265 0.409513 24.154C1.66112 31.1986 5.04264 37.7474 10.1711 42.8759C16.7685 49.4733 25.7166 53.1797 35.0467 53.1797C44.3769 53.1797 53.325 49.4733 59.9224 42.8759C65.0508 37.7474 68.4324 31.1986 69.684 24.154C70.1508 21.5265 70.3842 20.2128 69.4571 19.1065C68.5301 18.0002 67.0337 18.0002 64.0408 18.0002L6.05266 18.0002Z" fill="#51CCF3"/>
<g clip-path="url(#clip0_269_405)">
<path d="M49.8361 10.0547H47.2438C47.6149 11.4254 47.8141 12.8659 47.8141 14.3523C47.8141 23.4293 40.4294 30.814 31.3524 30.814C30.5648 30.814 29.7788 30.7556 29.0015 30.6433C29.4877 31.7666 30.6066 32.5547 31.9064 32.5547H46.8537L51.3262 35.799C51.5098 35.9321 51.7271 36 51.9456 36C52.1092 36 52.2735 35.962 52.4247 35.8848C52.7778 35.7048 53.0002 35.3418 53.0002 34.9453V13.2188C53.0002 11.4741 51.5808 10.0547 49.8361 10.0547Z" fill="#51CCF3"/>
<path d="M45.7046 14.3523C45.7046 6.43844 39.2661 0 31.3523 0C23.4385 0 17 6.43844 17 14.3523C17 17.1063 17.7754 19.761 19.2478 22.0655L17.0655 27.9703C16.9227 28.3565 17.0178 28.7906 17.309 29.0817C17.5103 29.2831 17.78 29.3907 18.0549 29.3907C18.1775 29.3907 18.3012 29.3693 18.4204 29.3252L24.624 27.0323C26.686 28.1278 29.0012 28.7046 31.3523 28.7046C39.2661 28.7046 45.7046 22.2662 45.7046 14.3523ZM24.0312 17.2841C24.0312 17.8666 23.559 18.3388 22.9766 18.3388C22.3941 18.3388 21.9219 17.8666 21.9219 17.2841V11.4034C21.9219 10.821 22.3941 10.3487 22.9766 10.3487C23.559 10.3487 24.0312 10.821 24.0312 11.4034V17.2841ZM38.7969 11.4034C38.7969 10.821 39.2692 10.3487 39.8516 10.3487C40.4341 10.3487 40.9063 10.821 40.9063 11.4034V17.2841C40.9063 17.8666 40.4341 18.3388 39.8516 18.3388C39.2692 18.3388 38.7969 17.8666 38.7969 17.2841V11.4034ZM34.5782 13.0909C34.5782 12.5084 35.0504 12.0362 35.6329 12.0362C36.2154 12.0362 36.6876 12.5084 36.6876 13.0909V15.5967C36.6876 16.1792 36.2154 16.6514 35.6329 16.6514C35.0504 16.6514 34.5782 16.1792 34.5782 15.5967V13.0909ZM28.25 15.5967C28.25 16.1792 27.7778 16.6514 27.1953 16.6514C26.6128 16.6514 26.1406 16.1792 26.1406 15.5967V13.0909C26.1406 12.5084 26.6128 12.0362 27.1953 12.0362C27.7778 12.0362 28.25 12.5084 28.25 13.0909V15.5967ZM30.3594 19.5469V9.14062C30.3594 8.55816 30.8317 8.08594 31.4141 8.08594C31.9966 8.08594 32.4688 8.55816 32.4688 9.14062V19.5469C32.4688 20.1293 31.9966 20.6016 31.4141 20.6016C30.8317 20.6016 30.3594 20.1294 30.3594 19.5469Z" fill="#51CCF3"/>
</g>
<defs>
<clipPath id="clip0_269_405">
<rect width="36" height="36" fill="white" transform="translate(17)"/>
</clipPath>
</defs>
</svg>
