<svg width="46" height="46" viewBox="0 0 46 46" fill="none" xmlns="http://www.w3.org/2000/svg">
<path fill-rule="evenodd" clip-rule="evenodd" d="M4.12744 23.0285C4.12744 13.0866 12.0728 4.12756 23.0377 4.12756C33.7573 4.12756 41.8725 12.9165 41.8725 22.9718C41.8725 34.6336 32.3608 41.8727 23 41.8727C19.9049 41.8727 16.4701 41.041 13.7147 39.4156C12.7522 38.8296 11.9407 38.3949 10.9027 38.7351L7.09043 39.8692C6.12793 40.1716 5.25979 39.4156 5.54288 38.3949L6.80734 34.1611C7.01494 33.5752 6.9772 32.9514 6.67524 32.46C5.0522 29.4737 4.12744 26.2038 4.12744 23.0285ZM20.5466 23.0285C20.5466 24.3705 21.6223 25.4479 22.9623 25.4668C24.3022 25.4668 25.378 24.3705 25.378 23.0474C25.378 21.7055 24.3022 20.6281 22.9623 20.6281C21.6412 20.6092 20.5466 21.7055 20.5466 23.0285ZM29.2461 23.0475C29.2461 24.3705 30.3219 25.4668 31.6618 25.4668C33.0018 25.4668 34.0775 24.3705 34.0775 23.0475C34.0775 21.7055 33.0018 20.6281 31.6618 20.6281C30.3219 20.6281 29.2461 21.7055 29.2461 23.0475ZM14.2619 25.4668C12.9408 25.4668 11.8462 24.3705 11.8462 23.0474C11.8462 21.7055 12.9219 20.6281 14.2619 20.6281C15.6018 20.6281 16.6776 21.7055 16.6776 23.0474C16.6776 24.3705 15.6018 25.4479 14.2619 25.4668Z" fill="white"/>
</svg>
