<svg width="28" height="28" viewBox="0 0 28 28" fill="none" xmlns="http://www.w3.org/2000/svg">
<g opacity="0.5" clip-path="url(#clip0_239_1422)">
<path d="M27.6584 0.34195C27.4396 0.123234 27.1429 0.000366211 26.8336 0.000366211C26.5242 0.000366211 26.2275 0.123234 26.0087 0.34195L14.0002 12.3505L1.99174 0.34195C1.77296 0.123234 1.47626 0.000366211 1.16691 0.000366211C0.857548 0.000366211 0.560855 0.123234 0.342072 0.34195C0.123356 0.560733 0.000488281 0.857426 0.000488281 1.16678C0.000488281 1.47614 0.123356 1.77283 0.342072 1.99162L12.3506 14.0001L0.342072 26.0086C0.123356 26.2274 0.000488281 26.5241 0.000488281 26.8335C0.000488281 27.1428 0.123356 27.4395 0.342072 27.6583C0.560855 27.877 0.857548 27.9999 1.16691 27.9999C1.47626 27.9999 1.77296 27.877 1.99174 27.6583L14.0002 15.6498L26.0087 27.6583C26.2275 27.877 26.5242 27.9999 26.8336 27.9999C27.1429 27.9999 27.4396 27.877 27.6584 27.6583C27.8771 27.4395 28 27.1428 28 26.8335C28 26.5241 27.8771 26.2274 27.6584 26.0086L15.6499 14.0001L27.6584 1.99162C27.8771 1.77283 28 1.47614 28 1.16678C28 0.857426 27.8771 0.560733 27.6584 0.34195Z" fill="#170F49"/>
</g>
<defs>
<clipPath id="clip0_239_1422">
<rect width="28" height="28" fill="white"/>
</clipPath>
</defs>
</svg>
