<svg width="36" height="36" viewBox="0 0 36 36" fill="none" xmlns="http://www.w3.org/2000/svg">
<g clip-path="url(#clip0_239_1378)">
<path d="M18 36C27.9411 36 36 27.9411 36 18C36 8.05887 27.9411 0 18 0C8.05887 0 0 8.05887 0 18C0 27.9411 8.05887 36 18 36Z" fill="#F0F0F0"/>
<path d="M3.72097 7.0412C2.30705 8.88078 1.24091 11.0011 0.620117 13.3044H9.98419L3.72097 7.0412Z" fill="#0052B4"/>
<path d="M35.3801 13.3044C34.7593 11.0011 33.693 8.88085 32.2792 7.04126L26.0161 13.3044H35.3801Z" fill="#0052B4"/>
<path d="M0.620117 22.6957C1.24098 24.999 2.30712 27.1193 3.72097 28.9588L9.98398 22.6957H0.620117Z" fill="#0052B4"/>
<path d="M28.959 3.72098C27.1194 2.30706 24.9992 1.24092 22.6958 0.620056V9.98406L28.959 3.72098Z" fill="#0052B4"/>
<path d="M7.0415 32.2789C8.88109 33.6929 11.0014 34.759 13.3047 35.3799V26.0159L7.0415 32.2789Z" fill="#0052B4"/>
<path d="M13.3046 0.620056C11.0013 1.24092 8.88102 2.30706 7.0415 3.72091L13.3046 9.98399V0.620056Z" fill="#0052B4"/>
<path d="M22.6958 35.3799C24.9991 34.759 27.1194 33.6929 28.9589 32.279L22.6958 26.0159V35.3799Z" fill="#0052B4"/>
<path d="M26.0161 22.6957L32.2792 28.9589C33.693 27.1194 34.7593 24.999 35.3801 22.6957H26.0161Z" fill="#0052B4"/>
<path d="M35.8476 15.6522H20.3479H20.3479V0.152367C19.5793 0.0523125 18.7957 0 18 0C17.2041 0 16.4207 0.0523125 15.6522 0.152367V15.6521V15.6521H0.152367C0.0523125 16.4207 0 17.2043 0 18C0 18.7959 0.0523125 19.5793 0.152367 20.3478H15.6521H15.6521V35.8476C16.4207 35.9477 17.2041 36 18 36C18.7957 36 19.5793 35.9478 20.3478 35.8476V20.3479V20.3479H35.8476C35.9477 19.5793 36 18.7959 36 18C36 17.2043 35.9477 16.4207 35.8476 15.6522Z" fill="#D80027"/>
<path d="M22.6958 22.6957L30.728 30.728C31.0974 30.3587 31.4498 29.9726 31.7861 29.5724L24.9094 22.6957H22.6958V22.6957Z" fill="#D80027"/>
<path d="M13.3043 22.6957H13.3041L5.27197 30.7279C5.64125 31.0973 6.02734 31.4497 6.42756 31.7859L13.3043 24.9091V22.6957Z" fill="#D80027"/>
<path d="M13.3041 13.3045V13.3043L5.27193 5.27203C4.90251 5.64131 4.5501 6.0274 4.21387 6.42762L11.0906 13.3044H13.3041V13.3045Z" fill="#D80027"/>
<path d="M22.6958 13.3045L30.7281 5.2721C30.3588 4.90268 29.9727 4.55028 29.5725 4.21411L22.6958 11.0909V13.3045Z" fill="#D80027"/>
</g>
<defs>
<clipPath id="clip0_239_1378">
<rect width="36" height="36" fill="white"/>
</clipPath>
</defs>
</svg>
