<svg width="71" height="56" viewBox="0 0 71 56" fill="none" xmlns="http://www.w3.org/2000/svg">
<path opacity="0.15" d="M6.05266 20.0002C3.05983 20.0002 1.56341 20.0002 0.636342 21.1065C-0.290721 22.2128 -0.0573071 23.5265 0.409513 26.154C1.66112 33.1986 5.04264 39.7474 10.1711 44.8759C16.7685 51.4733 25.7166 55.1797 35.0467 55.1797C44.3769 55.1797 53.325 51.4733 59.9224 44.8759C65.0508 39.7474 68.4324 33.1986 69.684 26.154C70.1508 23.5265 70.3842 22.2128 69.4571 21.1065C68.5301 20.0002 67.0337 20.0002 64.0408 20.0002L6.05266 20.0002Z" fill="url(#paint0_linear_585_485)"/>
<g clip-path="url(#clip0_585_485)">
<path d="M23.6333 11.1832C22.1666 9.7165 15.9333 9.34989 13.9166 9.1665C13.7333 9.1665 13.5499 9.1665 13.3666 9.34981C13.1833 9.5332 13 9.89989 13 10.0832V26.5832C13 27.1332 13.3667 27.4999 13.9167 27.4999H19.4167C19.7834 27.4999 20.15 27.3166 20.3334 26.9499C20.3334 26.3999 23.6334 16.6832 24.0001 11.9166C24 11.7332 24 11.3666 23.6333 11.1832Z" fill="url(#paint1_linear_585_485)"/>
<path d="M43.2501 15.5832C41.4168 15.0332 39.7668 14.2999 38.3001 13.7499C35.0001 12.2832 33.5334 13.0166 30.6001 15.9499C29.3168 17.2332 28.4001 19.0666 28.5834 19.7999C28.5834 19.9832 28.5834 19.9832 28.9501 20.1666C29.8668 20.5333 31.1501 20.7166 32.4334 18.6999C32.6167 18.5166 32.8001 18.3332 33.1667 18.3332C33.7167 18.3332 33.9 18.1499 34.45 17.9665C34.8167 17.7832 35.1833 17.5999 35.7333 17.4166C35.9166 17.4166 35.9166 17.4166 36.1 17.4166C36.2833 17.4166 36.65 17.5999 36.8333 17.5999C37.7501 18.5166 39.4001 19.7999 41.0501 21.2666C43.6168 23.2833 46.1834 25.4833 47.4668 27.1333H47.6501C46.3668 23.4666 44.1668 17.2332 43.2501 15.5832Z" fill="url(#paint2_linear_585_485)"/>
<path d="M56.0832 11C48.9332 11 44.8999 12.8333 44.7165 12.8333C44.5332 13.0166 44.3498 13.2 44.1665 13.3833C44.1665 13.5666 44.1665 13.9333 44.3498 14.1166C45.4498 15.9499 49.1165 26.0333 49.6665 28.5999C49.8498 28.9666 50.2165 29.3332 50.5832 29.3332H56.0832C56.6332 29.3332 56.9999 28.9665 56.9999 28.4165V11.9165C56.9999 11.3667 56.6332 11 56.0832 11Z" fill="url(#paint3_linear_585_485)"/>
<path d="M46.1831 28.9665C45.4498 27.3165 42.3331 24.9332 39.5831 22.7332C38.1165 21.4498 36.6498 20.3498 35.5498 19.4331C35.3665 19.6164 34.9998 19.6164 34.9998 19.7998C34.4498 19.9831 34.2665 20.1665 33.5331 20.1665C32.0665 21.9998 30.2331 22.7331 28.2165 21.9998C27.2998 21.8165 26.7498 21.0831 26.5665 20.3498C26.1998 18.5165 27.8498 15.9498 29.1332 14.6665H25.4665C24.7332 18.3332 23.4498 23.0998 22.5332 25.6665C23.2665 26.3998 23.9999 27.3165 24.5499 27.6832C28.0332 30.6165 32.0666 33.5499 32.7999 34.0999C33.3499 34.4666 34.4499 34.8332 34.9999 34.8332C35.1832 34.8332 35.3666 34.8332 35.5499 34.8332L32.6165 31.8998C32.2498 31.5331 32.2498 30.9831 32.6165 30.6165C32.9832 30.2499 33.5332 30.2498 33.8998 30.6165L37.5665 34.2832C37.9332 34.6499 38.2998 34.4665 38.6665 34.4665C39.2165 34.2832 39.3998 33.9165 39.5832 33.3665L35.3665 29.1498C34.9998 28.7831 34.9998 28.2331 35.3665 27.8665C35.7332 27.4999 36.2832 27.4998 36.6498 27.8665L41.2331 32.4498C41.4164 32.6331 42.1498 32.6331 42.6998 32.4498C42.8831 32.2665 43.2498 32.0831 43.4331 31.7165L38.2998 26.5831C37.9331 26.2164 37.9331 25.6664 38.2998 25.2998C38.6665 24.9332 39.2165 24.9331 39.5831 25.2998L44.8998 30.6165C45.2665 30.7998 45.6331 30.6165 45.9998 30.4332C46.1831 30.2498 46.5498 29.6998 46.1831 28.9665Z" fill="url(#paint4_linear_585_485)"/>
</g>
<defs>
<linearGradient id="paint0_linear_585_485" x1="0.000219884" y1="38.0925" x2="70.0933" y2="38.0925" gradientUnits="userSpaceOnUse">
<stop stop-color="#F92B74"/>
<stop offset="1" stop-color="#FB4C59"/>
</linearGradient>
<linearGradient id="paint1_linear_585_485" x1="24.0001" y1="18.0713" x2="13" y2="18.0713" gradientUnits="userSpaceOnUse">
<stop stop-color="#F92B74"/>
<stop offset="1" stop-color="#FB4C59"/>
</linearGradient>
<linearGradient id="paint2_linear_585_485" x1="47.6501" y1="19.8733" x2="28.5601" y2="19.8733" gradientUnits="userSpaceOnUse">
<stop stop-color="#F92B74"/>
<stop offset="1" stop-color="#FB4C59"/>
</linearGradient>
<linearGradient id="paint3_linear_585_485" x1="56.9999" y1="19.9047" x2="44.1665" y2="19.9047" gradientUnits="userSpaceOnUse">
<stop stop-color="#F92B74"/>
<stop offset="1" stop-color="#FB4C59"/>
</linearGradient>
<linearGradient id="paint4_linear_585_485" x1="46.34" y1="24.4618" x2="22.5332" y2="24.4618" gradientUnits="userSpaceOnUse">
<stop stop-color="#F92B74"/>
<stop offset="1" stop-color="#FB4C59"/>
</linearGradient>
<clipPath id="clip0_585_485">
<rect width="44" height="44" fill="white" transform="translate(13)"/>
</clipPath>
</defs>
</svg>
