<svg width="24" height="24" viewBox="0 0 24 24" fill="none" xmlns="http://www.w3.org/2000/svg">
<g clip-path="url(#clip0_214_1232)">
<path d="M18.0005 0H6.00083C2.7012 0 0.000976562 2.70023 0.000976562 5.99985V18.0001C0.000976562 21.2989 2.7012 24 6.00083 24H18.0005C21.3002 24 24.0004 21.2989 24.0004 18.0001V5.99985C24.0004 2.70023 21.3002 0 18.0005 0ZM22.0003 18.0001C22.0003 20.2051 20.2067 22 18.0005 22H6.00083C3.79559 22 2.00103 20.2051 2.00103 18.0001V5.99985C2.00103 3.79432 3.79559 2.00005 6.00083 2.00005H18.0005C20.2067 2.00005 22.0003 3.79432 22.0003 5.99985V18.0001Z" fill="white"/>
<path d="M18.5005 6.99993C19.3289 6.99993 20.0004 6.32837 20.0004 5.49996C20.0004 4.67156 19.3289 4 18.5005 4C17.672 4 17.0005 4.67156 17.0005 5.49996C17.0005 6.32837 17.672 6.99993 18.5005 6.99993Z" fill="white"/>
<path d="M11.9999 6C8.68552 6 6 8.68581 6 11.9999C6 15.3127 8.68552 18.0003 11.9999 18.0003C15.3132 18.0003 17.9997 15.3127 17.9997 11.9999C17.9997 8.68581 15.3132 6 11.9999 6ZM11.9999 16.0002C9.79098 16.0002 8.00005 14.2093 8.00005 11.9999C8.00005 9.7904 9.79098 8.00005 11.9999 8.00005C14.2087 8.00005 15.9997 9.7904 15.9997 11.9999C15.9997 14.2093 14.2087 16.0002 11.9999 16.0002Z" fill="white"/>
</g>
<defs>
<clipPath id="clip0_214_1232">
<rect width="24" height="24" fill="white"/>
</clipPath>
</defs>
</svg>
