<svg width="50" height="50" viewBox="0 0 50 50" fill="none" xmlns="http://www.w3.org/2000/svg">
<g clip-path="url(#clip0_214_1189)">
<path d="M49.9998 26.7211C49.9998 19.5822 46.7864 13.1937 41.727 8.9234C37.6748 5.50308 26.2906 5.11133 26.2906 5.11133L18.0399 5.15891C17.9785 5.18487 17.9044 5.16686 17.8433 5.19332C9.75658 8.70258 4.50879 17.0174 4.50879 26.6828C4.50879 39.5397 14.0946 48.2884 26.9515 48.2884C30.8169 48.2884 34.2309 49.0586 37.4392 47.3915C44.9021 43.5136 49.9998 35.7126 49.9998 26.7211Z" fill="#94CCD4"/>
<path d="M41.7274 8.92281C39.3602 10.4711 36.8189 12.0073 35.8662 12.2156C33.2515 12.9802 29.8481 11.3604 29.1489 15.2166C29.1288 15.961 29.0634 16.6683 28.9517 17.3282C28.827 18.0647 28.5533 18.7578 28.1559 19.3735C27.7586 19.9892 26.7009 20.1689 26.0852 20.5914C24.39 21.7564 23.0127 21.8262 21.1877 20.8755C21.1415 20.8514 21.0942 20.8262 21.0469 20.8011C18.0066 19.3111 16.2206 15.8846 19.3725 13.3806C21.444 11.6703 21.1307 8.65349 19.683 6.76818L18.8118 5.76013C19.4881 5.48076 19.2128 4.66577 19.9194 4.45017C22.0708 3.79384 24.3544 3.44092 26.7202 3.44092C32.4386 3.44092 37.6751 5.50229 41.7274 8.92281Z" fill="#B7E546"/>
<path d="M44.7752 20.9587C44.7622 19.0371 43.9864 17.198 42.6179 15.8479C41.4504 14.5121 41.0465 13.7162 39.4419 15.191C37.921 17.0828 39.4211 19.4309 36.1884 22.6571C35.6159 23.2399 35.2946 24.0377 35.3269 24.8555C35.3257 24.8553 35.3262 24.711 35.3251 24.7108C35.4413 26.7364 36.8249 28.3693 38.7969 28.3693C41.3301 28.3692 44.7752 25.3956 44.7752 20.9587Z" fill="#B7E546"/>
<path d="M37.4868 22.5064C36.9144 23.0899 36.5924 23.8877 36.6246 24.7056C36.6236 24.7046 36.6236 24.7036 36.6226 24.7036C36.7192 26.3807 38.1729 27.7922 39.7896 28.2288C39.4506 28.3213 39.1166 28.3686 38.7967 28.3686C36.8248 28.3686 34.7272 26.7298 34.6105 24.7036C34.6116 24.7036 34.6116 24.7046 34.6126 24.7056C34.5804 23.8877 34.9023 23.0899 35.4747 22.5064C38.7071 19.2811 36.8339 16.761 38.355 14.8696C39.2715 14.0266 40.1518 14.0306 40.9546 14.438C40.7604 14.5457 40.5653 14.6875 40.3671 14.8696C38.846 16.761 40.7192 19.2811 37.4868 22.5064Z" fill="#ABD641"/>
<path d="M46.9623 1.76154V13.3819L46.2218 14.0849C46.2218 15.0572 45.1164 15.2037 44.144 15.2037L38.8292 15.1638C38.5819 15.1638 38.3408 15.2418 38.1406 15.3869L33.7548 18.4323C33.3668 18.7133 32.8236 18.4361 32.8236 17.957L33.2353 16.4923C33.2353 15.844 32.7098 15.3186 32.0616 15.3186H30.6531C29.6808 15.3186 28.8924 14.5304 28.8924 13.5579L28.6802 2.65691C28.6802 1.68458 29.0664 0.659025 30.0387 0.659025L30.5295 0.000976572H45.2016C46.174 0.000875969 46.9623 0.789105 46.9623 1.76154Z" fill="#DC4955"/>
<path d="M46.962 13.3815V13.9684C46.962 14.9407 46.1738 15.7291 45.2013 15.7291H38.9005C38.6529 15.7291 38.4122 15.8077 38.2127 15.9521L33.4554 19.3971C33.0681 19.6788 32.5246 19.4018 32.5246 18.9217V16.9028C32.5246 16.2545 31.999 15.7291 31.3509 15.7291H29.9423C28.97 15.7291 28.1816 14.9408 28.1816 13.9684V1.76115C28.1816 0.788818 28.9699 0.000488281 29.9423 0.000488281H30.5292V13.1468C30.5292 13.2764 30.6344 13.3815 30.7639 13.3815H31.3509C32.7019 13.3815 33.8772 14.1456 34.4674 15.2653C34.5681 15.4561 34.812 15.5164 34.9868 15.3897L36.8347 14.0505C37.4392 13.6127 38.154 13.3815 38.9004 13.3815H46.962Z" fill="#D82F3C"/>
<path d="M32.2533 47.9665C19.0883 47.9665 8.41528 37.3246 8.41528 24.1979C8.41528 16.38 11.9996 9.52535 17.8436 5.19336C9.39003 8.6828 3.44043 17.0072 3.44043 26.721C3.44043 30.6795 4.42836 34.4071 6.17121 37.6709C6.17121 37.6709 11.7033 42.0522 14.5007 44.111C18.3596 46.951 25.8578 48.7829 25.8578 48.7829C25.8578 48.7829 34.2011 49.066 37.4003 47.4101C35.7422 47.7743 34.0209 47.9665 32.2533 47.9665Z" fill="#6FBBC6"/>
<path d="M37.4382 47.3891C35.5675 44.7835 32.127 41.9111 32.2749 38.4514C32.3253 37.272 32.1697 36.0886 31.7814 34.9732C31.7752 34.9581 31.7703 34.9433 31.7654 34.9286C31.569 34.3762 31.274 33.865 30.9067 33.4094C29.8928 32.1498 27.7294 28.8637 26.6715 28.4029C24.6515 27.1535 21.9167 28.0839 20.836 30.1353C19.898 32.5083 19.6392 35.7596 17.1888 37.0395C15.724 37.8338 13.6129 37.6554 12.4986 36.3401C10.5653 33.829 7.85854 36.257 6.17383 37.6698C6.84324 38.9205 9.57453 39.8373 10.4578 40.9465C14.1228 45.5502 17.3847 47.3249 22.755 48.2886C27.7502 49.195 32.8759 49.7588 37.3838 47.4167C37.4019 47.4073 37.4201 47.3984 37.4382 47.3891Z" fill="#B7E546"/>
<path d="M37.3911 47.412C33.3891 49.4942 28.7679 50.3434 24.2845 49.8728V49.8718C16.7071 49.1309 9.71417 44.4042 6.17383 37.6696C7.50582 36.5519 9.47866 34.7984 11.202 35.3587C15.211 42.8607 23.1346 47.9664 32.2533 47.9664C34.0179 47.9664 35.7362 47.7752 37.3911 47.412Z" fill="#ABD641"/>
<path d="M42.583 27.2567V38.877L41.8425 39.58C41.8425 40.5523 40.7371 40.6988 39.7647 40.6988L34.4499 40.6589C34.2026 40.6589 33.9616 40.7369 33.7614 40.882L29.3755 43.9274C28.9875 44.2085 28.4443 43.9312 28.4443 43.4521L28.856 41.9874C28.856 41.3392 28.3305 40.8137 27.6823 40.8137H26.2737C25.3014 40.8137 24.5131 40.0255 24.5131 39.053L24.3008 28.152C24.3008 27.1797 24.687 26.1541 25.6593 26.1541L26.1501 25.4961H40.8222C41.7947 25.496 42.583 26.2843 42.583 27.2567Z" fill="#FFBF54"/>
<path d="M42.5831 38.8771V39.464C42.5831 40.4364 41.7949 41.2247 40.8225 41.2247H34.5216C34.274 41.2247 34.0333 41.3033 33.8338 41.4477L29.0765 44.8927C28.6892 45.1744 28.1457 44.8974 28.1457 44.4173V42.3984C28.1457 41.7501 27.6201 41.2247 26.9719 41.2247H25.5634C24.5911 41.2247 23.8027 40.4364 23.8027 39.464V27.2568C23.8027 26.2844 24.591 25.4961 25.5634 25.4961H26.1503V38.6424C26.1503 38.7721 26.2554 38.8771 26.385 38.8771H26.9719C28.323 38.8771 29.4983 39.6412 30.0885 40.7609C30.1892 40.9517 30.4331 41.012 30.6079 40.8853L32.4558 39.5461C33.0603 39.1083 33.7751 38.8771 34.5215 38.8771H42.5831Z" fill="#FFA442"/>
<path d="M42.1336 5.76044C42.5503 5.76044 42.8881 5.42262 42.8881 5.00592C42.8881 4.58922 42.5503 4.25139 42.1336 4.25139H38.2276V2.96839C38.2276 2.55169 37.8898 2.21387 37.4731 2.21387C37.0564 2.21387 36.7186 2.55169 36.7186 2.96839V4.25139H32.8126C32.3959 4.25139 32.0581 4.58922 32.0581 5.00592C32.0581 5.42262 32.3959 5.76044 32.8126 5.76044H34.3771C34.7394 7.36618 35.456 8.84284 36.454 10.0988C35.6903 10.8278 34.7968 11.4323 33.8006 11.8763L32.761 12.3396C32.3803 12.5092 32.2093 12.9553 32.3789 13.3359C32.5041 13.6168 32.7797 13.7835 33.0686 13.7835C33.1712 13.7835 33.2755 13.7625 33.3752 13.718L34.4147 13.2547C35.5615 12.7436 36.5913 12.0498 37.4731 11.2132C38.3549 12.0498 39.3847 12.7436 40.5314 13.2547L41.571 13.718C41.6708 13.7625 41.775 13.7835 41.8776 13.7835C42.1665 13.7835 42.4421 13.6167 42.5673 13.3359C42.7369 12.9553 42.5659 12.5092 42.1852 12.3396L41.1456 11.8763C40.1493 11.4324 39.2559 10.8278 38.4922 10.0988C39.4902 8.84284 40.2067 7.36618 40.569 5.76044H42.1336ZM37.4731 8.94887C36.7661 8.00451 36.2385 6.92543 35.9303 5.76044H39.0158C38.7076 6.92543 38.1801 8.00451 37.4731 8.94887Z" fill="#FAF8F8"/>
<path d="M38.9724 28.7227H35.4623C35.0456 28.7227 34.7078 29.0605 34.7078 29.4772C34.7078 29.8939 35.0456 30.2317 35.4623 30.2317H36.4628V32.5959H33.4615C33.6368 32.2389 33.7355 31.8376 33.7355 31.4138C33.7355 29.9299 32.5283 28.7227 31.0444 28.7227H28.8657C28.449 28.7227 28.1112 29.0605 28.1112 29.4772C28.1112 29.8939 28.449 30.2317 28.8657 30.2317H31.0444C31.6962 30.2317 32.2265 30.762 32.2265 31.4138C32.2265 32.0656 31.6962 32.5959 31.0444 32.5959H28.6236C28.2069 32.5959 27.869 32.9337 27.869 33.3504C27.869 33.7671 28.2069 34.105 28.6236 34.105H31.0444C31.6962 34.105 32.2265 34.6352 32.2265 35.287C32.2265 35.9499 31.7073 36.4691 31.0444 36.4691C30.0019 36.4691 28.8185 36.3516 27.9467 35.4798C27.652 35.1851 27.1743 35.1851 26.8797 35.4798C26.585 35.7745 26.585 36.2522 26.8797 36.5468C28.1484 37.8155 29.7718 37.9782 31.0444 37.9782C32.5283 37.9782 33.7355 36.771 33.7355 35.287C33.7355 34.8632 33.6368 34.462 33.4615 34.105H36.4628V37.2237C36.4628 37.6404 36.8006 37.9782 37.2173 37.9782C37.634 37.9782 37.9718 37.6404 37.9718 37.2237V30.2317H38.9723C39.389 30.2317 39.7269 29.8939 39.7269 29.4772C39.7269 29.0605 39.3891 28.7227 38.9724 28.7227Z" fill="#FAF8F8"/>
<path d="M20.1366 14.6806L20.1074 14.7047C19.7191 15.0136 18.371 16.248 17.4153 17.3063C17.0309 15.8546 17.3649 14.3134 18.8559 13.1293C20.9273 11.419 20.1627 8.08702 18.7151 6.2017L17.8432 5.19315C18.5193 4.91348 19.212 4.66549 19.9193 4.4502C20.545 5.4009 21.1014 6.2017 21.1014 6.2017C22.6014 8.99547 22.6688 12.591 20.1366 14.6806Z" fill="#ABD641"/>
<path d="M28.2406 19.2368C28.2134 19.283 28.1852 19.3283 28.1561 19.3736C27.7587 19.9893 27.2396 20.5265 26.6239 20.949C24.9287 22.114 22.7305 22.2448 20.9056 21.2941C20.8593 21.27 20.812 21.2448 20.7647 21.2197C17.9035 19.8172 15.9468 16.108 18.3522 13.5889C17.5866 15.9007 19.3945 18.5698 21.8281 19.7106C21.8774 19.7358 21.9267 19.7609 21.975 19.785C23.8824 20.7358 26.1802 20.605 27.9518 19.44C28.0504 19.3756 28.147 19.3082 28.2406 19.2368Z" fill="#ABD641"/>
<path d="M24.0303 49.8442C24.0367 49.8449 24.0432 49.8458 24.0496 49.8465C24.0432 49.8458 24.0367 49.845 24.0303 49.8442Z" fill="#94CCD4"/>
<path d="M16.8145 47.791C16.8373 47.8018 16.8603 47.8123 16.8832 47.8229C16.8602 47.8123 16.8373 47.8018 16.8145 47.791Z" fill="#94CCD4"/>
<path d="M37.4004 47.4102C36.9849 47.6255 36.5634 47.8277 36.1338 48.0168C36.5563 47.8297 36.9728 47.6295 37.3833 47.4162C37.3863 47.4152 37.3883 47.4132 37.3913 47.4122C37.3944 47.4112 37.3974 47.4112 37.4004 47.4102Z" fill="#94CCD4"/>
<path d="M0.810059 13.7832L0.957745 23.9077C0.957745 24.8991 1.76559 25.7029 2.76217 25.7029L8.42666 25.888C8.68008 25.888 8.92706 25.9676 9.13229 26.1155L12.9982 29.3837C13.3959 29.6704 13.9525 29.3877 13.9525 28.8991L14.1968 27.3192C14.1968 26.6582 14.7353 26.1224 15.3997 26.1224L17.2693 26.1155C18.2659 26.1155 19.2472 25.8789 19.2472 24.8875V12.4407C19.2472 11.4492 18.4393 10.6455 17.4428 10.6455H1.80432C0.807745 10.6455 0.810059 12.7918 0.810059 13.7832Z" fill="#FAF8F8"/>
<path d="M10.5035 13.9943C10.5012 13.9886 10.499 13.9829 10.4967 13.9771C10.3486 13.6153 10.0003 13.3813 9.60939 13.3809C9.60899 13.3809 9.60878 13.3809 9.60838 13.3809C9.21794 13.3809 8.86955 13.6142 8.72086 13.9753C8.71804 13.9822 8.71532 13.9891 8.71261 13.9962L5.3437 22.9233C5.19661 23.3132 5.39339 23.7486 5.78323 23.8956C6.17317 24.0427 6.60859 23.8459 6.75557 23.4561L7.4104 21.721H11.8314L12.4931 23.4583C12.6078 23.7594 12.8943 23.9445 13.1983 23.9445C13.2876 23.9445 13.3784 23.9285 13.4667 23.8949C13.8562 23.7467 14.0515 23.3107 13.9032 22.9213L10.5035 13.9943ZM7.97981 20.2119L9.6107 15.8903L11.2567 20.2119H7.97981Z" fill="#AAD8DE"/>
<path d="M19.2475 24.6707V24.888C19.2475 25.8789 18.4396 26.6827 17.4427 26.6827H15.999C15.335 26.6827 14.7968 27.219 14.7968 27.8799V29.9393C14.7968 30.4272 14.2394 30.7099 13.842 30.4232L8.9678 26.9101C8.76257 26.7622 8.51509 26.6827 8.26157 26.6827H1.80483C0.807847 26.6827 0 25.8789 0 24.888V12.4413C0 11.4493 0.807847 10.6455 1.80483 10.6455H2.01207V24.1676C2.01207 24.4454 2.23732 24.6707 2.51509 24.6707H8.26157C8.93762 24.6707 9.59658 24.8839 10.1439 25.2783L12.3924 26.899C12.6076 27.054 12.9074 26.9594 13.004 26.7129C13.4728 25.5187 14.6388 24.6707 15.999 24.6707H19.2475Z" fill="#F0E9E6"/>
</g>
<defs>
<clipPath id="clip0_214_1189">
<rect width="50" height="50" fill="white"/>
</clipPath>
</defs>
</svg>
