<svg width="28" height="28" viewBox="0 0 28 28" fill="none" xmlns="http://www.w3.org/2000/svg">
<path d="M25.1949 25.2005V25.1996H25.2005V16.9844C25.2005 12.9656 24.3353 9.86963 19.6369 9.86963C17.3781 9.86963 15.8625 11.1092 15.2437 12.2841H15.1784V10.2448H10.7236V25.1996H15.3624V17.7945C15.3624 15.8448 15.732 13.9593 18.1464 13.9593C20.5256 13.9593 20.5609 16.1845 20.5609 17.9193V25.2005H25.1949Z" fill="white"/>
<path d="M3.16992 10.2456H7.81428V25.2004H3.16992V10.2456Z" fill="white"/>
<path d="M5.49025 2.80029C4.00513 2.80029 2.80029 4.00513 2.80029 5.49025C2.80029 6.97537 4.00513 8.20541 5.49025 8.20541C6.97537 8.20541 8.18021 6.97537 8.18021 5.49025C8.17909 4.00513 6.97425 2.80029 5.49025 2.80029Z" fill="white"/>
</svg>
