<svg width="50" height="50" viewBox="0 0 50 50" fill="none" xmlns="http://www.w3.org/2000/svg">
<path d="M25 48.9258C38.2138 48.9258 48.9258 38.2138 48.9258 25C48.9258 11.7862 38.2138 1.07422 25 1.07422C11.7862 1.07422 1.07422 11.7862 1.07422 25C1.07422 38.2138 11.7862 48.9258 25 48.9258Z" fill="#91E0E8"/>
<path d="M15.1913 39.917C15.1913 40.116 15.0286 40.2786 14.8297 40.2786H0.361719C0.162695 40.2786 0 40.116 0 39.917V30.2236C0 30.0247 0.162695 29.8618 0.361719 29.8618H14.8296C15.0285 29.8618 15.1912 30.0247 15.1912 30.2236V39.917H15.1913Z" fill="#52BBEF"/>
<path d="M11.7217 35.5255C11.5935 35.3736 11.3837 35.3736 11.2555 35.5255L9.3751 37.7567C9.24687 37.9086 9.03721 37.9086 8.90889 37.7567L5.35947 33.5458C5.23125 33.3936 5.02158 33.3936 4.89326 33.5458L0 39.3509V39.9171C0 40.1161 0.162695 40.2787 0.361719 40.2787H14.8296C15.0285 40.2787 15.1912 40.1161 15.1912 39.9171V39.6416L11.7217 35.5255Z" fill="#02AF8E"/>
<path d="M1.93779 39.9171V39.3509L6.09521 34.4187L5.35947 33.5458C5.23125 33.3936 5.02158 33.3936 4.89326 33.5458L0 39.3509V39.9171C0 40.1161 0.162695 40.2787 0.361719 40.2787H2.29951C2.10049 40.2787 1.93779 40.1161 1.93779 39.9171Z" fill="#0F9390"/>
<path d="M2.03906 32.8438C2.63827 32.8438 3.12402 32.358 3.12402 31.7588C3.12402 31.1596 2.63827 30.6738 2.03906 30.6738C1.43985 30.6738 0.954102 31.1596 0.954102 31.7588C0.954102 32.358 1.43985 32.8438 2.03906 32.8438Z" fill="white"/>
<path d="M1.8502 31.7588C1.8502 31.3195 2.11182 30.9422 2.4873 30.7715C2.35068 30.7093 2.19922 30.6738 2.03926 30.6738C1.43994 30.6738 0.954102 31.1597 0.954102 31.7588C0.954102 32.3581 1.44004 32.844 2.03926 32.844C2.19922 32.844 2.35059 32.8086 2.4873 32.7464C2.11182 32.5756 1.8502 32.1981 1.8502 31.7588Z" fill="#D9EAFC"/>
<path d="M46.5372 38.0092C46.5372 38.2777 46.3175 38.4975 46.0489 38.4975H35.396C35.1274 38.4975 34.9077 38.2777 34.9077 38.0092V30.3848C34.9077 30.1162 35.1274 29.8965 35.396 29.8965H46.0489C46.3175 29.8965 46.5372 30.1162 46.5372 30.3848V38.0092Z" fill="#FE3745"/>
<path d="M36.8455 38.0092V30.3848C36.8455 30.1162 37.0652 29.8965 37.3338 29.8965H35.396C35.1274 29.8965 34.9077 30.1162 34.9077 30.3848V38.0092C34.9077 38.2777 35.1274 38.4975 35.396 38.4975H37.3338C37.0652 38.4975 36.8455 38.2777 36.8455 38.0092Z" fill="#B7092B"/>
<path d="M38.8232 32.6869C38.8232 32.1498 39.2038 31.93 39.6689 32.1986L42.2846 33.7087C42.7497 33.9772 42.7497 34.4167 42.2846 34.6852L39.6689 36.1954C39.2038 36.4639 38.8232 36.2442 38.8232 35.7071V32.6869Z" fill="white"/>
<path d="M49.8057 21.8892H41.0696C40.9628 21.8892 40.8755 21.9769 40.8755 22.0842V27.6896C40.8755 27.797 40.9629 27.8847 41.0696 27.8847H49.8057C49.9125 27.8847 49.9998 27.797 49.9998 27.6896V22.0842C49.9998 21.977 49.9124 21.8892 49.8057 21.8892Z" fill="#FFAF10"/>
<path d="M42.8133 27.6901V22.0847C42.8133 21.9773 42.9007 21.8896 43.0074 21.8896H41.0696C40.9628 21.8896 40.8755 21.9773 40.8755 22.0847V27.6901C40.8755 27.7975 40.9629 27.8852 41.0696 27.8852H43.0074C42.9007 27.8852 42.8133 27.7975 42.8133 27.6901Z" fill="#EF9614"/>
<path d="M49.8058 21.8892H41.0697C41.0106 21.8892 40.958 21.9166 40.9224 21.9589L45.2839 25.3298C45.3686 25.3952 45.507 25.3952 45.5916 25.3298L49.953 21.9589C49.9174 21.9167 49.8648 21.8892 49.8058 21.8892Z" fill="#FFD00D"/>
<path d="M12.6006 2.5542H3.86455C3.75772 2.5542 3.67041 2.64189 3.67041 2.74922V8.35469C3.67041 8.46201 3.75781 8.54971 3.86455 8.54971H12.6006C12.7074 8.54971 12.7947 8.46201 12.7947 8.35469V2.74922C12.7948 2.64199 12.7074 2.5542 12.6006 2.5542Z" fill="#FFAF10"/>
<path d="M5.6082 8.35469V2.74922C5.6082 2.64189 5.69561 2.5542 5.80234 2.5542H3.86455C3.75772 2.5542 3.67041 2.64189 3.67041 2.74922V8.35469C3.67041 8.46201 3.75781 8.54971 3.86455 8.54971H5.80234C5.69551 8.54971 5.6082 8.46192 5.6082 8.35469Z" fill="#EF9614"/>
<path d="M12.6007 2.5542H3.86465C3.80557 2.5542 3.75293 2.58164 3.71729 2.62393L8.07881 5.99482C8.16347 6.06025 8.30195 6.06025 8.38652 5.99482L12.748 2.62393C12.7124 2.58174 12.6599 2.5542 12.6007 2.5542Z" fill="#FFD00D"/>
<path d="M24.9537 4.24805C17.4265 4.24805 11.3027 10.3719 11.3027 17.8991C11.3027 22.5177 13.611 26.7881 17.4771 29.3223C17.65 29.4356 17.7838 29.5998 17.8601 29.792L19.3614 33.5807H30.5459L32.0474 29.792C32.1236 29.5998 32.2573 29.4357 32.4303 29.3223C36.2964 26.7881 38.6046 22.5177 38.6046 17.8991C38.6046 10.3719 32.4808 4.24805 24.9537 4.24805Z" fill="#FFD00D"/>
<path d="M19.4153 29.3223C15.5492 26.7881 13.241 22.5177 13.241 17.8991C13.241 10.6977 18.8463 4.78154 25.9231 4.28281C25.603 4.26025 25.28 4.24805 24.9542 4.24805C17.427 4.24805 11.3032 10.3719 11.3032 17.8991C11.3032 22.5177 13.6115 26.7881 17.4776 29.3223C17.6505 29.4356 17.7843 29.5998 17.8605 29.792L19.3619 33.5807H21.2997L19.7983 29.792C19.7219 29.5998 19.5882 29.4356 19.4153 29.3223Z" fill="#FFAF10"/>
<path d="M25.6865 33.5805V28.5576C25.4444 28.574 25.2004 28.5832 24.9541 28.5832C24.7078 28.5832 24.4638 28.574 24.2217 28.5576V33.5805H25.6865Z" fill="#1A2B63"/>
<path d="M24.9537 28.681C19.0086 28.681 14.1719 23.8441 14.1719 17.8991C14.1719 11.9541 19.0086 7.11719 24.9537 7.11719C30.8987 7.11719 35.7355 11.9541 35.7355 17.8991C35.7355 23.8441 30.8987 28.681 24.9537 28.681Z" fill="#B7092B"/>
<path d="M24.954 26.0194C20.4762 26.0194 16.8335 22.3765 16.8335 17.8989C16.8335 13.4212 20.4763 9.77832 24.954 9.77832C29.4317 9.77832 33.0745 13.4213 33.0745 17.8989C33.0746 22.3766 29.4317 26.0194 24.954 26.0194Z" fill="white"/>
<path d="M18.283 17.899C18.283 13.6657 21.5396 10.1805 25.6787 9.8124C25.4398 9.79111 25.1984 9.77832 24.954 9.77832C20.4762 9.77832 16.8335 13.4213 16.8335 17.8989C16.8335 22.3766 20.4763 26.0194 24.954 26.0194C25.1984 26.0194 25.4398 26.0066 25.6787 25.9854C21.5396 25.6175 18.283 22.1322 18.283 17.899Z" fill="#D9EAFC"/>
<path d="M24.954 23.3587C27.9691 23.3587 30.4134 20.9144 30.4134 17.8993C30.4134 14.8842 27.9691 12.4399 24.954 12.4399C21.9389 12.4399 19.4946 14.8842 19.4946 17.8993C19.4946 20.9144 21.9389 23.3587 24.954 23.3587Z" fill="#B7092B"/>
<path d="M24.954 20.3474C23.604 20.3474 22.5059 19.2492 22.5059 17.8993C22.5059 16.5493 23.604 15.4512 24.954 15.4512C26.3039 15.4512 27.4021 16.5493 27.4021 17.8993C27.4022 19.2492 26.304 20.3474 24.954 20.3474Z" fill="white"/>
<path d="M24.053 17.8993C24.053 16.8195 24.7557 15.9017 25.7275 15.5771C25.4843 15.4959 25.2243 15.4512 24.954 15.4512C23.604 15.4512 22.5059 16.5493 22.5059 17.8993C22.5059 19.2492 23.604 20.3474 24.954 20.3474C25.2243 20.3474 25.4843 20.3027 25.7275 20.2214C24.7557 19.8969 24.053 18.979 24.053 17.8993Z" fill="#D9EAFC"/>
<path d="M21.2861 42.7788V44.7755C21.2861 45.3126 21.7256 45.7521 22.2627 45.7521H27.6452C28.1823 45.7521 28.6218 45.3126 28.6218 44.7755V42.7788H21.2861Z" fill="#293D7C"/>
<path d="M23.2239 44.7755V42.7788H21.2861V44.7755C21.2861 45.3126 21.7256 45.7521 22.2627 45.7521H24.2005C23.6634 45.7521 23.2239 45.3126 23.2239 44.7755Z" fill="#1A2B63"/>
<path d="M32.1429 42.3881C32.1429 42.6566 31.9231 42.8764 31.6546 42.8764H18.2534C17.9849 42.8764 17.7651 42.6566 17.7651 42.3881V33.9712C17.7651 33.7026 17.9849 33.4829 18.2534 33.4829H31.6546C31.9231 33.4829 32.1429 33.7026 32.1429 33.9712V42.3881Z" fill="#445EA0"/>
<path d="M19.7029 42.3881V33.9712C19.7029 33.7026 19.9227 33.4829 20.1912 33.4829H18.2534C17.9849 33.4829 17.7651 33.7026 17.7651 33.9712V42.3881C17.7651 42.6566 17.9849 42.8764 18.2534 42.8764H20.1912C19.9227 42.8764 19.7029 42.6566 19.7029 42.3881Z" fill="#293D7C"/>
<path d="M32.3344 37.3467H17.5742C17.1696 37.3467 16.8418 37.0188 16.8418 36.6143C16.8418 36.2097 17.1696 35.8818 17.5742 35.8818H32.3344C32.739 35.8818 33.0668 36.2097 33.0668 36.6143C33.0668 37.0188 32.7389 37.3467 32.3344 37.3467Z" fill="#1A2B63"/>
<path d="M32.3344 40.4775H17.5742C17.1696 40.4775 16.8418 40.1497 16.8418 39.7451C16.8418 39.3405 17.1696 39.0127 17.5742 39.0127H32.3344C32.739 39.0127 33.0668 39.3405 33.0668 39.7451C33.0668 40.1497 32.7389 40.4775 32.3344 40.4775Z" fill="#1A2B63"/>
<path d="M24.9541 17.2944H12.5366L13.0172 17.8122C13.1268 17.9303 13.1268 18.1235 13.0172 18.2416L12.5367 18.7593H24.9541C25.3587 18.7593 25.6865 18.4314 25.6865 18.0269C25.6865 17.6223 25.3587 17.2944 24.9541 17.2944Z" fill="#1A2B63"/>
<path d="M6.56806 20.5545C6.40693 20.5545 6.36747 20.4604 6.48056 20.3456L8.55576 18.2354C8.66875 18.1206 8.66875 17.9326 8.55576 17.8178L6.48056 15.7079C6.36757 15.593 6.40693 15.499 6.56806 15.499H10.6749C10.836 15.499 11.0575 15.5956 11.1672 15.7137L13.1148 17.8119C13.2244 17.93 13.2244 18.1232 13.1148 18.2413L11.1672 20.3396C11.0575 20.4578 10.836 20.5544 10.6749 20.5544L6.56806 20.5545Z" fill="#FE3745"/>
<path d="M8.22294 20.3461L10.2981 18.2359C10.4111 18.1211 10.4111 17.9331 10.2981 17.8183L8.22294 15.7084C8.10996 15.5935 8.14931 15.4995 8.31044 15.4995H6.56806C6.40693 15.4995 6.36748 15.5935 6.48056 15.7084L8.55576 17.8183C8.66874 17.9332 8.66874 18.1212 8.55576 18.2359L6.48056 20.3461C6.36757 20.4609 6.40693 20.555 6.56806 20.555H8.31054C8.14931 20.5549 8.10996 20.4609 8.22294 20.3461Z" fill="#B7092B"/>
</svg>
