<svg width="28" height="28" viewBox="0 0 28 28" fill="none" xmlns="http://www.w3.org/2000/svg">
<path d="M13.665 19.1293C16.9439 19.1293 19.6114 16.4617 19.6114 13.1829V5.94636C19.6114 2.66756 16.9439 0 13.665 0C10.3861 0 7.71864 2.66756 7.71864 5.94636V13.1828C7.71864 16.4618 10.3861 19.1293 13.665 19.1293ZM9.42677 5.94636C9.42677 3.60938 11.328 1.70812 13.665 1.70812C16.002 1.70812 17.9032 3.60938 17.9032 5.94636V13.1828C17.9032 15.5198 16.002 17.4211 13.665 17.4211C11.328 17.4211 9.42677 15.5198 9.42677 13.1828V5.94636ZM23.4648 14.9021C23.0648 17.1746 21.8667 19.2568 20.0912 20.765C18.5129 22.1058 16.5605 22.9174 14.5191 23.0953V25.6219H20.0705C20.5422 25.6219 20.9245 26.0042 20.9245 26.4759C20.9245 26.9476 20.5422 27.33 20.0705 27.33H7.25953C6.78782 27.33 6.40547 26.9476 6.40547 26.4759C6.40547 26.0042 6.78782 25.6219 7.25953 25.6219H12.8109V23.0953C10.7695 22.9174 8.81718 22.1058 7.23877 20.765C5.46328 19.2568 4.26524 17.1746 3.86527 14.9021C3.78355 14.4375 4.09379 13.9946 4.55835 13.9129C5.02285 13.8312 5.46579 14.1415 5.54751 14.606C6.24288 18.557 9.65678 21.4245 13.665 21.4245C17.6732 21.4245 21.0871 18.5569 21.7825 14.606C21.8642 14.1414 22.307 13.8311 22.7717 13.9129C23.2363 13.9946 23.5465 14.4375 23.4648 14.9021ZM23.4776 5.75254V10.6866C23.4776 11.1583 23.0953 11.5407 22.6236 11.5407C22.1519 11.5407 21.7695 11.1583 21.7695 10.6866V5.75254C21.7695 5.28083 22.1519 4.89848 22.6236 4.89848C23.0953 4.89848 23.4776 5.28083 23.4776 5.75254ZM27.33 6.92762V9.51137C27.33 9.98308 26.9476 10.3654 26.4759 10.3654C26.0042 10.3654 25.6219 9.98308 25.6219 9.51137V6.92762C25.6219 6.45591 26.0042 6.07356 26.4759 6.07356C26.9476 6.07356 27.33 6.45591 27.33 6.92762ZM3.85236 10.6866V5.75248C3.85236 5.28078 4.23471 4.89842 4.70642 4.89842C5.17813 4.89842 5.56048 5.28078 5.56048 5.75248V10.6866C5.56048 11.1583 5.17813 11.5406 4.70642 11.5406C4.23471 11.5406 3.85236 11.1583 3.85236 10.6866ZM1.70812 6.92762V9.51137C1.70812 9.98308 1.32577 10.3654 0.854062 10.3654C0.382353 10.3654 0 9.98308 0 9.51137V6.92762C0 6.45591 0.382353 6.07356 0.854062 6.07356C1.32577 6.07356 1.70812 6.45591 1.70812 6.92762Z" fill="url(#paint0_linear_214_314)"/>
<defs>
<linearGradient id="paint0_linear_214_314" x1="27.33" y1="13.2746" x2="-4.87912e-08" y2="13.2746" gradientUnits="userSpaceOnUse">
<stop stop-color="#F92B74"/>
<stop offset="1" stop-color="#FB4C59"/>
</linearGradient>
</defs>
</svg>
