<svg width="60" height="60" viewBox="0 0 60 60" fill="none" xmlns="http://www.w3.org/2000/svg">
<g clip-path="url(#clip0_214_1040)">
<path d="M22.8328 40.0753C21.5729 40.0753 20.5479 39.0502 20.5479 37.7904C20.5479 36.5305 21.5729 35.5054 22.8328 35.5054C24.0927 35.5054 25.1177 36.5305 25.1177 37.7904C25.1177 38.5023 25.6948 39.0794 26.4068 39.0794C27.1187 39.0794 27.6958 38.5023 27.6958 37.7904C27.6958 35.5621 26.1888 33.6804 24.1409 33.1075V30.1191C24.1409 29.4072 23.5638 28.8301 22.8519 28.8301C22.14 28.8301 21.5628 29.4072 21.5628 30.1191V33.0968C19.4954 33.6568 17.9697 35.5483 17.9697 37.7905C17.9697 40.472 20.1513 42.6535 22.8328 42.6535C24.0927 42.6535 25.1177 43.6786 25.1177 44.9384C25.1177 46.1983 24.0927 47.2234 22.8328 47.2234C21.5729 47.2234 20.5479 46.1983 20.5479 44.9384C20.5479 44.2265 19.9707 43.6494 19.2588 43.6494C18.5469 43.6494 17.9697 44.2265 17.9697 44.9384C17.9697 47.1806 19.4954 49.0721 21.5628 49.6321V51.5629C21.5628 52.2748 22.14 52.852 22.8519 52.852C23.5638 52.852 24.1409 52.2748 24.1409 51.5629V49.6213C26.1888 49.0483 27.6958 47.1666 27.6958 44.9384C27.6958 42.2568 25.5143 40.0753 22.8328 40.0753Z" fill="#33CCCC"/>
<path d="M60 40.8411C60 39.4291 59.3946 38.1564 58.4304 37.2671C59.3946 36.3779 60 35.1052 60 33.6932C60 31.0117 57.8184 28.8301 55.137 28.8301H40.722C40.4747 28.8301 40.2318 28.849 39.9943 28.8847C38.0585 26.4885 35.7454 24.5176 33.1827 23.0694C34.2109 22.177 34.863 20.8623 34.863 19.3972C34.863 17.3055 33.5354 15.5182 31.6787 14.833L34.7995 5.26266C34.9275 4.87008 34.8598 4.44 34.6172 4.1059C34.3746 3.7718 33.9868 3.57398 33.574 3.57398H27.5404C26.9739 1.51629 25.0871 0 22.852 0C20.6167 0 18.7287 1.51617 18.1623 3.57398H12.1301C11.7172 3.57398 11.3293 3.7718 11.0869 4.1059C10.8444 4.44 10.7767 4.87008 10.9045 5.26266L14.0252 14.833C12.1685 15.5181 10.841 17.3054 10.841 19.3972C10.841 20.863 11.4937 22.1783 12.5228 23.0707C9.31922 24.8834 6.46512 27.5232 4.30617 30.7085C1.5293 34.8052 0 39.6729 0 44.415C0 50.3647 2.36215 54.6463 7.02094 57.1406C10.6646 59.0913 15.6952 60 22.852 60C28.8811 60 33.3559 59.3585 36.7887 57.9919C37.6736 59.2076 39.1066 60 40.722 60H55.137C57.8184 60 60 57.8184 60 55.137C60 53.725 59.3946 52.4522 58.4304 51.563C59.3946 50.6737 60 49.401 60 47.989C60 46.5771 59.3946 45.3042 58.4305 44.415C59.3946 43.5258 60 42.253 60 40.8411ZM57.4219 33.6932C57.4219 34.953 56.3968 35.9781 55.137 35.9781H40.722C39.4621 35.9781 38.437 34.953 38.437 33.6932C38.437 32.4333 39.4621 31.4082 40.722 31.4082H55.137C56.3968 31.4082 57.4219 32.4333 57.4219 33.6932ZM19.278 6.15211C19.99 6.15211 20.5671 5.57496 20.5671 4.86305C20.5671 3.60316 21.5921 2.57812 22.852 2.57812C24.1119 2.57812 25.137 3.60316 25.137 4.86305V8.43703C25.137 9.14895 25.7141 9.72609 26.426 9.72609C27.1379 9.72609 27.7151 9.14895 27.7151 8.43703V6.15211H31.7978L29.0645 14.5341H16.6396L13.9064 6.15211H19.278V6.15211ZM15.7001 17.1124C15.7012 17.1124 15.7025 17.1125 15.7037 17.1125C15.7066 17.1125 15.7096 17.1122 15.7125 17.1122H29.9913C29.9943 17.1122 29.9972 17.1125 30.0001 17.1125C30.0013 17.1125 30.0026 17.1124 30.0038 17.1124C31.2619 17.1145 32.2848 18.1386 32.2848 19.3971C32.2848 20.6563 31.2608 21.6809 30.0019 21.6819C29.9878 21.6819 29.9738 21.6816 29.9597 21.682H15.7416C15.7297 21.6817 15.7179 21.682 15.7061 21.682H15.7041C14.4442 21.682 13.4193 20.657 13.4193 19.3971C13.4193 18.1386 14.4421 17.1145 15.7001 17.1124ZM22.852 57.4219C16.1362 57.4219 11.4925 56.6102 8.23781 54.8677C4.42945 52.8287 2.57812 49.4095 2.57812 44.415C2.57812 40.1834 3.94969 35.8291 6.44016 32.1548C8.85527 28.5918 12.2271 25.7967 15.9551 24.2603H29.7441C32.6971 25.4756 35.3752 27.4412 37.5662 29.9977C36.5225 30.8903 35.859 32.2153 35.859 33.6932C35.859 35.1052 36.4644 36.3779 37.4286 37.2671C36.4644 38.1564 35.859 39.4291 35.859 40.8411C35.859 42.253 36.4644 43.5258 37.4285 44.415C36.4643 45.3042 35.859 46.577 35.859 47.989C35.859 49.401 36.4644 50.6737 37.4286 51.563C36.3602 52.5333 35.7285 54.0512 35.8801 55.5795C32.7596 56.8338 28.5796 57.4219 22.852 57.4219ZM57.4219 55.137C57.4219 56.3968 56.3968 57.4219 55.137 57.4219H40.722C39.4621 57.4219 38.437 56.3968 38.437 55.137C38.437 53.8771 39.4621 52.852 40.722 52.852H55.137C56.3968 52.852 57.4219 53.8771 57.4219 55.137ZM57.4219 47.989C57.4219 49.2489 56.3968 50.2739 55.137 50.2739H40.722C39.4621 50.2739 38.437 49.2489 38.437 47.989C38.437 46.7291 39.4621 45.7041 40.722 45.7041H55.137C56.3968 45.7041 57.4219 46.7291 57.4219 47.989ZM40.722 43.1259C39.4621 43.1259 38.437 42.101 38.437 40.8411C38.437 39.5812 39.4621 38.5562 40.722 38.5562H55.137C56.3968 38.5562 57.4219 39.5812 57.4219 40.8411C57.4219 42.101 56.3968 43.1259 55.137 43.1259H40.722Z" fill="black"/>
</g>
<defs>
<clipPath id="clip0_214_1040">
<rect width="60" height="60" fill="white"/>
</clipPath>
</defs>
</svg>
