<svg width="60" height="60" viewBox="0 0 60 60" fill="none" xmlns="http://www.w3.org/2000/svg">
<path d="M59.6488 15.3197L52.3816 7.61277C52.1381 7.35449 51.7987 7.20801 51.4438 7.20801C51.0888 7.20801 50.7495 7.35449 50.5059 7.61277L43.2389 15.3197C43.0133 15.559 42.8877 15.8753 42.8877 16.204V50.3343C42.8877 53.595 45.7107 56.2478 49.1805 56.2478H53.707C57.177 56.2478 60 53.595 60 50.3343V16.204C60 15.8752 59.8744 15.5589 59.6488 15.3197ZM45.4659 42.9477V18.721H50.1548V42.9477H45.4659ZM52.7329 18.721H57.4219V42.9477H52.7329V18.721ZM51.4438 10.3761L56.8815 16.1429H46.0063L51.4438 10.3761ZM53.707 53.6698H49.1807C47.1323 53.6698 45.4659 52.1736 45.4659 50.3344V45.526H57.4219V50.3344C57.4219 52.1734 55.7554 53.6698 53.707 53.6698Z" fill="black"/>
<path d="M37.0288 7.20773H31.17V5.04199C31.17 4.33008 30.5929 3.75293 29.8809 3.75293C29.169 3.75293 28.5919 4.33008 28.5919 5.04199V7.20773H24.022V5.04199C24.022 4.33008 23.4449 3.75293 22.733 3.75293C22.0211 3.75293 21.4439 4.33008 21.4439 5.04199V7.20773H16.8741V5.04199C16.8741 4.33008 16.2969 3.75293 15.585 3.75293C14.8731 3.75293 14.2959 4.33008 14.2959 5.04199V7.20773H9.72609V5.04199C9.72609 4.33008 9.14895 3.75293 8.43703 3.75293C7.72512 3.75293 7.14797 4.33008 7.14797 5.04199V7.20773H1.28906C0.577148 7.20773 0 7.78488 0 8.4968V54.9585C0 55.6704 0.577148 56.2475 1.28906 56.2475H37.0288C37.7407 56.2475 38.3179 55.6704 38.3179 54.9585V8.4968C38.3179 7.78488 37.7408 7.20773 37.0288 7.20773ZM35.7397 53.6695H2.57812V9.78586H7.14797V12.0709C7.14797 12.7828 7.72512 13.36 8.43703 13.36C9.14895 13.36 9.72609 12.7828 9.72609 12.0709V9.78586H14.2959V12.0709C14.2959 12.7828 14.8731 13.36 15.585 13.36C16.2969 13.36 16.8741 12.7828 16.8741 12.0709V9.78586H21.4439V12.0709C21.4439 12.7828 22.0211 13.36 22.733 13.36C23.4449 13.36 24.022 12.7828 24.022 12.0709V9.78586H28.5919V12.0709C28.5919 12.7828 29.169 13.36 29.8809 13.36C30.5929 13.36 31.17 12.7828 31.17 12.0709V9.78586H35.7397V53.6695Z" fill="black"/>
<path d="M29.8816 22.6523H8.43701C7.7251 22.6523 7.14795 22.0752 7.14795 21.3633C7.14795 20.6514 7.7251 20.0742 8.43701 20.0742H29.8816C30.5935 20.0742 31.1707 20.6514 31.1707 21.3633C31.1707 22.0752 30.5935 22.6523 29.8816 22.6523Z" fill="#33CCCC"/>
<path d="M22.9712 29.8003H8.43701C7.7251 29.8003 7.14795 29.2231 7.14795 28.5112C7.14795 27.7993 7.7251 27.2222 8.43701 27.2222H22.9711C23.683 27.2222 24.2601 27.7993 24.2601 28.5112C24.2601 29.2231 23.6831 29.8003 22.9712 29.8003Z" fill="black"/>
<path d="M27.3717 36.9482H8.43701C7.7251 36.9482 7.14795 36.3711 7.14795 35.6592C7.14795 34.9473 7.7251 34.3701 8.43701 34.3701H27.3717C28.0836 34.3701 28.6608 34.9473 28.6608 35.6592C28.6608 36.3711 28.0836 36.9482 27.3717 36.9482Z" fill="#33CCCC"/>
<path d="M29.8816 44.0962H8.43701C7.7251 44.0962 7.14795 43.519 7.14795 42.8071C7.14795 42.0952 7.7251 41.5181 8.43701 41.5181H29.8816C30.5935 41.5181 31.1707 42.0952 31.1707 42.8071C31.1707 43.519 30.5935 44.0962 29.8816 44.0962Z" fill="black"/>
</svg>
