<svg width="231" height="424" viewBox="0 0 231 424" fill="none" xmlns="http://www.w3.org/2000/svg">
<path fill-rule="evenodd" clip-rule="evenodd" d="M0.874319 248.462C0.874319 179.378 0.874319 110.295 0.875056 41.2107C0.875056 36.0247 0.822739 30.8335 1.46307 25.6733C2.26698 19.1934 4.47387 13.3456 9.25241 8.67837C13.3633 4.66176 18.3895 2.54108 23.9675 1.58611C26.8169 1.09757 29.6929 0.876512 32.5865 0.827879C38.362 0.730614 44.136 0.707771 49.913 0.791773C52.1789 0.824195 53.5782 2.39444 53.6732 4.36775C53.7513 6.00505 53.7941 7.64825 54.1396 9.28186C55.2545 14.5526 59.7604 18.7542 65.3156 19.3083C66.9625 19.4726 68.6057 19.5441 70.2555 19.5441C100.495 19.5448 130.733 19.5441 160.972 19.5411C163.27 19.5411 165.563 19.5117 167.807 18.906C173.318 17.419 176.968 12.5425 177.242 6.82738C177.292 5.76852 177.337 4.70302 177.495 3.65668C177.735 2.07243 178.857 1.04231 180.441 0.861775C181.084 0.788089 181.734 0.743877 182.382 0.741667C188.63 0.724719 194.881 0.615664 201.123 0.92146C206.09 1.16462 210.978 1.95085 215.48 4.22185C222.802 7.91425 227.101 13.944 228.914 21.8586C229.827 25.8487 230.015 29.9073 230.107 33.974C230.163 36.5073 230.167 39.0429 230.167 41.5777C230.172 180.041 230.175 318.503 230.175 456.966C230.175 461.799 230.186 466.635 229.587 471.443C228.777 477.922 226.569 483.773 221.793 488.436C217.961 492.176 213.305 494.299 208.114 495.327C203.644 496.214 199.106 496.378 194.567 496.385C180.596 496.404 166.626 496.398 152.656 496.399C114.754 496.399 76.8526 496.397 38.95 496.401C34.2923 496.402 29.6347 496.356 25.0146 495.689C17.8228 494.65 11.5919 491.801 7.02193 485.922C4.21229 482.308 2.62583 478.164 1.81824 473.699C0.89053 468.568 0.89274 463.376 0.89053 458.19C0.875792 429.837 0.881687 401.485 0.881687 373.131C0.88095 331.575 0.881687 290.018 0.881687 248.462H0.874319Z" fill="black"/>
</svg>
