<svg width="116" height="30" viewBox="0 0 116 30" fill="none" xmlns="http://www.w3.org/2000/svg">
<g clip-path="url(#clip0_214_1365)">
<path d="M108.705 19.9257C109.543 19.9257 110.224 19.6941 110.748 19.231C111.209 18.8231 111.475 18.2967 111.547 17.652C111.563 17.5032 111.684 17.3837 111.832 17.3837H115.546C115.699 17.3837 115.823 17.5091 115.815 17.6625C115.761 18.7127 115.449 19.6829 114.881 20.573C114.263 21.5309 113.414 22.2782 112.335 22.815C111.266 23.3413 110.082 23.6044 108.783 23.6044C106.353 23.6044 104.435 22.8308 103.031 21.2835C101.627 19.7257 100.925 17.5784 100.925 14.8418V14.5418C100.925 11.9104 101.622 9.81047 103.015 8.24214C104.409 6.67381 106.321 5.88965 108.752 5.88965C110.879 5.88965 112.581 6.50014 113.859 7.72113C115.088 8.87527 115.741 10.3978 115.817 12.2888C115.823 12.4424 115.699 12.5682 115.546 12.5682H111.834C111.684 12.5682 111.563 12.4482 111.55 12.2987C111.485 11.5375 111.217 10.9116 110.748 10.421C110.224 9.86309 109.532 9.58418 108.673 9.58418C107.615 9.58418 106.477 9.98862 105.932 10.7675C105.398 11.5359 105.052 12.8032 105.052 14.5399V15.065C105.052 16.8229 105.398 18.1934 105.932 18.9618C106.466 19.7302 107.615 19.9257 108.705 19.9257Z" fill="white"/>
<path d="M97.7617 23.2455C97.7617 23.3982 97.6385 23.5219 97.4866 23.5219H93.4978C93.3459 23.5219 93.2227 23.3982 93.2227 23.2455V6.71875C93.2227 6.56611 93.3459 6.44238 93.4978 6.44238H97.4866C97.6385 6.44238 97.7617 6.56611 97.7617 6.71875V23.2455Z" fill="white"/>
<path d="M95.4922 4.92237C96.7456 4.92237 97.7617 3.90156 97.7617 2.64234C97.7617 1.38311 96.7456 0.362305 95.4922 0.362305C94.2388 0.362305 93.2227 1.38311 93.2227 2.64234C93.2227 3.90156 94.2388 4.92237 95.4922 4.92237Z" fill="white"/>
<path d="M86.7124 1.99316C86.8642 1.99316 86.9875 2.1169 86.9875 2.26953V6.19293H89.6196C89.7717 6.19293 89.8947 6.31666 89.8947 6.46929V9.26373C89.8947 9.41636 89.7717 9.54009 89.6196 9.54009H86.9875V18.0659C86.9875 18.6975 87.108 19.1501 87.349 19.4237C87.5899 19.6974 88.0507 19.8343 88.7319 19.8343C89.0986 19.8343 89.4344 19.8147 89.7398 19.7755C89.9109 19.7536 90.0677 19.8841 90.0677 20.0573V22.9769C90.0677 23.0985 89.9888 23.2061 89.8724 23.2391C89.0433 23.4743 88.1916 23.5919 87.3173 23.5919C84.1323 23.5919 82.5084 21.9762 82.4454 18.7448V9.54009H80.2375C80.0856 9.54009 79.9624 9.41636 79.9624 9.26373V6.46929C79.9624 6.31666 80.0856 6.19293 80.2375 6.19293H82.4454V2.26953C82.4454 2.1169 82.5686 1.99316 82.7205 1.99316H86.7124Z" fill="white"/>
<path d="M66.4038 7.90567C67.5405 6.56166 69.1553 5.88965 71.2479 5.88965C73.1177 5.88965 74.5358 6.43898 75.5025 7.53768C76.4585 8.63635 76.9366 10.2257 76.9366 12.3057V23.2455C76.9366 23.3982 76.8133 23.5219 76.6615 23.5219H73.3394C73.1876 23.5219 73.0644 23.3982 73.0644 23.2455V12.3537C73.0644 10.1564 72.1563 9.0577 70.3395 9.0577C68.4593 9.0577 67.19 9.73502 66.5314 11.0897V23.2455C66.5314 23.3982 66.4082 23.5219 66.2563 23.5219H62.9343C62.7824 23.5219 62.6592 23.3982 62.6592 23.2455V6.48602C62.6592 6.33338 62.7824 6.20965 62.9343 6.20965H66.0483C66.1941 6.20965 66.3146 6.32407 66.3229 6.47041L66.4038 7.90567Z" fill="white"/>
<path fill-rule="evenodd" clip-rule="evenodd" d="M54.3204 20.5962L55.1448 23.2455C55.1809 23.3608 55.287 23.4394 55.4075 23.4394H59.3565C59.5482 23.4394 59.6811 23.2476 59.6145 23.0672L53.33 5.98768C53.2901 5.87918 53.1873 5.80713 53.072 5.80713H49.476C49.3607 5.80713 49.2575 5.87948 49.2179 5.98829L42.9799 23.0678C42.9142 23.2482 43.047 23.4394 43.2382 23.4394H47.1635C47.2843 23.4394 47.3908 23.3604 47.4265 23.2446L48.2881 20.4424L48.2909 20.434L48.3795 20.1454H48.3797L49.3937 16.8596V16.8596L51.2737 10.748L53.0128 16.3652V16.3652L53.0461 16.4725L53.1672 16.8636H53.1669L54.3204 20.5962Z" fill="white"/>
<path d="M36.1925 21.5059C35.0558 22.8499 33.441 23.5219 31.3483 23.5219C29.4785 23.5219 28.0604 22.9726 27.0938 21.8739C26.1377 20.7752 25.6597 19.1858 25.6597 17.1058V6.44238C25.6597 6.13711 25.906 5.88965 26.2099 5.88965H29.2568C29.4087 5.88965 29.5319 6.01338 29.5319 6.16602V17.0578C29.5319 19.2552 30.44 20.3538 32.2567 20.3538C34.137 20.3538 35.4063 19.6765 36.0648 18.3218V6.16602C36.0648 6.01338 36.1881 5.88965 36.3399 5.88965H39.662C39.8138 5.88965 39.9371 6.01338 39.9371 6.16602V22.9255C39.9371 23.0782 39.8138 23.2019 39.662 23.2019H36.5479C36.4021 23.2019 36.2816 23.0875 36.2734 22.9411L36.1925 21.5059Z" fill="white"/>
<path fill-rule="evenodd" clip-rule="evenodd" d="M21.1497 17.8419C22.1803 16.0369 22.7268 13.9247 22.6203 11.6921C22.3231 5.46419 17.0567 0.657498 10.8575 0.95606C4.65821 1.25462 -0.126345 6.54539 0.170843 12.7733C0.46803 19.0012 5.73443 23.8079 11.9337 23.5094C12.3447 23.4896 12.7495 23.4478 13.1471 23.3853C12.5419 22.6135 12.1617 21.6517 12.1113 20.5956C12.09 20.1489 12.1291 19.7134 12.2212 19.2969C12.0607 19.3157 11.8984 19.3291 11.7346 19.337C7.82905 19.5251 4.51122 16.4969 4.32399 12.5733C4.13676 8.64971 7.15103 5.31652 11.0565 5.12843C14.9621 4.94033 18.2799 7.96854 18.4671 11.8921C18.5295 13.1981 18.2371 14.4387 17.6752 15.5196C19.1418 15.7321 20.4089 16.6055 21.1497 17.8419Z" fill="white"/>
<path d="M17.1543 22.5957C18.389 22.5014 19.3139 21.4195 19.2201 20.1791C19.1263 18.9387 18.0493 18.0096 16.8147 18.1038C15.58 18.198 14.6551 19.2799 14.7489 20.5203C14.8427 21.7607 15.9196 22.6899 17.1543 22.5957Z" fill="#00B2E8"/>
<path d="M24.3449 27.05C24.6612 27.05 24.9042 27.1263 25.0737 27.2788C25.2433 27.4288 25.3281 27.6564 25.3281 27.9615V29.1323H24.7738V28.8767C24.6625 29.0674 24.4549 29.1627 24.1512 29.1627C23.9943 29.1627 23.8577 29.1362 23.7412 29.0829C23.6274 29.0293 23.54 28.9557 23.4793 28.8615C23.4186 28.7675 23.3882 28.6606 23.3882 28.5412C23.3882 28.3505 23.459 28.2004 23.6008 28.0913C23.745 27.9818 23.9665 27.9272 24.2651 27.9272H24.7359C24.7359 27.7975 24.6966 27.6983 24.6182 27.6297C24.5397 27.5585 24.422 27.5229 24.2651 27.5229C24.1563 27.5229 24.0487 27.5407 23.9424 27.5763C23.8387 27.6094 23.7501 27.6551 23.6767 27.7136L23.4641 27.2979C23.5755 27.2191 23.7083 27.1581 23.8627 27.1148C24.0196 27.0716 24.1803 27.05 24.3449 27.05ZM24.2993 28.7623C24.4005 28.7623 24.4904 28.7396 24.5688 28.6938C24.6473 28.6454 24.703 28.5755 24.7359 28.484V28.2742H24.3297C24.0867 28.2742 23.9652 28.3544 23.9652 28.5144C23.9652 28.5907 23.9943 28.6518 24.0525 28.6976C24.1133 28.7407 24.1955 28.7623 24.2993 28.7623ZM27.1055 27.05C27.3586 27.05 27.5623 27.1263 27.7168 27.2788C27.8736 27.4314 27.952 27.6577 27.952 27.9577V29.1323H27.3598V28.0493C27.3598 27.8865 27.3244 27.7657 27.2535 27.6869C27.1827 27.6055 27.0802 27.5649 26.946 27.5649C26.7967 27.5649 26.6778 27.6119 26.5892 27.706C26.5006 27.7975 26.4563 27.9348 26.4563 28.1178V29.1323H25.8641V27.0805H26.4297V27.3208C26.5082 27.2343 26.6056 27.1682 26.7221 27.1225C26.8385 27.0741 26.9663 27.05 27.1055 27.05ZM29.6058 26.4627H30.2207V29.1323H29.6058V26.4627ZM31.4019 26.9661H30.5516V26.4627H32.8674V26.9661H32.0168V29.1323H31.4019V26.9661ZM35.2186 29.1627C35.001 29.1627 34.8049 29.1183 34.6302 29.0293C34.458 28.9378 34.3226 28.812 34.2239 28.6517C34.1278 28.4917 34.0797 28.3099 34.0797 28.1065C34.0797 27.903 34.1278 27.7212 34.2239 27.561C34.3226 27.4009 34.458 27.2763 34.6302 27.1873C34.8049 27.0958 35.001 27.05 35.2186 27.05C35.4337 27.05 35.6211 27.0958 35.7803 27.1873C35.9424 27.2763 36.0601 27.4047 36.1336 27.5725L35.6742 27.8204C35.5677 27.6322 35.4147 27.5382 35.2147 27.5382C35.0604 27.5382 34.9325 27.589 34.8313 27.6907C34.73 27.7924 34.6794 27.931 34.6794 28.1065C34.6794 28.282 34.73 28.4204 34.8313 28.5221C34.9325 28.6238 35.0604 28.6747 35.2147 28.6747C35.4172 28.6747 35.5704 28.5807 35.6742 28.3925L36.1336 28.6443C36.0601 28.8068 35.9424 28.9339 35.7803 29.0257C35.6211 29.1171 35.4337 29.1627 35.2186 29.1627ZM37.4205 29.1627C37.2053 29.1627 37.0117 29.1183 36.8395 29.0293C36.67 28.9378 36.5371 28.812 36.4408 28.6517C36.3448 28.4917 36.2967 28.3099 36.2967 28.1065C36.2967 27.903 36.3448 27.7212 36.4408 27.561C36.5371 27.4009 36.67 27.2763 36.8395 27.1873C37.0117 27.0958 37.2053 27.05 37.4205 27.05C37.6356 27.05 37.8279 27.0958 37.9973 27.1873C38.1671 27.2763 38.2999 27.4009 38.3959 27.561C38.4922 27.7212 38.5404 27.903 38.5404 28.1065C38.5404 28.3099 38.4922 28.4917 38.3959 28.6517C38.2999 28.812 38.1671 28.9378 37.9973 29.0293C37.8279 29.1183 37.6356 29.1627 37.4205 29.1627ZM37.4205 28.6747C37.5723 28.6747 37.6961 28.6238 37.7924 28.5221C37.8911 28.4179 37.9404 28.2792 37.9404 28.1065C37.9404 27.9335 37.8911 27.7962 37.7924 27.6945C37.6961 27.5903 37.5723 27.5382 37.4205 27.5382C37.2686 27.5382 37.1432 27.5903 37.0444 27.6945C36.9459 27.7962 36.8964 27.9335 36.8964 28.1065C36.8964 28.2792 36.9459 28.4179 37.0444 28.5221C37.1432 28.6238 37.2686 28.6747 37.4205 28.6747ZM41.5518 27.05C41.8074 27.05 42.0099 27.1263 42.1592 27.2788C42.3111 27.4288 42.387 27.6551 42.387 27.9577V29.1323H41.7947V28.0493C41.7947 27.8865 41.7606 27.7657 41.6921 27.6869C41.6264 27.6055 41.5315 27.5649 41.4074 27.5649C41.2682 27.5649 41.1582 27.6106 41.0773 27.7022C40.9961 27.7911 40.9557 27.9246 40.9557 28.1026V29.1323H40.3634V28.0493C40.3634 27.7263 40.2344 27.5649 39.9764 27.5649C39.8396 27.5649 39.7307 27.6106 39.6498 27.7022C39.5689 27.7911 39.5282 27.9246 39.5282 28.1026V29.1323H38.9362V27.0805H39.5018V27.317C39.5777 27.2305 39.6702 27.1644 39.7788 27.1186C39.8902 27.0729 40.0118 27.05 40.1433 27.05C40.2875 27.05 40.4179 27.0792 40.5342 27.1377C40.6509 27.1936 40.7444 27.2763 40.8154 27.3856C40.8987 27.2788 41.0038 27.1962 41.1304 27.1377C41.2594 27.0792 41.4 27.05 41.5518 27.05ZM44.1251 27.05C44.3149 27.05 44.4868 27.0945 44.6414 27.1835C44.7982 27.2699 44.9209 27.3932 45.0095 27.5534C45.0981 27.7111 45.1424 27.8954 45.1424 28.1065C45.1424 28.3173 45.0981 28.5031 45.0095 28.6634C44.9209 28.8209 44.7982 28.9441 44.6414 29.0331C44.4868 29.1196 44.3149 29.1627 44.1251 29.1627C43.8643 29.1627 43.6593 29.0801 43.5099 28.9148V29.8722H42.9177V27.0805H43.4835V27.317C43.6302 27.139 43.8442 27.05 44.1251 27.05ZM44.0224 28.6747C44.1743 28.6747 44.2984 28.6238 44.3946 28.5221C44.4931 28.4179 44.5427 28.2792 44.5427 28.1065C44.5427 27.9335 44.4931 27.7962 44.3946 27.6945C44.2984 27.5903 44.1743 27.5382 44.0224 27.5382C43.8706 27.5382 43.7454 27.5903 43.6467 27.6945C43.5504 27.7962 43.5025 27.9335 43.5025 28.1065C43.5025 28.2792 43.5504 28.4179 43.6467 28.5221C43.7454 28.6238 43.8706 28.6747 44.0224 28.6747ZM46.3294 27.05C46.6457 27.05 46.8887 27.1263 47.0581 27.2788C47.2278 27.4288 47.3126 27.6564 47.3126 27.9615V29.1323H46.7583V28.8767C46.6468 29.0674 46.4394 29.1627 46.1357 29.1627C45.9789 29.1627 45.8422 29.1362 45.7258 29.0829C45.6119 29.0293 45.5245 28.9557 45.4637 28.8615C45.4031 28.7675 45.3726 28.6606 45.3726 28.5412C45.3726 28.3505 45.4436 28.2004 45.5853 28.0913C45.7294 27.9818 45.9509 27.9272 46.2496 27.9272H46.7203C46.7203 27.7975 46.6812 27.6983 46.6026 27.6297C46.5242 27.5585 46.4064 27.5229 46.2496 27.5229C46.1407 27.5229 46.0331 27.5407 45.9269 27.5763C45.8232 27.6094 45.7346 27.6551 45.6612 27.7136L45.4485 27.2979C45.5599 27.2191 45.6928 27.1581 45.8471 27.1148C46.0042 27.0716 46.1649 27.05 46.3294 27.05ZM46.2837 28.7623C46.385 28.7623 46.4749 28.7396 46.5533 28.6938C46.6317 28.6454 46.6876 28.5755 46.7203 28.484V28.2742H46.3143C46.0711 28.2742 45.9498 28.3544 45.9498 28.5144C45.9498 28.5907 45.9789 28.6518 46.037 28.6976C46.0978 28.7407 46.18 28.7623 46.2837 28.7623ZM49.09 27.05C49.343 27.05 49.5466 27.1263 49.7012 27.2788C49.858 27.4314 49.9364 27.6577 49.9364 27.9577V29.1323H49.3441V28.0493C49.3441 27.8865 49.3089 27.7657 49.238 27.6869C49.167 27.6055 49.0647 27.5649 48.9304 27.5649C48.781 27.5649 48.6622 27.6119 48.5736 27.706C48.485 27.7975 48.4407 27.9348 48.4407 28.1178V29.1323H47.8485V27.0805H48.4141V27.3208C48.4927 27.2343 48.5901 27.1682 48.7065 27.1225C48.8228 27.0741 48.9508 27.05 49.09 27.05ZM52.4634 27.0805L51.541 29.2581C51.4472 29.4947 51.3309 29.6613 51.1917 29.7578C51.055 29.8545 50.8894 29.9029 50.6943 29.9029C50.5881 29.9029 50.483 29.8863 50.3793 29.8531C50.2756 29.8202 50.1909 29.7743 50.1249 29.7158L50.3414 29.2926C50.387 29.3333 50.4387 29.365 50.4971 29.388C50.5579 29.4106 50.6173 29.4223 50.6753 29.4223C50.7565 29.4223 50.8222 29.4018 50.8728 29.3612C50.9235 29.323 50.9691 29.2581 51.0096 29.1666L51.017 29.1475L50.1326 27.0805H50.7438L51.3171 28.4727L51.894 27.0805H52.4634ZM54.9874 27.05C55.1772 27.05 55.3495 27.0945 55.5038 27.1835C55.6606 27.2699 55.7836 27.3932 55.8721 27.5534C55.9607 27.7111 56.005 27.8954 56.005 28.1065C56.005 28.3173 55.9607 28.5031 55.8721 28.6634C55.7836 28.8209 55.6606 28.9441 55.5038 29.0331C55.3495 29.1196 55.1772 29.1627 54.9874 29.1627C54.7066 29.1627 54.4928 29.0738 54.3459 28.8958V29.1323H53.7803V26.3025H54.3726V27.2979C54.5217 27.1326 54.7269 27.05 54.9874 27.05ZM54.8851 28.6747C55.037 28.6747 55.1607 28.6238 55.257 28.5221C55.3558 28.4179 55.405 28.2792 55.405 28.1065C55.405 27.9335 55.3558 27.7962 55.257 27.6945C55.1607 27.5903 55.037 27.5382 54.8851 27.5382C54.7332 27.5382 54.6078 27.5903 54.509 27.6945C54.413 27.7962 54.3649 27.9335 54.3649 28.1065C54.3649 28.2792 54.413 28.4179 54.509 28.5221C54.6078 28.6238 54.7332 28.6747 54.8851 28.6747ZM57.1918 27.05C57.5081 27.05 57.751 27.1263 57.9208 27.2788C58.0902 27.4288 58.175 27.6564 58.175 27.9615V29.1323H57.6206V28.8767C57.5095 29.0674 57.3018 29.1627 56.9981 29.1627C56.8413 29.1627 56.7046 29.1362 56.5882 29.0829C56.4743 29.0293 56.3868 28.9557 56.3263 28.8615C56.2655 28.7675 56.235 28.6606 56.235 28.5412C56.235 28.3505 56.306 28.2004 56.4476 28.0913C56.5921 27.9818 56.8135 27.9272 57.112 27.9272H57.5827C57.5827 27.7975 57.5436 27.6983 57.4652 27.6297C57.3865 27.5585 57.2691 27.5229 57.112 27.5229C57.0033 27.5229 56.8958 27.5407 56.7893 27.5763C56.6856 27.6094 56.597 27.6551 56.5236 27.7136L56.3109 27.2979C56.4223 27.2191 56.5552 27.1581 56.7095 27.1148C56.8666 27.0716 57.0273 27.05 57.1918 27.05ZM57.1461 28.7623C57.2473 28.7623 57.3373 28.7396 57.4157 28.6938C57.4941 28.6454 57.5499 28.5755 57.5827 28.484V28.2742H57.1766C56.9337 28.2742 56.8121 28.3544 56.8121 28.5144C56.8121 28.5907 56.8413 28.6518 56.8993 28.6976C56.9601 28.7407 57.0424 28.7623 57.1461 28.7623ZM59.398 29.1627C59.2286 29.1627 59.0627 29.1426 58.9009 29.1019C58.7389 29.0586 58.6099 29.0052 58.5136 28.9417L58.7111 28.5144C58.8022 28.573 58.9122 28.6214 59.0412 28.6595C59.1702 28.6951 59.2968 28.7128 59.4209 28.7128C59.6715 28.7128 59.7966 28.6506 59.7966 28.526C59.7966 28.4674 59.7625 28.4254 59.6943 28.4C59.6258 28.3746 59.521 28.353 59.379 28.3353C59.2121 28.3099 59.0742 28.2806 58.9653 28.2474C58.8566 28.2145 58.7617 28.156 58.6806 28.0722C58.6022 27.9882 58.5628 27.8687 58.5628 27.7136C58.5628 27.5839 58.5997 27.4695 58.6732 27.3704C58.7491 27.2687 58.8577 27.1898 58.9994 27.1339C59.1438 27.078 59.3133 27.05 59.5083 27.05C59.6525 27.05 59.7955 27.0665 59.9372 27.0996C60.0814 27.1301 60.2005 27.1733 60.294 27.2292L60.0968 27.6526C59.9169 27.5509 59.7207 27.5 59.5083 27.5C59.3818 27.5 59.2869 27.5178 59.2236 27.5534C59.1603 27.589 59.1287 27.6348 59.1287 27.6907C59.1287 27.7543 59.1628 27.7988 59.231 27.8242C59.2995 27.8496 59.4082 27.8738 59.5576 27.8967C59.7246 27.9246 59.8613 27.9551 59.9675 27.9882C60.0739 28.0186 60.1664 28.0758 60.2448 28.1598C60.3232 28.2438 60.3625 28.3607 60.3625 28.5108C60.3625 28.6379 60.3245 28.751 60.2486 28.8502C60.1727 28.9494 60.0613 29.0268 59.9144 29.0829C59.7702 29.1362 59.598 29.1627 59.398 29.1627ZM62.7283 28.1139C62.7283 28.1217 62.7247 28.175 62.717 28.2742H61.1718C61.1999 28.4014 61.2656 28.5017 61.3694 28.5755C61.4731 28.6493 61.6021 28.686 61.7567 28.686C61.8629 28.686 61.9564 28.6708 62.0376 28.6404C62.1209 28.6073 62.1982 28.5564 62.2692 28.4879L62.5842 28.8311C62.3919 29.0522 62.111 29.1627 61.7413 29.1627C61.511 29.1627 61.3075 29.1183 61.1303 29.0293C60.9531 28.9378 60.8164 28.812 60.7201 28.6517C60.6241 28.4917 60.576 28.3099 60.576 28.1065C60.576 27.9056 60.6227 27.725 60.7163 27.5649C60.8126 27.4021 60.943 27.2763 61.1075 27.1873C61.2744 27.0958 61.4604 27.05 61.6654 27.05C61.8654 27.05 62.0464 27.0932 62.2084 27.1797C62.3704 27.2661 62.497 27.3907 62.588 27.5534C62.6816 27.7136 62.7283 27.9005 62.7283 28.1139ZM61.6692 27.5C61.5352 27.5 61.4224 27.5382 61.3314 27.6144C61.2403 27.6907 61.1845 27.795 61.1644 27.9272H62.1704C62.1501 27.7975 62.0945 27.6945 62.0034 27.6183C61.9121 27.5394 61.801 27.5 61.6692 27.5ZM65.2031 26.3025V29.1323H64.6375V28.8958C64.4906 29.0738 64.2782 29.1627 63.9998 29.1627C63.8072 29.1627 63.6328 29.1196 63.4757 29.0331C63.3214 28.9466 63.1998 28.8234 63.1113 28.6634C63.0227 28.5031 62.9784 28.3173 62.9784 28.1065C62.9784 27.8954 63.0227 27.7098 63.1113 27.5496C63.1998 27.3894 63.3214 27.2661 63.4757 27.1797C63.6328 27.0932 63.8072 27.05 63.9998 27.05C64.2603 27.05 64.4642 27.1326 64.6108 27.2979V26.3025H65.2031ZM64.1021 28.6747C64.2515 28.6747 64.3756 28.6238 64.4743 28.5221C64.5728 28.4179 64.6223 28.2792 64.6223 28.1065C64.6223 27.9335 64.5728 27.7962 64.4743 27.6945C64.3756 27.5903 64.2515 27.5382 64.1021 27.5382C63.9503 27.5382 63.8251 27.5903 63.7264 27.6945C63.6276 27.7962 63.5784 27.9335 63.5784 28.1065C63.5784 28.2792 63.6276 28.4179 63.7264 28.5221C63.8251 28.6238 63.9503 28.6747 64.1021 28.6747ZM67.7983 29.1627C67.5832 29.1627 67.3895 29.1183 67.2173 29.0293C67.0479 28.9378 66.915 28.812 66.8187 28.6517C66.7227 28.4917 66.6745 28.3099 66.6745 28.1065C66.6745 27.903 66.7227 27.7212 66.8187 27.561C66.915 27.4009 67.0479 27.2763 67.2173 27.1873C67.3895 27.0958 67.5832 27.05 67.7983 27.05C68.0134 27.05 68.2057 27.0958 68.3752 27.1873C68.5449 27.2763 68.6778 27.4009 68.7738 27.561C68.8701 27.7212 68.9182 27.903 68.9182 28.1065C68.9182 28.3099 68.8701 28.4917 68.7738 28.6517C68.6778 28.812 68.5449 28.9378 68.3752 29.0293C68.2057 29.1183 68.0134 29.1627 67.7983 29.1627ZM67.7983 28.6747C67.9502 28.6747 68.074 28.6238 68.1702 28.5221C68.269 28.4179 68.3182 28.2792 68.3182 28.1065C68.3182 27.9335 68.269 27.7962 68.1702 27.6945C68.074 27.5903 67.9502 27.5382 67.7983 27.5382C67.6465 27.5382 67.521 27.5903 67.4223 27.6945C67.3238 27.7962 67.2743 27.9335 67.2743 28.1065C67.2743 28.2792 67.3238 28.4179 67.4223 28.5221C67.521 28.6238 67.6465 28.6747 67.7983 28.6747ZM70.5553 27.05C70.8084 27.05 71.0122 27.1263 71.1666 27.2788C71.3234 27.4314 71.4021 27.6577 71.4021 27.9577V29.1323H70.8098V28.0493C70.8098 27.8865 70.7743 27.7657 70.7033 27.6869C70.6326 27.6055 70.53 27.5649 70.396 27.5649C70.2467 27.5649 70.1275 27.6119 70.039 27.706C69.9504 27.7975 69.9061 27.9348 69.9061 28.1178V29.1323H69.3141V27.0805H69.8797V27.3208C69.9581 27.2343 70.0555 27.1682 70.1718 27.1225C70.2885 27.0741 70.4161 27.05 70.5553 27.05ZM75.6294 27.05C75.8853 27.05 76.0877 27.1263 76.2368 27.2788C76.3887 27.4288 76.4646 27.6551 76.4646 27.9577V29.1323H75.8726V28.0493C75.8726 27.8865 75.8382 27.7657 75.77 27.6869C75.7043 27.6055 75.6093 27.5649 75.4853 27.5649C75.3461 27.5649 75.236 27.6106 75.1549 27.7022C75.074 27.7911 75.0336 27.9246 75.0336 28.1026V29.1323H74.4413V28.0493C74.4413 27.7263 74.3123 27.5649 74.054 27.5649C73.9175 27.5649 73.8086 27.6106 73.7277 27.7022C73.6465 27.7911 73.6061 27.9246 73.6061 28.1026V29.1323H73.0138V27.0805H73.5794V27.317C73.6553 27.2305 73.7478 27.1644 73.8567 27.1186C73.9681 27.0729 74.0895 27.05 74.2212 27.05C74.3654 27.05 74.4958 27.0792 74.6121 27.1377C74.7285 27.1936 74.8223 27.2763 74.893 27.3856C74.9766 27.2788 75.0817 27.1962 75.2083 27.1377C75.3373 27.0792 75.4776 27.05 75.6294 27.05ZM77.9897 29.1627C77.7746 29.1627 77.5809 29.1183 77.4087 29.0293C77.2393 28.9378 77.1064 28.812 77.0101 28.6517C76.9141 28.4917 76.866 28.3099 76.866 28.1065C76.866 27.903 76.9141 27.7212 77.0101 27.561C77.1064 27.4009 77.2393 27.2763 77.4087 27.1873C77.5809 27.0958 77.7746 27.05 77.9897 27.05C78.2049 27.05 78.3972 27.0958 78.5666 27.1873C78.7363 27.2763 78.8692 27.4009 78.9652 27.561C79.0615 27.7212 79.1096 27.903 79.1096 28.1065C79.1096 28.3099 79.0615 28.4917 78.9652 28.6517C78.8692 28.812 78.7363 28.9378 78.5666 29.0293C78.3972 29.1183 78.2049 29.1627 77.9897 29.1627ZM77.9897 28.6747C78.1416 28.6747 78.2654 28.6238 78.3617 28.5221C78.4604 28.4179 78.5097 28.2792 78.5097 28.1065C78.5097 27.9335 78.4604 27.7962 78.3617 27.6945C78.2654 27.5903 78.1416 27.5382 77.9897 27.5382C77.8379 27.5382 77.7124 27.5903 77.6137 27.6945C77.5152 27.7962 77.4657 27.9335 77.4657 28.1065C77.4657 28.2792 77.5152 28.4179 77.6137 28.5221C77.7124 28.6238 77.8379 28.6747 77.9897 28.6747ZM81.5858 26.3025V29.1323H81.0202V28.8958C80.8733 29.0738 80.6606 29.1627 80.3822 29.1627C80.1899 29.1627 80.0153 29.1196 79.8585 29.0331C79.7041 28.9466 79.5825 28.8234 79.494 28.6634C79.4054 28.5031 79.3611 28.3173 79.3611 28.1065C79.3611 27.8954 79.4054 27.7098 79.494 27.5496C79.5825 27.3894 79.7041 27.2661 79.8585 27.1797C80.0153 27.0932 80.1899 27.05 80.3822 27.05C80.643 27.05 80.8469 27.1326 80.9935 27.2979V26.3025H81.5858ZM80.4848 28.6747C80.6342 28.6747 80.7583 28.6238 80.8568 28.5221C80.9555 28.4179 81.005 28.2792 81.005 28.1065C81.005 27.9335 80.9555 27.7962 80.8568 27.6945C80.7583 27.5903 80.6342 27.5382 80.4848 27.5382C80.333 27.5382 80.2078 27.5903 80.1091 27.6945C80.0103 27.7962 79.9611 27.9335 79.9611 28.1065C79.9611 28.2792 80.0103 28.4179 80.1091 28.5221C80.2078 28.6238 80.333 28.6747 80.4848 28.6747ZM84.1345 28.1139C84.1345 28.1217 84.1307 28.175 84.1232 28.2742H82.578C82.6058 28.4014 82.6718 28.5017 82.7756 28.5755C82.8793 28.6493 83.0083 28.686 83.1626 28.686C83.2691 28.686 83.3626 28.6708 83.4438 28.6404C83.5271 28.6073 83.6044 28.5564 83.6751 28.4879L83.9904 28.8311C83.7981 29.0522 83.5169 29.1627 83.1475 29.1627C82.9172 29.1627 82.7134 29.1183 82.5362 29.0293C82.3591 28.9378 82.2226 28.812 82.1263 28.6517C82.03 28.4917 81.9822 28.3099 81.9822 28.1065C81.9822 27.9056 82.0289 27.725 82.1225 27.5649C82.2188 27.4021 82.3492 27.2763 82.5137 27.1873C82.6806 27.0958 82.8666 27.05 83.0716 27.05C83.2716 27.05 83.4526 27.0932 83.6146 27.1797C83.7764 27.2661 83.9029 27.3907 83.9942 27.5534C84.0878 27.7136 84.1345 27.9005 84.1345 28.1139ZM83.0754 27.5C82.9412 27.5 82.8287 27.5382 82.7376 27.6144C82.6465 27.6907 82.5907 27.795 82.5706 27.9272H83.5766C83.5563 27.7975 83.5007 27.6945 83.4094 27.6183C83.3183 27.5394 83.2069 27.5 83.0754 27.5ZM85.0946 27.3513C85.1653 27.2521 85.2602 27.1771 85.3793 27.1263C85.5006 27.0754 85.6398 27.05 85.7969 27.05V27.5992C85.7309 27.5941 85.6866 27.5916 85.664 27.5916C85.4943 27.5916 85.3614 27.6399 85.2654 27.7365C85.1692 27.8306 85.121 27.9729 85.121 28.1637V29.1323H84.5287V27.0805H85.0946V27.3513ZM87.3903 27.05C87.6434 27.05 87.8472 27.1263 88.0015 27.2788C88.1583 27.4314 88.237 27.6577 88.237 27.9577V29.1323H87.6447V28.0493C87.6447 27.8865 87.6092 27.7657 87.5383 27.6869C87.4676 27.6055 87.365 27.5649 87.231 27.5649C87.0816 27.5649 86.9625 27.6119 86.8739 27.706C86.7853 27.7975 86.741 27.9348 86.741 28.1178V29.1323H86.149V27.0805H86.7146V27.3208C86.793 27.2343 86.8904 27.1682 87.0068 27.1225C87.1234 27.0741 87.2511 27.05 87.3903 27.05ZM91.1662 29.0331C91.1079 29.0765 91.0358 29.1094 90.9497 29.1323C90.8664 29.1528 90.7778 29.1627 90.684 29.1627C90.4411 29.1627 90.2526 29.1006 90.1184 28.9759C89.9869 28.8513 89.9209 28.6683 89.9209 28.4268V27.5839H89.6059V27.1263H89.9209V26.6267H90.5131V27.1263H91.0218V27.5839H90.5131V28.4191C90.5131 28.5056 90.5346 28.573 90.5778 28.6214C90.6232 28.667 90.6864 28.6899 90.7676 28.6899C90.8611 28.6899 90.9409 28.6645 91.0067 28.6136L91.1662 29.0331ZM93.4363 28.1139C93.4363 28.1217 93.4324 28.175 93.4247 28.2742H91.8798C91.9076 28.4014 91.9733 28.5017 92.0771 28.5755C92.181 28.6493 92.3101 28.686 92.4644 28.686C92.5706 28.686 92.6644 28.6708 92.7453 28.6404C92.8289 28.6073 92.9059 28.5564 92.9769 28.4879L93.2919 28.8311C93.0996 29.0522 92.8187 29.1627 92.4492 29.1627C92.219 29.1627 92.0152 29.1183 91.838 29.0293C91.6608 28.9378 91.5241 28.812 91.4281 28.6517C91.3318 28.4917 91.2837 28.3099 91.2837 28.1065C91.2837 27.9056 91.3304 27.725 91.4242 27.5649C91.5203 27.4021 91.6507 27.2763 91.8152 27.1873C91.9821 27.0958 92.1684 27.05 92.3733 27.05C92.5733 27.05 92.7541 27.0932 92.9161 27.1797C93.0781 27.2661 93.2047 27.3907 93.2957 27.5534C93.3895 27.7136 93.4363 27.9005 93.4363 28.1139ZM92.3772 27.5C92.2429 27.5 92.1304 27.5382 92.0391 27.6144C91.948 27.6907 91.8925 27.795 91.8721 27.9272H92.8781C92.858 27.7975 92.8022 27.6945 92.7111 27.6183C92.6201 27.5394 92.5087 27.5 92.3772 27.5ZM94.8175 29.1627C94.5999 29.1627 94.4038 29.1183 94.2291 29.0293C94.0572 28.9378 93.9216 28.812 93.8231 28.6517C93.7268 28.4917 93.6787 28.3099 93.6787 28.1065C93.6787 27.903 93.7268 27.7212 93.8231 27.561C93.9216 27.4009 94.0572 27.2763 94.2291 27.1873C94.4038 27.0958 94.5999 27.05 94.8175 27.05C95.0327 27.05 95.22 27.0958 95.3796 27.1873C95.5413 27.2763 95.6591 27.4047 95.7325 27.5725L95.2731 27.8204C95.1669 27.6322 95.0137 27.5382 94.8137 27.5382C94.6594 27.5382 94.5317 27.589 94.4305 27.6907C94.3292 27.7924 94.2786 27.931 94.2786 28.1065C94.2786 28.282 94.3292 28.4204 94.4305 28.5221C94.5317 28.6238 94.6594 28.6747 94.8137 28.6747C95.0162 28.6747 95.1694 28.5807 95.2731 28.3925L95.7325 28.6443C95.6591 28.8068 95.5413 28.9339 95.3796 29.0257C95.22 29.1171 95.0327 29.1627 94.8175 29.1627ZM97.3 27.05C97.5531 27.05 97.7569 27.1263 97.9113 27.2788C98.0681 27.4314 98.1467 27.6577 98.1467 27.9577V29.1323H97.5545V28.0493C97.5545 27.8865 97.519 27.7657 97.448 27.6869C97.3773 27.6055 97.2747 27.5649 97.1407 27.5649C96.9913 27.5649 96.8722 27.6119 96.7836 27.706C96.6951 27.7975 96.6508 27.9348 96.6508 28.1178V29.1323H96.0588V26.3025H96.6508V27.2941C96.7295 27.2153 96.8244 27.1555 96.9355 27.1148C97.0469 27.0716 97.1685 27.05 97.3 27.05ZM99.9249 27.05C100.178 27.05 100.382 27.1263 100.536 27.2788C100.693 27.4314 100.771 27.6577 100.771 27.9577V29.1323H100.179V28.0493C100.179 27.8865 100.144 27.7657 100.073 27.6869C100.002 27.6055 99.8996 27.5649 99.7654 27.5649C99.616 27.5649 99.4972 27.6119 99.4086 27.706C99.32 27.7975 99.2757 27.9348 99.2757 28.1178V29.1323H98.6834V27.0805H99.249V27.3208C99.3274 27.2343 99.4251 27.1682 99.5415 27.1225C99.6578 27.0741 99.7857 27.05 99.9249 27.05ZM102.302 29.1627C102.087 29.1627 101.894 29.1183 101.722 29.0293C101.552 28.9378 101.419 28.812 101.323 28.6517C101.227 28.4917 101.179 28.3099 101.179 28.1065C101.179 27.903 101.227 27.7212 101.323 27.561C101.419 27.4009 101.552 27.2763 101.722 27.1873C101.894 27.0958 102.087 27.05 102.302 27.05C102.517 27.05 102.71 27.0958 102.879 27.1873C103.049 27.2763 103.182 27.4009 103.278 27.561C103.374 27.7212 103.422 27.903 103.422 28.1065C103.422 28.3099 103.374 28.4917 103.278 28.6517C103.182 28.812 103.049 28.9378 102.879 29.0293C102.71 29.1183 102.517 29.1627 102.302 29.1627ZM102.302 28.6747C102.454 28.6747 102.578 28.6238 102.674 28.5221C102.773 28.4179 102.823 28.2792 102.823 28.1065C102.823 27.9335 102.773 27.7962 102.674 27.6945C102.578 27.5903 102.454 27.5382 102.302 27.5382C102.15 27.5382 102.025 27.5903 101.927 27.6945C101.828 27.7962 101.779 27.9335 101.779 28.1065C101.779 28.2792 101.828 28.4179 101.927 28.5221C102.025 28.6238 102.15 28.6747 102.302 28.6747ZM103.818 26.3025H104.41V29.1323H103.818V26.3025ZM105.932 29.1627C105.717 29.1627 105.523 29.1183 105.351 29.0293C105.181 28.9378 105.049 28.812 104.952 28.6517C104.856 28.4917 104.808 28.3099 104.808 28.1065C104.808 27.903 104.856 27.7212 104.952 27.561C105.049 27.4009 105.181 27.2763 105.351 27.1873C105.523 27.0958 105.717 27.05 105.932 27.05C106.147 27.05 106.339 27.0958 106.509 27.1873C106.679 27.2763 106.811 27.4009 106.907 27.561C107.004 27.7212 107.052 27.903 107.052 28.1065C107.052 28.3099 107.004 28.4917 106.907 28.6517C106.811 28.812 106.679 28.9378 106.509 29.0293C106.339 29.1183 106.147 29.1627 105.932 29.1627ZM105.932 28.6747C106.084 28.6747 106.208 28.6238 106.304 28.5221C106.403 28.4179 106.452 28.2792 106.452 28.1065C106.452 27.9335 106.403 27.7962 106.304 27.6945C106.208 27.5903 106.084 27.5382 105.932 27.5382C105.78 27.5382 105.655 27.5903 105.556 27.6945C105.457 27.7962 105.408 27.9335 105.408 28.1065C105.408 28.2792 105.457 28.4179 105.556 28.5221C105.655 28.6238 105.78 28.6747 105.932 28.6747ZM109.555 27.0805V28.7891C109.555 29.1655 109.457 29.4452 109.262 29.6281C109.067 29.8111 108.783 29.9029 108.408 29.9029C108.211 29.9029 108.023 29.8785 107.846 29.8302C107.669 29.7821 107.522 29.7122 107.406 29.6204L107.641 29.1934C107.727 29.2644 107.836 29.3206 107.968 29.3612C108.099 29.4043 108.231 29.4261 108.362 29.4261C108.568 29.4261 108.718 29.3789 108.814 29.2849C108.913 29.1934 108.962 29.0536 108.962 28.8654V28.7778C108.808 28.948 108.593 29.0331 108.317 29.0331C108.13 29.0331 107.957 28.9925 107.801 28.9113C107.646 28.8272 107.524 28.7103 107.432 28.5603C107.341 28.4102 107.296 28.2375 107.296 28.0415C107.296 27.8458 107.341 27.6729 107.432 27.5229C107.524 27.3729 107.646 27.2572 107.801 27.1759C107.957 27.0919 108.13 27.05 108.317 27.05C108.613 27.05 108.838 27.1479 108.993 27.3437V27.0805H109.555ZM108.435 28.5451C108.592 28.5451 108.719 28.4992 108.818 28.4077C108.919 28.3138 108.97 28.1916 108.97 28.0415C108.97 27.8916 108.919 27.7708 108.818 27.6793C108.719 27.5852 108.592 27.5382 108.435 27.5382C108.278 27.5382 108.149 27.5852 108.047 27.6793C107.946 27.7708 107.896 27.8916 107.896 28.0415C107.896 28.1916 107.946 28.3138 108.047 28.4077C108.149 28.4992 108.278 28.5451 108.435 28.5451ZM110.106 27.0805H110.698V29.1323H110.106V27.0805ZM110.402 26.7945C110.293 26.7945 110.204 26.7627 110.136 26.6991C110.068 26.6356 110.034 26.5567 110.034 26.4627C110.034 26.3686 110.068 26.2898 110.136 26.2262C110.204 26.1626 110.293 26.1309 110.402 26.1309C110.511 26.1309 110.599 26.1614 110.668 26.2224C110.736 26.2834 110.77 26.3597 110.77 26.4512C110.77 26.5504 110.736 26.633 110.668 26.6991C110.599 26.7627 110.511 26.7945 110.402 26.7945ZM113.248 28.1139C113.248 28.1217 113.244 28.175 113.237 28.2742H111.692C111.72 28.4014 111.785 28.5017 111.889 28.5755C111.993 28.6493 112.122 28.686 112.276 28.686C112.383 28.686 112.476 28.6708 112.557 28.6404C112.641 28.6073 112.718 28.5564 112.789 28.4879L113.104 28.8311C112.912 29.0522 112.631 29.1627 112.261 29.1627C112.031 29.1627 111.827 29.1183 111.65 29.0293C111.473 28.9378 111.336 28.812 111.24 28.6517C111.144 28.4917 111.096 28.3099 111.096 28.1065C111.096 27.9056 111.142 27.725 111.236 27.5649C111.332 27.4021 111.463 27.2763 111.627 27.1873C111.794 27.0958 111.98 27.05 112.185 27.05C112.385 27.05 112.566 27.0932 112.728 27.1797C112.89 27.2661 113.017 27.3907 113.108 27.5534C113.201 27.7136 113.248 27.9005 113.248 28.1139ZM112.189 27.5C112.055 27.5 111.942 27.5382 111.851 27.6144C111.76 27.6907 111.704 27.795 111.684 27.9272H112.69C112.67 27.7975 112.614 27.6945 112.523 27.6183C112.432 27.5394 112.321 27.5 112.189 27.5ZM114.33 29.1627C114.16 29.1627 113.994 29.1426 113.832 29.1019C113.67 29.0586 113.541 29.0052 113.445 28.9417L113.643 28.5144C113.734 28.573 113.844 28.6214 113.973 28.6595C114.102 28.6951 114.228 28.7128 114.352 28.7128C114.603 28.7128 114.728 28.6506 114.728 28.526C114.728 28.4674 114.694 28.4254 114.626 28.4C114.557 28.3746 114.452 28.353 114.311 28.3353C114.143 28.3099 114.006 28.2806 113.897 28.2474C113.788 28.2145 113.693 28.156 113.612 28.0722C113.534 27.9882 113.495 27.8687 113.495 27.7136C113.495 27.5839 113.531 27.4695 113.605 27.3704C113.681 27.2687 113.789 27.1898 113.931 27.1339C114.075 27.078 114.245 27.05 114.44 27.05C114.584 27.05 114.727 27.0665 114.869 27.0996C115.013 27.1301 115.132 27.1733 115.225 27.2292L115.028 27.6526C114.849 27.5509 114.652 27.5 114.44 27.5C114.313 27.5 114.218 27.5178 114.155 27.5534C114.092 27.589 114.06 27.6348 114.06 27.6907C114.06 27.7543 114.094 27.7988 114.162 27.8242C114.231 27.8496 114.34 27.8738 114.489 27.8967C114.656 27.9246 114.793 27.9551 114.899 27.9882C115.005 28.0186 115.098 28.0758 115.176 28.1598C115.255 28.2438 115.294 28.3607 115.294 28.5108C115.294 28.6379 115.256 28.751 115.18 28.8502C115.104 28.9494 114.993 29.0268 114.846 29.0829C114.702 29.1362 114.529 29.1627 114.33 29.1627Z" fill="#00B2E8"/>
</g>
<defs>
<clipPath id="clip0_214_1365">
<rect width="115.842" height="29.5437" fill="white" transform="translate(0.157715 0.362305)"/>
</clipPath>
</defs>
</svg>
