<svg width="50" height="50" viewBox="0 0 50 50" fill="none" xmlns="http://www.w3.org/2000/svg">
<g clip-path="url(#clip0_214_1057)">
<path d="M42.9688 39.9822V41.7397C42.9688 42.1555 42.8032 42.5549 42.5064 42.8456C41.4227 43.9091 40.2428 44.8742 38.9805 45.7272C38.7398 45.8901 38.4258 45.8988 38.1794 45.7455C34.3529 43.3666 29.837 41.9922 25 41.9922C20.2072 41.9922 15.7299 43.3418 11.9259 45.6806C11.6142 45.8721 11.2186 45.8637 10.9165 45.657C9.68285 44.8147 8.52928 43.8641 7.46803 42.82C7.06635 42.4248 6.83594 41.8877 6.83594 41.3239V39.7701C6.83594 37.7613 5.20744 36.1328 3.19862 36.1328C2.83508 36.1328 2.50435 35.923 2.34985 35.5942C0.842667 32.3776 0 28.7872 0 25C0 11.2026 11.1774 0.0156565 24.9714 1.62541e-05C38.7745 -0.015624 50.0332 11.2579 50 25.0614C49.9908 28.8326 49.1463 32.407 47.6421 35.6102C47.4922 35.9295 47.1706 36.1328 46.8182 36.1328C44.6922 36.1328 42.9688 37.8563 42.9688 39.9822Z" fill="#FDED32"/>
<path d="M28.9062 26.3672C28.9062 28.5244 27.1572 30.2734 25 30.2734C22.8428 30.2734 21.0938 28.5244 21.0938 26.3672C21.0938 24.21 22.8428 22.4609 25 22.4609C27.1572 22.4609 28.9062 24.21 28.9062 26.3672Z" fill="#0995A3"/>
<path d="M34.1797 1.95312C34.1797 3.03192 33.3054 3.90625 32.2266 3.90625C31.583 3.90625 31.0139 3.59344 30.658 3.11356C27.6424 3.82462 25.3906 6.5361 25.3906 9.76562H23.4375C23.4375 5.53017 26.4492 1.98479 30.4436 1.15852C30.748 0.476456 31.4312 0 32.2266 0C33.3054 0 34.1797 0.874329 34.1797 1.95312Z" fill="#013F69"/>
<path d="M32.5195 0.488281C33.0589 0.488281 33.4961 0.925445 33.4961 1.46484C33.4961 2.00424 33.0589 2.44141 32.5195 2.44141C31.9801 2.44141 31.543 2.00424 31.543 1.46484C31.543 0.925445 31.9801 0.488281 32.5195 0.488281Z" fill="#015081"/>
<path d="M34.1795 26.8877H15.6248C10.2316 26.8877 5.85921 22.5157 5.85921 17.1221V16.1455C5.85921 10.7523 10.2316 6.37988 15.6248 6.37988H34.1795C39.5727 6.37988 43.9451 10.7523 43.9451 16.1455V17.1221C43.9451 22.5157 39.5727 26.8877 34.1795 26.8877ZM47.6549 35.5806C46.3782 38.3097 44.6234 40.7694 42.4978 42.853L39.1882 39.5437C39.1535 39.509 39.1203 39.4731 39.0871 39.4377V43.9451C39.0871 44.5692 39.028 45.1792 38.9162 45.7704C34.9383 48.4411 30.1512 49.9998 24.9998 49.9998C19.7638 49.9998 14.9046 48.3892 10.8885 45.6377C10.7924 45.0876 10.742 44.5223 10.742 43.9451V39.6131L7.50182 42.853C5.37627 40.7694 3.62151 38.3097 2.34473 35.5806L4.59654 33.3288C5.47659 32.4491 6.67174 32.0776 7.81844 32.213C7.92944 30.155 9.63309 28.5204 11.7186 28.5204C13.3013 28.5204 14.6628 29.4619 15.2766 30.8149C16.7891 29.8536 18.5831 29.2967 20.5076 29.2967H29.3219C31.5779 29.2967 33.655 30.0623 35.3083 31.3471C35.7771 29.7148 37.2797 28.5204 39.0623 28.5204C41.1432 28.5204 42.8435 30.1474 42.9613 32.1989C43.8517 32.2718 44.7218 32.6475 45.4031 33.3288L47.6549 35.5806Z" fill="#0CABB9"/>
<path d="M19.4334 26.8877C14.0398 26.8877 9.66782 22.5157 9.66782 17.1221V16.1455C9.66782 10.7523 14.0398 6.37988 19.4334 6.37988H34.1795C39.5731 6.37988 43.9452 10.7523 43.9452 16.1455V17.1221C43.9452 22.5157 39.5731 26.8877 34.1795 26.8877H19.4334ZM11.7186 36.3329C10.2847 36.3329 9.03153 35.5593 8.35213 34.4076C7.73567 34.5838 7.15393 34.9146 6.66832 35.4006L3.80615 38.2627C4.85596 39.9362 6.09802 41.4766 7.50183 42.853L10.8115 39.5437C11.69 38.6652 12.0623 37.4723 11.9288 36.3268C11.859 36.3306 11.7892 36.3329 11.7186 36.3329ZM45.4031 33.3288C44.7218 32.6475 43.8517 32.271 42.9614 32.1981C42.9659 32.2737 42.9686 32.3496 42.9686 32.4266C42.9686 34.1238 41.8856 35.568 40.3731 36.1067C40.5631 36.6045 40.8587 37.071 41.26 37.472L44.4689 40.6813C45.7251 39.1237 46.7978 37.4128 47.655 35.5806L45.4031 33.3288ZM35.1561 32.4266C35.1561 32.0352 35.2145 31.6576 35.3213 31.3013C33.6779 30.044 31.6233 29.2967 29.3944 29.2967H24.4139C19.0203 29.2967 14.6483 33.6687 14.6483 39.0623V43.9451C14.6483 45.4603 14.9935 46.8946 15.6092 48.1741C18.5088 49.3505 21.678 49.9998 24.9998 49.9998C30.1871 49.9998 35.0054 48.4198 38.9994 45.7151C39.1047 45.141 39.16 44.5494 39.16 43.9451V39.0623C39.16 38.1105 39.0231 37.1904 38.7694 36.3207C36.7491 36.1708 35.1561 34.485 35.1561 32.4266Z" fill="#2ABBC7"/>
<path d="M33.3984 19.0752H16.6016C14.1747 19.0752 12.207 17.108 12.207 14.6807C12.207 12.2538 14.1747 10.2861 16.6016 10.2861H33.3984C35.8253 10.2861 37.793 12.2538 37.793 14.6807C37.793 17.108 35.8253 19.0752 33.3984 19.0752Z" fill="#013F69"/>
<path d="M33.3984 19.0752H19.043C16.6161 19.0752 14.6484 17.108 14.6484 14.6807C14.6484 12.2538 16.6161 10.2861 19.043 10.2861H33.3984C35.8253 10.2861 37.793 12.2538 37.793 14.6807C37.793 17.108 35.8253 19.0752 33.3984 19.0752Z" fill="#015081"/>
<path d="M19.043 12.2393C17.6945 12.2393 16.6016 13.3326 16.6016 14.6807C16.6016 16.0292 17.6945 17.1221 19.043 17.1221C20.3915 17.1221 21.4844 16.0292 21.4844 14.6807C21.4844 13.3326 20.3915 12.2393 19.043 12.2393ZM19.043 15.6572C18.5036 15.6572 18.0664 15.2201 18.0664 14.6807C18.0664 14.1413 18.5036 13.7041 19.043 13.7041C19.5824 13.7041 20.0195 14.1413 20.0195 14.6807C20.0195 15.2201 19.5824 15.6572 19.043 15.6572ZM30.7617 12.2393C29.4132 12.2393 28.3203 13.3326 28.3203 14.6807C28.3203 16.0292 29.4132 17.1221 30.7617 17.1221C32.1102 17.1221 33.2031 16.0292 33.2031 14.6807C33.2031 13.3326 32.1102 12.2393 30.7617 12.2393ZM30.7617 15.6572C30.2223 15.6572 29.7852 15.2201 29.7852 14.6807C29.7852 14.1413 30.2223 13.7041 30.7617 13.7041C31.3011 13.7041 31.7383 14.1413 31.7383 14.6807C31.7383 15.2201 31.3011 15.6572 30.7617 15.6572Z" fill="#84DEEA"/>
<path d="M13.6719 32.4268C13.6719 33.5052 12.7975 34.3799 11.7188 34.3799C10.64 34.3799 9.76562 33.5052 9.76562 32.4268C9.76562 31.348 10.64 30.4736 11.7188 30.4736C12.7975 30.4736 13.6719 31.348 13.6719 32.4268ZM39.0625 30.4736C37.9837 30.4736 37.1094 31.348 37.1094 32.4268C37.1094 33.5052 37.9837 34.3799 39.0625 34.3799C40.1413 34.3799 41.0156 33.5052 41.0156 32.4268C41.0156 31.348 40.1413 30.4736 39.0625 30.4736Z" fill="#84DEEA"/>
<path d="M13.6716 32.4268C13.6716 33.2462 13.1666 33.9466 12.4509 34.2365C12.0985 34.0934 11.7975 33.8504 11.5823 33.543C11.5087 33.4373 11.5861 33.2969 11.7155 33.2973H11.7185C12.2259 33.2973 12.6321 32.8632 12.586 32.3463C12.5532 31.9824 12.2858 31.6711 11.9314 31.5822C11.857 31.5635 11.7841 31.5555 11.7132 31.5559C11.585 31.5566 11.5091 31.4155 11.5823 31.3106C11.7975 31.0027 12.0985 30.7598 12.4513 30.6167C13.1666 30.9066 13.6716 31.607 13.6716 32.4268ZM39.7947 30.6167C39.4418 30.7598 39.1408 31.0027 38.9261 31.3106C38.8525 31.4155 38.9287 31.5566 39.0565 31.5559C39.1275 31.5555 39.2007 31.5639 39.2751 31.5822C39.6295 31.6711 39.8969 31.9824 39.9293 32.3463C39.9759 32.8632 39.5696 33.2973 39.0623 33.2973C39.0611 33.2973 39.06 33.2973 39.0588 33.2973C38.9299 33.2969 38.8521 33.4373 38.9261 33.543C39.1408 33.8508 39.4418 34.0938 39.7947 34.2365C40.5099 33.9466 41.0154 33.2462 41.0154 32.4268C41.0154 31.6074 40.5103 30.9066 39.7947 30.6167Z" fill="#D3F1F5"/>
<path d="M32.2266 32.2266C32.766 32.2266 33.2031 32.6637 33.2031 33.2031C33.2031 33.7425 32.766 34.1797 32.2266 34.1797C31.6872 34.1797 31.25 33.7425 31.25 33.2031C31.25 32.6637 31.6872 32.2266 32.2266 32.2266ZM28.3203 33.2031C28.3203 33.7425 28.7575 34.1797 29.2969 34.1797C29.8363 34.1797 30.2734 33.7425 30.2734 33.2031C30.2734 32.6637 29.8363 32.2266 29.2969 32.2266C28.7575 32.2266 28.3203 32.6637 28.3203 33.2031Z" fill="#0995A3"/>
<path d="M26.3672 32.2266C26.9066 32.2266 27.3438 32.6637 27.3438 33.2031C27.3438 33.7425 26.9066 34.1797 26.3672 34.1797C25.8278 34.1797 25.3906 33.7425 25.3906 33.2031C25.3906 32.6637 25.8278 32.2266 26.3672 32.2266Z" fill="#84DEEA"/>
</g>
<defs>
<clipPath id="clip0_214_1057">
<rect width="50" height="50" fill="white"/>
</clipPath>
</defs>
</svg>
