<svg width="60" height="60" viewBox="0 0 60 60" fill="none" xmlns="http://www.w3.org/2000/svg">
<g clip-path="url(#clip0_214_1048)">
<path d="M14.8747 45.2076C14.8746 45.2075 14.8744 45.2075 14.8743 45.2074C16.1273 46.4603 16.1273 48.499 14.8744 49.7519C14.6893 49.937 14.4823 50.0992 14.2591 50.234C14.1239 50.3185 13.9644 50.3879 13.8144 50.4613L4.59382 55.4044C4.68511 55.2268 9.56363 46.3965 9.65761 46.1924C9.81874 45.8238 10.0448 45.4922 10.3296 45.2075C10.956 44.581 11.7789 44.2676 12.6019 44.2676C13.425 44.2676 14.2478 44.581 14.8743 45.2075C14.8742 45.2074 14.8742 45.2072 14.8741 45.2072L11.4692 41.8022C10.3829 42.0173 9.34671 42.5443 8.50659 43.3843C8.00808 43.8828 7.60917 44.4609 7.32031 45.1031L0.235501 57.9765C-0.0398894 58.4767 0.0467121 59.0984 0.448314 59.5045C0.696634 59.7556 1.02886 59.8872 1.36519 59.8871C1.57273 59.8871 1.78191 59.837 1.97386 59.734L14.992 52.7553C15.6316 52.4663 16.2017 52.0695 16.6974 51.5751C17.5375 50.735 18.0645 49.6988 18.2796 48.6125L14.8747 45.2076Z" fill="#33CCCC"/>
<path d="M37.8832 29.1599C34.1779 29.2367 30.8439 25.9854 30.9182 22.1982C30.893 16.0423 38.4631 12.9081 42.8083 17.2733C45.51 19.8658 45.5104 24.5309 42.8083 27.1233C41.4504 28.481 39.6668 29.1599 37.8832 29.1599ZM37.8832 17.8133C35.5497 17.765 33.4495 19.813 33.4963 22.1982C33.4963 23.3699 33.9527 24.4716 34.7813 25.3001C37.5182 28.0493 42.2862 26.0754 42.2702 22.198C42.3167 19.8132 40.217 17.7648 37.8832 17.8133Z" fill="black"/>
<path d="M58.2082 12.5343C59.9981 6.11088 60.0008 1.50646 60.0001 1.31357C59.9987 0.962946 59.8545 0.62779 59.6006 0.385798C59.3468 0.143806 59.0052 0.0160712 58.6549 0.030954C52.0136 0.320876 45.654 1.85744 39.753 4.5981C32.516 8.02384 26.3802 12.7338 21.4523 19.2742L10.8619 18.7593C10.4982 18.7408 10.1448 18.8783 9.88781 19.1353L0.377578 28.6453C0.0439451 28.979 -0.0807424 29.4681 0.0524998 29.9208C0.185742 30.3734 0.555586 30.7171 1.01672 30.8168L12.675 33.3377C10.9247 36.5977 9.83062 38.9117 9.81609 38.9425C9.58418 39.4344 9.68602 40.0191 10.0706 40.4037L14.8741 45.2072C14.8743 45.2073 14.8743 45.2074 14.8744 45.2074C14.8745 45.2074 14.8746 45.2076 14.8747 45.2077L19.7783 50.1113C20.1825 50.5157 20.8038 50.6032 21.3012 50.3346C21.5516 50.1997 23.6934 49.0425 26.6466 47.3485L29.1567 58.9567C29.3524 59.9385 30.6287 60.3171 31.3282 59.5957L40.8382 50.0857C41.0953 49.8286 41.2318 49.4748 41.2143 49.1117L40.6996 38.5247C50.0036 31.9766 55.4269 22.1715 58.2082 12.5343ZM55.7004 11.9291C55.2598 13.4994 54.6775 15.2725 53.9102 17.1681L42.8155 6.07338C47.4192 4.18865 52.2968 3.05299 57.3594 2.68795C57.233 4.46299 56.8516 7.82591 55.7004 11.9291ZM11.3068 21.3621L19.6509 21.7678C17.8512 24.3588 15.7717 27.7467 13.9678 30.9796L3.87234 28.7966L11.3068 21.3621ZM14.9394 34.5782L19.3099 38.9488L15.7859 42.473L12.5421 39.2292C12.9993 38.2989 13.8342 36.6348 14.9394 34.5782ZM20.9189 47.6059L17.6089 44.296L21.133 40.7719L25.4292 45.0681C23.4563 46.2018 21.8412 47.0988 20.9189 47.6059ZM38.6112 48.6665L31.1767 56.101L28.9901 45.9886C31.8848 44.2894 35.199 42.2684 38.2022 40.2536L38.6112 48.6665ZM43.6269 32.8295C40.5109 35.9456 33.3489 40.4308 27.7355 43.7283L22.956 38.9488L29.1683 32.7365C29.6718 32.233 29.6716 31.4168 29.1683 30.9134C28.6649 30.4101 27.8487 30.4101 27.3452 30.9134L21.1329 37.1257L16.2311 32.2238C19.13 27.0495 23.21 20.4969 27.2522 16.4548C31.083 12.6239 35.4689 9.51306 40.293 7.19709L52.8002 19.7042C50.8064 23.9363 47.8888 28.5676 43.6269 32.8295Z" fill="black"/>
</g>
<defs>
<clipPath id="clip0_214_1048">
<rect width="60" height="60" fill="white"/>
</clipPath>
</defs>
</svg>
