<svg width="36" height="36" viewBox="0 0 36 36" fill="none" xmlns="http://www.w3.org/2000/svg">
<g clip-path="url(#clip0_239_1410)">
<path d="M18 36C27.9401 36 36 27.9401 36 18C36 8.05992 27.9401 0 18 0C8.05992 0 0 8.05992 0 18C0 27.9401 8.05992 36 18 36Z" fill="#F0F0F0"/>
<path d="M34.8799 24.2578C36.3734 20.2182 36.3734 15.7776 34.8799 11.738H1.12009C-0.373362 15.7776 -0.373362 20.2182 1.12009 24.2578L18 25.8307L34.8799 24.2578Z" fill="#0052B4"/>
<path d="M18 36C25.74 36 32.3396 31.1203 34.88 24.2578H1.12012C3.66332 31.1203 10.26 36 18 36Z" fill="#D80027"/>
</g>
<defs>
<clipPath id="clip0_239_1410">
<rect width="36" height="36" fill="white"/>
</clipPath>
</defs>
</svg>
