<svg width="50" height="50" viewBox="0 0 50 50" fill="none" xmlns="http://www.w3.org/2000/svg">
<g clip-path="url(#clip0_214_1136)">
<path d="M25.0001 50C38.7695 50 50 38.7693 50 24.9999C50 11.2305 38.7695 0 25.0001 0C11.2305 0 0 11.2305 0 24.9999C0 38.7693 11.2305 50 25.0001 50Z" fill="#FFCA4F"/>
<path d="M17.1129 14.2256H38.9386L43.8913 36.0876L42.0775 36.0968L42.0343 43.8154L43.9037 43.8252L43.8917 45.115H14.388C11.5957 44.8983 11.8446 39.9351 11.6953 38.6064L14.1811 16.3829C14.1908 15.3952 15.2182 14.2259 17.1132 14.2259L17.1129 14.2256Z" fill="#20D0C2"/>
<path d="M17.1128 14.2254H19.2032L17.3005 45.1145H14.3873C10.9656 44.7267 10.8352 39.2845 11.9462 36.3597L14.1804 16.3821C14.1901 15.3946 15.2178 14.2251 17.1125 14.2251L17.1128 14.2254Z" fill="#1A91A1"/>
<path d="M14.7672 36.085H43.325C42.0291 38.7325 42.0627 41.3435 43.325 43.9198H14.7672C11.7036 43.9199 11.7041 36.085 14.7672 36.085Z" fill="white"/>
<path d="M12.6909 38.2393H42.561C42.5436 38.3177 42.5274 38.396 42.5126 38.4744H12.6339C12.6515 38.395 12.6702 38.3164 12.6909 38.2393ZM42.4215 39.0636C42.412 39.142 42.4041 39.2203 42.3972 39.2987H12.5034C12.5105 39.2198 12.52 39.1414 12.5301 39.0636H42.4215ZM42.3671 39.8879C42.3661 39.9663 42.3661 40.0446 42.3671 40.123H12.4717C12.4704 40.0446 12.4704 39.9663 12.4717 39.8879H42.3671ZM42.3976 40.7116C42.4046 40.7902 42.4128 40.8686 42.422 40.9471H12.5308C12.5206 40.8689 12.5116 40.7905 12.504 40.7116H42.3976ZM42.5132 41.5359C42.5283 41.6144 42.5444 41.6927 42.5618 41.7711H12.6925C12.6718 41.6937 12.6527 41.6153 12.6348 41.5359H42.5134H42.5132ZM42.7135 42.3603C42.7365 42.4387 42.7608 42.517 42.7862 42.5954H12.9942C12.9576 42.5193 12.9225 42.4407 12.8897 42.3603H42.7132H42.7135ZM42.9988 43.1845C43.0301 43.2626 43.0623 43.3412 43.0959 43.4196H13.5701C13.4953 43.3477 13.4246 43.269 13.3575 43.1845H42.9986H42.9988Z" fill="#ECF0F1"/>
<path d="M23.4546 40.0996H27.9173V49.9996L25.6675 46.77L23.4549 49.9996V40.0996H23.4546Z" fill="#FF5B61"/>
<path d="M9.66326 28.0784L39.9176 17.2559C43.3064 16.975 44.3213 23.869 42.0987 24.5196L12.5399 35.6135C10.8611 36.246 9.21971 33.5466 9.07342 30.9001C8.99559 29.4943 9.37801 29.5368 10.9792 28.9095L9.66336 28.0786V28.0784H9.66326Z" fill="white"/>
<path d="M43.0499 23.4888C42.8572 24.0103 42.543 24.3896 42.0988 24.5198L12.54 35.6137C12.026 35.8073 11.5154 35.6882 11.0503 35.3542C11.889 35.4382 12.3475 35.3268 13.1453 34.5742L43.0499 23.4888Z" fill="#ECF0F1"/>
<path d="M29.5188 20.979C31.7658 21.3027 33.3709 26.6376 32.2481 28.2171L28.1631 29.7502C28.9041 27.2481 27.2894 23.0782 25.0449 22.5808L29.5188 20.979Z" fill="#FFBA1B"/>
<path d="M36.7562 31.7747L32.2481 28.2168L28.1631 29.7499L31.5742 33.7144L33.1501 31.3591L36.7562 31.7747Z" fill="#F5A209"/>
<path d="M10.7815 28.9917L10.9789 28.9092C12.2144 29.1595 14.3809 33.5867 12.0069 34.5696C10.3181 35.2685 9.53167 31.6057 9.59319 30.3913C10.3171 29.8726 11.0986 32.0602 10.8484 32.1099L10.3471 32.209C10.3471 32.209 10.3624 33.1665 10.8484 33.2325L12.7874 32.605C12.7874 32.605 12.6299 29.7822 10.7818 28.9917H10.7815Z" fill="#ECF0F1"/>
<path d="M17.7552 37.7276H40.7561H42.0676H42.6893C42.844 37.1836 43.0545 36.638 43.3225 36.0903C43.3233 36.0886 43.3241 36.0867 43.325 36.085H41.2835H17.8562H14.7667C11.9322 36.085 11.7204 42.7946 14.132 43.7956C13.3154 41.4849 13.9678 37.7276 16.0892 37.7276H17.7549H17.7552V37.7276Z" fill="#ECF0F1"/>
<path d="M27.2683 13.2983L27.5139 17.5899C26.1184 19.9553 21.6639 21.7109 17.278 21.6663C13.0984 21.624 8.9751 19.8899 7.84141 17.706L7.81836 13.5013L17.1566 16.0792L27.2683 13.2986V13.2983Z" fill="#666666"/>
<path d="M2.05762 11.8051L17.1567 6.7041L32.2561 11.8051L17.1567 16.9059L2.05762 11.8051Z" fill="#807D7D"/>
<path d="M7.42458 22.2472L6.73327 26.674C6.72224 26.746 6.9653 26.8438 7.08142 26.6996C7.23386 26.8822 7.43591 26.8074 7.49636 26.6811C7.57292 26.8064 7.75329 26.8756 7.88415 26.6886C8.00017 26.8328 8.25945 26.7324 8.2405 26.6114L7.55349 22.2431C7.53611 22.178 7.43386 22.1891 7.42487 22.2469L7.42458 22.2472Z" fill="#FF5B61"/>
<path d="M17.2592 10.5131C17.3504 10.4859 17.4467 10.5377 17.4738 10.6291C17.501 10.7203 17.4492 10.8166 17.3578 10.8437L7.64658 13.7636V22.2319C7.64658 22.3272 7.56924 22.4046 7.47393 22.4046C7.37861 22.4046 7.30127 22.3272 7.30127 22.2319V13.6352C7.30127 13.5609 7.34971 13.4923 7.42451 13.47L17.2589 10.513H17.2592V10.5131Z" fill="white"/>
<path d="M7.48691 22.8105C7.86426 22.8105 8.17217 22.5026 8.17217 22.1251C8.17217 21.7476 7.86426 21.4399 7.48691 21.4399C7.10937 21.4399 6.80176 21.7479 6.80176 22.1251C6.80176 22.5027 7.10967 22.8105 7.48691 22.8105Z" fill="white"/>
<path d="M8.04277 21.9504C8.04277 22.2373 7.86035 22.4812 7.60557 22.573C7.53535 22.5981 7.46006 22.612 7.38115 22.612C7.37676 22.612 7.37246 22.612 7.36836 22.612C7.14268 22.6076 6.94473 22.4903 6.82861 22.3146C6.89756 22.5544 7.09394 22.7403 7.33984 22.7944C7.38721 22.8047 7.43662 22.8104 7.4874 22.8104C7.53965 22.8104 7.59092 22.8045 7.64004 22.7932C7.94512 22.7237 8.17256 22.4512 8.17256 22.1249C8.17256 21.9292 8.09062 21.7529 7.95947 21.6279C8.0125 21.7232 8.04297 21.8331 8.04297 21.9502L8.04277 21.9504Z" fill="#ECF0F1"/>
</g>
<defs>
<clipPath id="clip0_214_1136">
<rect width="50" height="50" fill="white"/>
</clipPath>
</defs>
</svg>
