<svg width="50" height="50" viewBox="0 0 50 50" fill="none" xmlns="http://www.w3.org/2000/svg">
<path d="M26.6052 49.9454L40.1649 44.5801C45.5131 40.1924 48.9258 33.5319 48.9258 26.0742C48.9258 12.8605 38.2137 2.14844 25 2.14844C11.7863 2.14844 1.07422 12.8605 1.07422 26.0742C1.07422 39.2883 11.7863 50 25 50C25.5398 50 26.0746 49.9805 26.6052 49.9454Z" fill="#27A3FF"/>
<path d="M39.0372 31.1475C39.2279 28.8385 38.8762 26.5249 37.8539 24.4455C35.213 19.0733 35.8187 18.6834 35.7367 13.3516C35.7367 12.2621 34.8536 11.3794 33.7645 11.3794C32.6751 11.3794 31.7923 12.2621 31.7923 13.3516C31.7923 14.055 31.7923 33.2571 31.7923 33.1819C31.7923 33.4894 31.7595 33.7896 31.6989 34.0791V36.918C31.6989 39.3102 29.7526 41.2569 27.3604 41.2569C25.7716 41.2569 20.2926 41.2569 16.5645 41.2569C18.2227 43.5632 20.4917 45.3695 23.125 46.4632C23.1414 46.4697 23.1578 46.4765 23.1742 46.4834C24.7584 47.1529 25.9681 48.4152 26.6051 49.9456C31.7355 49.6057 36.4241 47.6499 40.1648 44.5806L38.695 39.1809C38.4852 38.4092 38.4112 37.607 38.4764 36.8101L39.0372 31.1475Z" fill="#F9CFA9"/>
<path d="M9.23938 11.4484L8.63857 10.8918C7.71274 10.0335 6.25286 10.0892 5.39493 11.0154C4.53701 11.9412 4.5927 13.4011 5.51853 14.259L9.23938 17.7068V11.4484Z" fill="#F9CFA9"/>
<path d="M28.9669 0H12.1002C10.4637 0 9.13232 1.33171 9.13232 2.96822V38.5132C9.13232 40.1497 10.4637 41.4814 12.1002 41.4814H28.9669C30.6034 41.4814 31.9351 40.1497 31.9351 38.5132V2.96822C31.9351 1.33171 30.6034 0 28.9669 0V0Z" fill="#3D4EC6"/>
<path d="M14.847 2.20108C14.6864 1.96228 14.5926 1.67503 14.5926 1.36566C14.5926 0.758362 14.9542 0.236511 15.473 0H12.1001C10.4609 0 9.13184 1.32904 9.13184 2.96822V38.5132C9.13184 40.1524 10.4609 41.481 12.1001 41.481H15.6859V4.80232C15.6859 3.86887 15.3681 2.97585 14.847 2.20108V2.20108Z" fill="#2B3894"/>
<path d="M10.8506 18.7476V38.513C10.8506 39.2035 11.4102 39.7631 12.1003 39.7631H28.967C29.6571 39.7631 30.2167 39.2035 30.2167 38.513C30.2167 37.8348 30.2167 27.9333 30.2167 18.7476H10.8506Z" fill="#E6F7FE"/>
<path d="M10.8506 18.7476V38.513C10.8506 39.2035 11.4102 39.7631 12.1003 39.7631H15.0567V18.7476H10.8506Z" fill="#D5F1FE"/>
<path d="M17.6442 24.7099C17.6442 25.7914 16.7676 26.668 15.6861 26.668C14.6046 26.668 13.728 25.7914 13.728 24.7099C13.728 23.6285 14.6046 22.7515 15.6861 22.7515C16.7676 22.7515 17.6442 23.6285 17.6442 24.7099V24.7099Z" fill="#3D4EC6"/>
<path d="M17.6442 31.9708C17.6442 33.0522 16.7676 33.9292 15.6861 33.9292C14.6046 33.9292 13.728 33.0522 13.728 31.9708C13.728 30.8893 14.6046 30.0127 15.6861 30.0127C16.7676 30.0127 17.6442 30.8893 17.6442 31.9708V31.9708Z" fill="#3D4EC6"/>
<path d="M15.4649 22.7651C14.4875 22.8754 13.728 23.7036 13.728 24.7103C13.728 25.7917 14.6046 26.6683 15.6861 26.6683C16.3606 26.6683 16.9549 26.3273 17.307 25.8085C15.6186 25.9989 14.5436 24.122 15.4649 22.7651V22.7651Z" fill="#2B3894"/>
<path d="M15.4649 30.0264C14.4875 30.1362 13.728 30.9648 13.728 31.9711C13.728 33.0529 14.6046 33.9296 15.6861 33.9296C16.3606 33.9296 16.9549 33.5885 17.307 33.0697C15.6289 33.2586 14.5375 31.392 15.4649 30.0264Z" fill="#2B3894"/>
<path d="M23.6884 23.896H20.9082C20.5038 23.896 20.1758 23.5679 20.1758 23.1636C20.1758 22.7588 20.5038 22.4312 20.9082 22.4312H23.6884C24.0927 22.4312 24.4208 22.7588 24.4208 23.1636C24.4208 23.5679 24.0927 23.896 23.6884 23.896Z" fill="#11DFEF"/>
<path d="M26.4685 26.9888H20.9082C20.5035 26.9888 20.1758 26.6607 20.1758 26.2563C20.1758 25.8516 20.5035 25.5239 20.9082 25.5239H26.4685C26.8729 25.5239 27.2009 25.8516 27.2009 26.2563C27.2009 26.6607 26.8729 26.9888 26.4685 26.9888Z" fill="#11DFEF"/>
<path d="M23.6884 31.1572H20.9082C20.5038 31.1572 20.1758 30.8295 20.1758 30.4248C20.1758 30.0201 20.5038 29.6924 20.9082 29.6924H23.6884C24.0927 29.6924 24.4208 30.0201 24.4208 30.4248C24.4208 30.8295 24.0927 31.1572 23.6884 31.1572Z" fill="#11DFEF"/>
<path d="M26.4685 34.25H20.9082C20.5035 34.25 20.1758 33.9223 20.1758 33.5176C20.1758 33.1132 20.5035 32.7852 20.9082 32.7852H26.4685C26.8729 32.7852 27.2009 33.1132 27.2009 33.5176C27.2009 33.9223 26.8729 34.25 26.4685 34.25Z" fill="#11DFEF"/>
<path d="M28.9572 1.71875H26.4506C26.2141 1.71875 26.0226 1.91025 26.0226 2.14638C26.0226 2.71362 25.5587 3.17749 24.9918 3.17749H16.0567C15.4894 3.17749 15.0255 2.71362 15.0255 2.14638C15.0255 1.91025 14.834 1.71875 14.5975 1.71875H12.0909C11.4004 1.71875 10.8408 2.27837 10.8408 2.96844V18.9433H30.2073V2.96844C30.2073 2.27837 29.6477 1.71875 28.9572 1.71875V1.71875Z" fill="#F948B4"/>
<path d="M15.0568 2.39357C15.037 2.31422 15.0255 2.23183 15.0255 2.14676C15.0255 1.91025 14.8341 1.71875 14.5975 1.71875H12.0909C11.4004 1.71875 10.8408 2.27837 10.8408 2.96844V18.9433H15.0568V2.39357Z" fill="#E00E8B"/>
<path d="M28.9571 1.71875H26.4504C26.2139 1.71875 26.0224 1.91025 26.0224 2.14638C26.0224 2.71362 25.5585 3.17749 24.9917 3.17749H20.0635L30.2071 15.8926V2.96844C30.2071 2.27837 29.6475 1.71875 28.9571 1.71875V1.71875Z" fill="#FC7ACD"/>
<path d="M17.3746 7.53955H13.9971C13.5927 7.53955 13.2646 7.21187 13.2646 6.80713C13.2646 6.40239 13.5927 6.07471 13.9971 6.07471H17.3746C17.779 6.07471 18.107 6.40239 18.107 6.80713C18.107 7.21149 17.779 7.53955 17.3746 7.53955Z" fill="#FC7ACD"/>
<path d="M12.58 23.5536C11.8251 24.368 10.5525 24.4168 9.73766 23.6619L6.3689 20.5403C5.55408 19.7854 5.50563 18.5128 6.26056 17.698C7.01549 16.8832 8.28808 16.8347 9.1029 17.5897L12.4717 20.7112C13.2861 21.4662 13.3349 22.7387 12.58 23.5536Z" fill="#F9CFA9"/>
<path d="M12.4714 20.7112L10.8689 19.2266C11.0798 19.9906 10.9047 20.8421 10.3268 21.4658C9.74849 22.0899 8.91269 22.3291 8.13525 22.1772L9.73743 23.6619C10.5522 24.4168 11.8245 24.368 12.5798 23.5536C13.3347 22.7388 13.2859 21.4662 12.4714 20.7112Z" fill="#FBBC8D"/>
<path d="M12.58 29.0395C11.8251 29.8543 10.5525 29.9028 9.73766 29.1479L6.3689 26.0263C5.55408 25.2714 5.50563 23.9988 6.26056 23.1843C7.01549 22.3695 8.28808 22.3211 9.1029 23.076L12.4717 26.1976C13.2861 26.9525 13.3349 28.2247 12.58 29.0395Z" fill="#F9CFA9"/>
<path d="M12.58 34.5252C11.8251 35.3401 10.5525 35.3885 9.73766 34.6336L6.3689 31.512C5.55408 30.7571 5.50563 29.4845 6.26056 28.6697C7.01549 27.8549 8.28808 27.8064 9.1029 28.5613L12.4717 31.6829C13.2861 32.4378 13.3349 33.7104 12.58 34.5252V34.5252Z" fill="#F9CFA9"/>
<path d="M38.6952 39.1799C38.591 38.7962 38.5204 38.4052 38.4834 38.0107C34.7565 44.1295 27.5208 46.9711 20.7241 45.2041C21.4821 45.6913 22.2851 46.1132 23.1251 46.4622C23.1415 46.4691 23.1579 46.4759 23.1743 46.4828C24.7585 47.1519 25.9682 48.4142 26.6052 49.945C31.7356 49.6051 36.4243 47.649 40.165 44.5797L38.6952 39.1799Z" fill="#FBBC8D"/>
<path d="M12.4714 26.1976L10.8689 24.7129C11.0798 25.4766 10.9047 26.328 10.3268 26.9521C9.74849 27.5762 8.91269 27.8154 8.13525 27.6636L9.73743 29.1479C10.5522 29.9028 11.8248 29.8543 12.5798 29.0395C13.3347 28.2247 13.2859 26.9525 12.4714 26.1976Z" fill="#FBBC8D"/>
<path d="M12.4714 31.6829L10.8689 30.1982C11.0798 30.9623 10.9047 31.8138 10.3268 32.4375C9.74849 33.0616 8.91269 33.3011 8.13525 33.1489L9.73743 34.6336C10.5522 35.3885 11.8248 35.3401 12.5798 34.5253C13.3347 33.7104 13.2859 32.4379 12.4714 31.6829Z" fill="#FBBC8D"/>
</svg>
