<svg width="50" height="50" viewBox="0 0 50 50" fill="none" xmlns="http://www.w3.org/2000/svg">
<g clip-path="url(#clip0_214_1111)">
<path d="M50 25C50 37.7207 40.4992 48.2225 28.2064 49.7963C28.0805 49.8124 27.9046 48.9822 27.778 48.9964C26.8499 49.1009 23.7953 49.2407 23.4666 49.2208C16.3901 48.7926 10.7267 45.6201 6.44736 40.5131C6.32861 40.3714 5.22441 40.298 5.10098 40.1359C1.90039 35.9346 0 30.6893 0 25C0 11.1929 11.1929 0 25 0C38.8071 0 50 11.1929 50 25Z" fill="#49B6FC"/>
<path d="M44.5226 24.9998C44.5226 35.7819 35.7819 44.5226 24.9998 44.5226C14.2177 44.5226 5.47705 35.7819 5.47705 24.9998C5.47705 14.2177 14.2177 5.47705 24.9998 5.47705C35.7819 5.47705 44.5226 14.2177 44.5226 24.9998Z" fill="#65BEFC"/>
<path d="M40.9341 9.12354C40.9341 9.52803 40.6062 9.85596 40.2017 9.85596H40.104C39.6995 9.85596 39.3716 9.52803 39.3716 9.12354C39.3716 8.71904 39.6995 8.39111 40.104 8.39111H40.2017C40.6062 8.39111 40.9341 8.71904 40.9341 9.12354ZM37.7603 8.39111H37.6626C37.2581 8.39111 36.9302 8.71904 36.9302 9.12354C36.9302 9.52803 37.2581 9.85596 37.6626 9.85596H37.7603C38.1647 9.85596 38.4927 9.52803 38.4927 9.12354C38.4927 8.71904 38.1647 8.39111 37.7603 8.39111ZM42.481 8.45566C42.0765 8.45566 41.7485 8.78359 41.7485 9.18809V9.28574C41.7485 9.69023 42.0765 10.0182 42.481 10.0182C42.8854 10.0182 43.2134 9.69023 43.2134 9.28574V9.18809C43.2134 8.78359 42.8854 8.45566 42.481 8.45566ZM42.481 10.8971C42.0765 10.8971 41.7485 11.225 41.7485 11.6295V11.7271C41.7485 12.1316 42.0765 12.4596 42.481 12.4596C42.8854 12.4596 43.2134 12.1316 43.2134 11.7271V11.6295C43.2134 11.225 42.8854 10.8971 42.481 10.8971ZM32.8774 36.8504H32.7798C32.3753 36.8504 32.0474 37.1783 32.0474 37.5828C32.0474 37.9873 32.3753 38.3152 32.7798 38.3152H32.8774C33.2819 38.3152 33.6099 37.9873 33.6099 37.5828C33.6099 37.1783 33.2819 36.8504 32.8774 36.8504ZM30.436 36.8504H30.3384C29.9339 36.8504 29.606 37.1783 29.606 37.5828C29.606 37.9873 29.9339 38.3152 30.3384 38.3152H30.436C30.8405 38.3152 31.1685 37.9873 31.1685 37.5828C31.1685 37.1783 30.8405 36.8504 30.436 36.8504ZM40.2017 36.8504H40.104C39.6995 36.8504 39.3716 37.1783 39.3716 37.5828C39.3716 37.9873 39.6995 38.3152 40.104 38.3152H40.2017C40.6062 38.3152 40.9341 37.9873 40.9341 37.5828C40.9341 37.1783 40.6062 36.8504 40.2017 36.8504ZM42.481 31.8054C42.0765 31.8054 41.7485 32.1333 41.7485 32.5378V32.6355C41.7485 33.04 42.0765 33.3679 42.481 33.3679C42.8854 33.3679 43.2134 33.04 43.2134 32.6355V32.5378C43.2134 32.1333 42.8854 31.8054 42.481 31.8054ZM42.481 34.2468C42.0765 34.2468 41.7485 34.5747 41.7485 34.9792V35.0769C41.7485 35.4814 42.0765 35.8093 42.481 35.8093C42.8854 35.8093 43.2134 35.4814 43.2134 35.0769V34.9792C43.2134 34.5747 42.8854 34.2468 42.481 34.2468ZM35.3188 36.8504H35.2212C34.8167 36.8504 34.4888 37.1783 34.4888 37.5828C34.4888 37.9873 34.8167 38.3152 35.2212 38.3152H35.3188C35.7233 38.3152 36.0513 37.9873 36.0513 37.5828C36.0513 37.1783 35.7233 36.8504 35.3188 36.8504ZM42.481 29.364C42.0765 29.364 41.7485 29.6919 41.7485 30.0964V30.1941C41.7485 30.5985 42.0765 30.9265 42.481 30.9265C42.8854 30.9265 43.2134 30.5985 43.2134 30.1941V30.0964C43.2134 29.6919 42.8854 29.364 42.481 29.364ZM37.7603 36.8504H37.6626C37.2581 36.8504 36.9302 37.1783 36.9302 37.5828C36.9302 37.9873 37.2581 38.3152 37.6626 38.3152H37.7603C38.1647 38.3152 38.4927 37.9873 38.4927 37.5828C38.4927 37.1783 38.1647 36.8504 37.7603 36.8504ZM42.481 36.6882C42.0765 36.6882 41.7485 37.0161 41.7485 37.4206V37.5183C41.7485 37.9228 42.0765 38.2507 42.481 38.2507C42.8854 38.2507 43.2134 37.9228 43.2134 37.5183V37.4206C43.2134 37.0161 42.8854 36.6882 42.481 36.6882Z" fill="#E5F2FD"/>
<path d="M47.0995 15.3066V28.9785C47.0995 29.5179 46.6623 29.9551 46.1229 29.9551H38.8275L35.2831 33.4994L31.7387 29.9551H29.1831C28.6438 29.9551 28.2065 29.5179 28.2065 28.9785V15.3066C28.2065 14.7673 28.6438 14.3301 29.1831 14.3301H46.1229C46.6623 14.3301 47.0995 14.7673 47.0995 15.3066Z" fill="#FFC143"/>
<path d="M31.1509 29.9551H25.2061C24.6667 29.9551 24.2295 29.5179 24.2295 28.9785V15.3066C24.2295 14.7673 24.6667 14.3301 25.2061 14.3301H31.1509C30.6115 14.3301 30.1743 14.7673 30.1743 15.3066V28.9785C30.1743 29.5178 30.6115 29.9551 31.1509 29.9551Z" fill="#FFAA00"/>
<path d="M31.6895 18.9849C31.6895 18.5804 32.0174 18.2524 32.4219 18.2524H43.6523C44.0568 18.2524 44.3848 18.5804 44.3848 18.9849C44.3848 19.3894 44.0568 19.7173 43.6523 19.7173H32.4219C32.0174 19.7173 31.6895 19.3894 31.6895 18.9849ZM43.6523 21.3042H32.4219C32.0174 21.3042 31.6895 21.6321 31.6895 22.0366C31.6895 22.4411 32.0174 22.769 32.4219 22.769H43.6523C44.0568 22.769 44.3848 22.4411 44.3848 22.0366C44.3848 21.6321 44.0568 21.3042 43.6523 21.3042ZM38.7695 24.356H32.4219C32.0174 24.356 31.6895 24.6839 31.6895 25.0884C31.6895 25.4929 32.0174 25.8208 32.4219 25.8208H38.7695C39.174 25.8208 39.502 25.4929 39.502 25.0884C39.502 24.6839 39.174 24.356 38.7695 24.356Z" fill="#FFAA00"/>
<path d="M49.5246 18.3222C49.3847 18.6148 49.149 18.8504 48.8564 18.9905C48.1287 19.3386 47.3014 19.5118 46.4289 19.4556C44.0042 19.2995 42.0351 17.3301 41.8795 14.9054C41.8235 14.0331 41.9967 13.2062 42.3447 12.4787C42.4847 12.1862 42.7204 11.9505 43.013 11.8105C43.7404 11.4625 44.5675 11.2893 45.4399 11.3453C47.8645 11.501 49.8339 13.4701 49.99 15.8948C50.0459 16.7672 49.8728 17.5946 49.5246 18.3222Z" fill="#FF7A7A"/>
<path d="M49.6375 18.0671C48.9086 19.8468 47.1593 21.1004 45.1172 21.1004C42.4205 21.1004 40.2344 18.9143 40.2344 16.2176C40.2344 14.1754 41.488 12.4262 43.2677 11.6973C43.034 12.2678 42.9052 12.8922 42.9052 13.5468C42.9052 16.2436 45.0913 18.4296 47.788 18.4296C48.4426 18.4296 49.0671 18.3008 49.6375 18.0671Z" fill="#FF5757"/>
<path d="M10.5448 44.8334C9.25811 43.92 8.06162 42.8879 6.97119 41.753V40.2036C6.97119 39.1249 7.84561 38.2505 8.92432 38.2505H24.3835C25.4622 38.2505 26.3366 39.1249 26.3366 40.2036V47.1262H13.8419C13.5128 46.9525 13.188 46.7718 12.8678 46.5842C12.7776 46.5313 12.1984 46.478 12.1091 46.4242C11.745 46.2047 11.3869 45.9762 11.0353 45.7389C10.8704 45.6276 10.7069 44.9484 10.5448 44.8334Z" fill="#54469D"/>
<path d="M11.0354 45.7389C9.7498 44.8715 8.54912 43.8878 7.44873 42.8027C7.37588 42.7309 7.30342 41.9555 7.23144 41.8827C7.14404 41.7944 7.05732 41.7055 6.97119 41.6159V40.2036C6.97119 39.1249 7.84561 38.2505 8.92432 38.2505H12.9885C11.9098 38.2505 11.0354 39.1249 11.0354 40.2036V45.7389Z" fill="#463B85"/>
<path d="M13.2359 15.8929H8.92432C7.84561 15.8929 6.97119 15.0185 6.97119 13.9397V6.09668C6.97119 5.01797 7.84561 4.14355 8.92432 4.14355H13.2359C14.3146 4.14355 15.1891 5.01797 15.1891 6.09668V13.9397C15.1891 15.0185 14.3146 15.8929 13.2359 15.8929Z" fill="#54469D"/>
<path d="M24.3833 15.8929H12.9883C11.9096 15.8929 11.0352 15.0185 11.0352 13.9397V6.09668C11.0352 5.01797 11.9096 4.14355 12.9883 4.14355H24.3833C25.462 4.14355 26.3364 5.01797 26.3364 6.09668V13.9397C26.3364 15.0185 25.462 15.8929 24.3833 15.8929Z" fill="#6354B2"/>
<path d="M14.3305 8.33106V40.8499C14.3305 41.9286 13.4561 42.803 12.3773 42.803H7.44854C6.60498 41.9713 5.82012 41.08 5.10107 40.136V8.33106C5.10107 7.25234 5.97549 6.37793 7.0542 6.37793H12.3774C13.4561 6.37793 14.3305 7.25234 14.3305 8.33106Z" fill="#6354B2"/>
<path d="M28.2062 8.33105V40.8499C28.2062 41.9286 27.3318 42.803 26.2531 42.803H11.0771C9.99844 42.803 9.12402 41.9286 9.12402 40.8499V8.33105C9.12402 7.25234 9.99844 6.37793 11.0771 6.37793H26.253C27.3318 6.37793 28.2062 7.25234 28.2062 8.33105ZM26.2531 46.4245H12.1087C15.8728 48.6942 20.2839 50.0001 24.9998 50.0001C26.0862 50.0001 27.1563 49.9308 28.2062 49.7964V48.3776C28.2062 47.299 27.3318 46.4245 26.2531 46.4245Z" fill="#6E61B7"/>
<path d="M16.6535 10.4194C11.4221 10.4194 7.18115 14.6604 7.18115 19.8918C7.18115 25.1232 11.4221 29.3642 16.6535 29.3642C21.885 29.3642 26.1259 25.1232 26.1259 19.8918C26.1259 14.6604 21.885 10.4194 16.6535 10.4194ZM16.6535 26.0899C13.2304 26.0899 10.4554 23.3149 10.4554 19.8918C10.4554 16.4687 13.2304 13.6937 16.6535 13.6937C20.0767 13.6937 22.8517 16.4687 22.8517 19.8918C22.8517 23.3149 20.0767 26.0899 16.6535 26.0899Z" fill="#54469D"/>
<path d="M20.2691 19.8914C20.2691 21.8883 18.6504 23.5069 16.6536 23.5069C14.6568 23.5069 13.0381 21.8882 13.0381 19.8914C13.0381 17.8946 14.6568 16.2759 16.6536 16.2759C18.6504 16.2759 20.2691 17.8946 20.2691 19.8914ZM17.907 39.048C17.907 39.857 17.2512 40.5129 16.4422 40.5129C15.6332 40.5129 14.9773 39.857 14.9773 39.048C14.9773 38.2391 15.6332 37.5832 16.4422 37.5832C17.2512 37.5832 17.907 38.2391 17.907 39.048Z" fill="#C3BDE1"/>
<path d="M13.3545 39.0483C13.3545 39.5877 12.9173 40.0249 12.3779 40.0249C11.8386 40.0249 11.4014 39.5877 11.4014 39.0483C11.4014 38.509 11.8386 38.0718 12.3779 38.0718C12.9173 38.0718 13.3545 38.509 13.3545 39.0483ZM20.5062 38.0718C19.9669 38.0718 19.5297 38.509 19.5297 39.0483C19.5297 39.5877 19.9669 40.0249 20.5062 40.0249C21.0456 40.0249 21.4828 39.5877 21.4828 39.0483C21.4828 38.509 21.0456 38.0718 20.5062 38.0718Z" fill="#ADA7D7"/>
<path d="M18.203 19.8918C18.203 20.7476 17.5093 21.4413 16.6535 21.4413C15.7978 21.4413 15.104 20.7476 15.104 19.8918C15.104 19.036 15.7978 18.3423 16.6535 18.3423C17.5093 18.3423 18.203 19.036 18.203 19.8918Z" fill="#FFF5F5"/>
<path d="M36.0379 7.8126C36.0379 9.30498 35.6194 10.6996 34.8935 11.8856C34.7875 12.0587 34.6417 12.2045 34.4687 12.3104C33.2827 13.0364 31.888 13.4549 30.3956 13.4549C26.0952 13.4549 22.583 9.94268 22.583 5.64229C22.583 4.15049 23.0012 2.75635 23.7266 1.5707C23.833 1.39668 23.9797 1.25 24.1537 1.14355C25.3395 0.418164 26.7336 0 28.2254 0C32.5257 0 36.038 3.51221 36.0379 7.8126Z" fill="#4BCD5C"/>
<path d="M34.9668 11.7635C33.6098 14.0739 31.0988 15.625 28.2256 15.625C23.9108 15.625 20.4131 12.1272 20.4131 7.8125C20.4131 4.93926 21.9642 2.42842 24.2746 1.07129C23.5938 2.23047 23.2033 3.58076 23.2033 5.02227C23.2033 9.33701 26.7011 12.8348 31.0158 12.8348C32.4573 12.8348 33.8076 12.4443 34.9668 11.7635Z" fill="#00C53B"/>
<path d="M33.5896 4.46261C33.8757 4.74865 33.8757 5.21241 33.5896 5.49835L27.9823 11.1056C27.8392 11.2485 27.6517 11.3201 27.4643 11.3201C27.2768 11.3201 27.0894 11.2486 26.9464 11.1056L23.756 7.91525C23.47 7.62921 23.47 7.16544 23.756 6.8795C24.0422 6.59347 24.5058 6.59347 24.7919 6.8795L27.4642 9.55197L32.5536 4.46261C32.8399 4.17648 33.3036 4.17657 33.5896 4.46261ZM45.1173 13.38C44.7127 13.38 44.3848 13.7079 44.3848 14.1124V18.3235C44.3848 18.7279 44.7127 19.0559 45.1173 19.0559C45.5219 19.0559 45.8497 18.7279 45.8497 18.3235V14.1124C45.8497 13.7079 45.5219 13.38 45.1173 13.38Z" fill="white"/>
</g>
<defs>
<clipPath id="clip0_214_1111">
<rect width="50" height="50" fill="white"/>
</clipPath>
</defs>
</svg>
