<svg width="24" height="24" viewBox="0 0 24 24" fill="none" xmlns="http://www.w3.org/2000/svg">
<g clip-path="url(#clip0_214_1225)">
<path d="M23.5301 1.96636C23.144 1.61259 22.5952 1.4947 22.0978 1.65862L0.995216 8.61493C0.420105 8.8045 0.0301045 9.31787 0.00165129 9.9227C-0.026755 10.5276 0.313324 11.0753 0.868044 11.3181L5.10579 13.1722L17.5825 6.24765C17.8873 6.07852 18.2697 6.15755 18.4825 6.43332C18.6954 6.70918 18.6747 7.09913 18.4339 7.35095L10.6556 15.484L9.06036 21.2475L12.8892 18.3806L17.4168 22.0855C17.6805 22.3014 18.0028 22.414 18.3315 22.414C18.4879 22.414 18.6459 22.3885 18.7995 22.3364C19.2761 22.1748 19.6293 21.7859 19.7445 21.2961L23.9616 3.36619C24.0815 2.85651 23.9162 2.32012 23.5301 1.96636Z" fill="white"/>
<path d="M6.20996 14.1716L7.67532 20.9681L9.34464 14.9371C9.37567 14.8249 9.43403 14.7221 9.51447 14.638L14.2033 9.73535L6.20996 14.1716Z" fill="white"/>
</g>
<defs>
<clipPath id="clip0_214_1225">
<rect width="24" height="24" fill="white"/>
</clipPath>
</defs>
</svg>
