<svg width="41" height="41" viewBox="0 0 41 41" fill="none" xmlns="http://www.w3.org/2000/svg">
<path d="M18.803 24.9844H8.96875C8.61448 24.9844 8.32812 24.6974 8.32812 24.3438C8.32812 23.9901 8.61448 23.7031 8.96875 23.7031H18.803C19.1572 23.7031 19.4436 23.9901 19.4436 24.3438C19.4436 24.6974 19.1566 24.9844 18.803 24.9844Z" fill="url(#paint0_linear_214_296)"/>
<path d="M18.803 17.2969H8.96875C8.61448 17.2969 8.32812 17.0099 8.32812 16.6562C8.32812 16.3026 8.61448 16.0156 8.96875 16.0156H18.803C19.1572 16.0156 19.4436 16.3026 19.4436 16.6562C19.4436 17.0099 19.1566 17.2969 18.803 17.2969Z" fill="url(#paint1_linear_214_296)"/>
<path d="M17.9375 21.1406H5.125C4.77073 21.1406 4.48438 20.8536 4.48438 20.5C4.48438 20.1464 4.77073 19.8594 5.125 19.8594H17.9375C18.2918 19.8594 18.5781 20.1464 18.5781 20.5C18.5781 20.8536 18.2918 21.1406 17.9375 21.1406Z" fill="url(#paint2_linear_214_296)"/>
<path d="M24.3438 22.9997C23.0708 22.9997 21.7812 22.1412 21.7812 20.5C21.7812 18.8587 23.0708 18.0002 24.3438 18.0002C25.6167 18.0002 26.9062 18.8587 26.9062 20.5C26.9062 22.1412 25.6167 22.9997 24.3438 22.9997ZM24.3438 19.2815C23.7525 19.2815 23.0625 19.6005 23.0625 20.5C23.0625 21.3994 23.7525 21.7184 24.3438 21.7184C24.935 21.7184 25.625 21.3994 25.625 20.5C25.625 19.6005 24.935 19.2815 24.3438 19.2815Z" fill="url(#paint3_linear_214_296)"/>
<path d="M25.7028 19.7816C25.5388 19.7816 25.3748 19.7189 25.2499 19.5939C24.9994 19.3435 24.9994 18.9386 25.2499 18.6881L28.8739 15.0641C29.1244 14.8136 29.5292 14.8136 29.7797 15.0641C30.0302 15.3146 30.0302 15.7194 29.7797 15.9699L26.1557 19.5939C26.0308 19.7189 25.8668 19.7816 25.7028 19.7816Z" fill="url(#paint4_linear_214_296)"/>
<path d="M22.0793 23.4059C21.9153 23.4059 21.7513 23.3431 21.6263 23.2182C21.3759 22.9684 21.3759 22.5628 21.6263 22.3124L22.5322 21.4059C22.7827 21.1554 23.1875 21.1554 23.438 21.4059C23.6885 21.6557 23.6885 22.0612 23.438 22.3117L22.5322 23.2182C22.4073 23.3431 22.2433 23.4059 22.0793 23.4059Z" fill="url(#paint5_linear_214_296)"/>
<path d="M24.3438 32.6719C23.9895 32.6719 23.7031 32.3849 23.7031 32.0312V30.1094C23.7031 29.7558 23.9895 29.4688 24.3438 29.4688C24.698 29.4688 24.9844 29.7558 24.9844 30.1094V32.0312C24.9844 32.3849 24.698 32.6719 24.3438 32.6719Z" fill="url(#paint6_linear_214_296)"/>
<path d="M32.4971 29.2941C32.3331 29.2941 32.1691 29.2314 32.0442 29.1064L30.6854 27.747C30.4349 27.4965 30.4349 27.091 30.6854 26.8412C30.9359 26.5907 31.3408 26.5907 31.5913 26.8412L32.95 28.2006C33.2005 28.4511 33.2005 28.8566 32.95 29.1064C32.8245 29.2314 32.6605 29.2941 32.4971 29.2941Z" fill="url(#paint7_linear_214_296)"/>
<path d="M31.1379 14.3459C30.9739 14.3459 30.8099 14.2831 30.6849 14.1582C30.4344 13.9083 30.4344 13.5028 30.6849 13.2523L32.0437 11.8929C32.2942 11.6425 32.6991 11.6425 32.9495 11.8929C33.2 12.1428 33.2 12.5483 32.9495 12.7988L31.5908 14.1582C31.4659 14.2831 31.3019 14.3459 31.1379 14.3459Z" fill="url(#paint8_linear_214_296)"/>
<path d="M24.3438 11.5312C23.9895 11.5312 23.7031 11.2443 23.7031 10.8906V8.96875C23.7031 8.61513 23.9895 8.32812 24.3438 8.32812C24.698 8.32812 24.9844 8.61513 24.9844 8.96875V10.8906C24.9844 11.2443 24.698 11.5312 24.3438 11.5312Z" fill="url(#paint9_linear_214_296)"/>
<path d="M35.875 21.1406H33.9531C33.5989 21.1406 33.3125 20.8536 33.3125 20.5C33.3125 20.1464 33.5989 19.8594 33.9531 19.8594H35.875C36.2293 19.8594 36.5156 20.1464 36.5156 20.5C36.5156 20.8536 36.2293 21.1406 35.875 21.1406Z" fill="url(#paint10_linear_214_296)"/>
<path d="M19.7242 13.4531H12.8125C12.4582 13.4531 12.1719 13.1661 12.1719 12.8125C12.1719 12.4589 12.4582 12.1719 12.8125 12.1719H19.7242C20.0785 12.1719 20.3648 12.4589 20.3648 12.8125C20.3648 13.1661 20.0785 13.4531 19.7242 13.4531Z" fill="url(#paint11_linear_214_296)"/>
<path d="M19.7242 28.8281H12.8125C12.4582 28.8281 12.1719 28.5411 12.1719 28.1875C12.1719 27.8339 12.4582 27.5469 12.8125 27.5469H19.7242C20.0785 27.5469 20.3648 27.8339 20.3648 28.1875C20.3648 28.5411 20.0785 28.8281 19.7242 28.8281Z" fill="url(#paint12_linear_214_296)"/>
<path d="M24.3042 32.6599C22.4265 32.6599 20.5296 32.2275 18.7679 31.3198C18.4534 31.1577 18.3297 30.7714 18.4918 30.4568C18.6539 30.1423 19.0408 30.0186 19.3547 30.1807C24.3798 32.7701 30.6394 31.0353 33.6054 26.2313C36.5799 21.4131 35.3351 15.0331 30.772 11.7064C27.467 9.29763 22.9852 8.94913 19.3547 10.8191C19.0408 10.9812 18.6539 10.8582 18.4918 10.543C18.3297 10.2285 18.4527 9.84216 18.7679 9.68008C22.825 7.58908 27.8321 7.97794 31.5266 10.6705C36.6273 14.3887 38.0194 21.5195 34.6951 26.9039C32.4203 30.5901 28.4106 32.6599 24.3042 32.6599Z" fill="url(#paint13_linear_214_296)"/>
<defs>
<linearGradient id="paint0_linear_214_296" x1="19.4436" y1="24.3254" x2="8.32812" y2="24.3254" gradientUnits="userSpaceOnUse">
<stop stop-color="#F92B74"/>
<stop offset="1" stop-color="#FB4C59"/>
</linearGradient>
<linearGradient id="paint1_linear_214_296" x1="19.4436" y1="16.6379" x2="8.32812" y2="16.6379" gradientUnits="userSpaceOnUse">
<stop stop-color="#F92B74"/>
<stop offset="1" stop-color="#FB4C59"/>
</linearGradient>
<linearGradient id="paint2_linear_214_296" x1="18.5781" y1="20.4817" x2="4.48437" y2="20.4817" gradientUnits="userSpaceOnUse">
<stop stop-color="#F92B74"/>
<stop offset="1" stop-color="#FB4C59"/>
</linearGradient>
<linearGradient id="paint3_linear_214_296" x1="26.9062" y1="20.4285" x2="21.7812" y2="20.4285" gradientUnits="userSpaceOnUse">
<stop stop-color="#F92B74"/>
<stop offset="1" stop-color="#FB4C59"/>
</linearGradient>
<linearGradient id="paint4_linear_214_296" x1="29.9676" y1="17.2589" x2="25.062" y2="17.2589" gradientUnits="userSpaceOnUse">
<stop stop-color="#F92B74"/>
<stop offset="1" stop-color="#FB4C59"/>
</linearGradient>
<linearGradient id="paint5_linear_214_296" x1="23.6259" y1="22.2807" x2="21.4385" y2="22.2807" gradientUnits="userSpaceOnUse">
<stop stop-color="#F92B74"/>
<stop offset="1" stop-color="#FB4C59"/>
</linearGradient>
<linearGradient id="paint6_linear_214_296" x1="24.9844" y1="31.0246" x2="23.7031" y2="31.0246" gradientUnits="userSpaceOnUse">
<stop stop-color="#F92B74"/>
<stop offset="1" stop-color="#FB4C59"/>
</linearGradient>
<linearGradient id="paint7_linear_214_296" x1="33.1379" y1="27.936" x2="30.4976" y2="27.936" gradientUnits="userSpaceOnUse">
<stop stop-color="#F92B74"/>
<stop offset="1" stop-color="#FB4C59"/>
</linearGradient>
<linearGradient id="paint8_linear_214_296" x1="33.1374" y1="12.9878" x2="30.4971" y2="12.9878" gradientUnits="userSpaceOnUse">
<stop stop-color="#F92B74"/>
<stop offset="1" stop-color="#FB4C59"/>
</linearGradient>
<linearGradient id="paint9_linear_214_296" x1="24.9844" y1="9.88393" x2="23.7031" y2="9.88393" gradientUnits="userSpaceOnUse">
<stop stop-color="#F92B74"/>
<stop offset="1" stop-color="#FB4C59"/>
</linearGradient>
<linearGradient id="paint10_linear_214_296" x1="36.5156" y1="20.4817" x2="33.3125" y2="20.4817" gradientUnits="userSpaceOnUse">
<stop stop-color="#F92B74"/>
<stop offset="1" stop-color="#FB4C59"/>
</linearGradient>
<linearGradient id="paint11_linear_214_296" x1="20.3648" y1="12.7942" x2="12.1719" y2="12.7942" gradientUnits="userSpaceOnUse">
<stop stop-color="#F92B74"/>
<stop offset="1" stop-color="#FB4C59"/>
</linearGradient>
<linearGradient id="paint12_linear_214_296" x1="20.3648" y1="28.1692" x2="12.1719" y2="28.1692" gradientUnits="userSpaceOnUse">
<stop stop-color="#F92B74"/>
<stop offset="1" stop-color="#FB4C59"/>
</linearGradient>
<linearGradient id="paint13_linear_214_296" x1="36.4992" y1="20.1547" x2="18.4204" y2="20.1547" gradientUnits="userSpaceOnUse">
<stop stop-color="#F92B74"/>
<stop offset="1" stop-color="#FB4C59"/>
</linearGradient>
</defs>
</svg>
