<svg width="36" height="36" viewBox="0 0 36 36" fill="none" xmlns="http://www.w3.org/2000/svg">
<g clip-path="url(#clip0_214_250)">
<path d="M0.849937 12.5218C0.298547 14.2492 -7.03001e-05 16.0895 1.2414e-08 17.9998C-7.03001e-05 19.9102 0.298617 21.7507 0.850008 23.4781L18 24.2608L35.15 23.4782C35.7013 21.7507 36.0001 19.9102 36.0001 18C36 16.0896 35.7014 14.2492 35.15 12.5217L18 11.7391L0.849937 12.5218Z" fill="#F0F0F0"/>
<path d="M35.1498 12.5218L17.9998 11.7393L0.84975 12.5218C0.686344 13.034 0.545648 13.5562 0.427734 14.0871H35.5716C35.4538 13.5561 35.3132 13.0339 35.1498 12.5218Z" fill="#D80027"/>
<path d="M0.427734 21.9131C0.545508 22.4439 0.686203 22.9661 0.849609 23.4782L0.851297 23.4783L17.9995 24.2609L35.1495 23.4783C35.3129 22.9662 35.4536 22.4439 35.5715 21.9131H0.427734Z" fill="#D80027"/>
<path d="M18 36C26.0308 36 32.8322 30.7404 35.15 23.4782H0.850098C3.16795 30.7403 9.96942 36 18 36Z" fill="#6DA544"/>
<path d="M18.0001 7.04959e-10C9.96942 7.03132e-05 3.16809 5.25965 0.850098 12.5217L35.15 12.5218C32.8323 5.25958 26.0309 -7.03118e-05 18.0001 7.04959e-10Z" fill="#338AF3"/>
<path d="M8.22564 7.43494C8.22564 5.74906 9.41047 4.3407 10.9927 3.99518C10.7496 3.94203 10.4972 3.91327 10.2381 3.91327C8.29307 3.91327 6.71631 5.48996 6.71631 7.43501C6.71631 9.38007 8.29293 10.9568 10.2381 10.9568C10.4972 10.9568 10.7495 10.9279 10.9927 10.8748C9.41054 10.5292 8.22564 9.12082 8.22564 7.43494Z" fill="#F0F0F0"/>
<path d="M13.0744 9.03558L13.3128 9.76929H14.0843L13.4602 10.2228L13.6985 10.9565L13.0744 10.5031L12.4502 10.9565L12.6886 10.2228L12.0645 9.76929H12.8359L13.0744 9.03558Z" fill="#F0F0F0"/>
<path d="M15.5367 9.03564L15.7751 9.76936H16.5466L15.9224 10.2229L16.1608 10.9566L15.5367 10.5031L14.9125 10.9566L15.1509 10.2229L14.5269 9.76936H15.2983L15.5367 9.03564Z" fill="#F0F0F0"/>
<path d="M17.9992 9.03558L18.2376 9.76929H19.0091L18.385 10.2228L18.6233 10.9565L17.9992 10.5031L17.375 10.9565L17.6135 10.2228L16.9893 9.76929H17.7608L17.9992 9.03558Z" fill="#F0F0F0"/>
<path d="M20.4616 9.03558L20.7001 9.76929H21.4715L20.8474 10.2228L21.0858 10.9565L20.4616 10.5031L19.8374 10.9565L20.0759 10.2228L19.4517 9.76929H20.2231L20.4616 9.03558Z" fill="#F0F0F0"/>
<path d="M22.9239 9.03558L23.1623 9.76929H23.9338L23.3097 10.2228L23.5481 10.9565L22.9239 10.5031L22.2997 10.9565L22.5382 10.2228L21.9141 9.76929H22.6855L22.9239 9.03558Z" fill="#F0F0F0"/>
<path d="M15.5367 6.47437L15.7751 7.20801H16.5466L15.9224 7.66159L16.1608 8.39523L15.5367 7.94179L14.9125 8.39523L15.1509 7.66159L14.5269 7.20801H15.2983L15.5367 6.47437Z" fill="#F0F0F0"/>
<path d="M17.9992 6.4743L18.2376 7.20794H19.0091L18.385 7.66153L18.6233 8.39517L17.9992 7.94173L17.375 8.39517L17.6135 7.66153L16.9893 7.20794H17.7608L17.9992 6.4743Z" fill="#F0F0F0"/>
<path d="M20.4616 6.4743L20.7001 7.20794H21.4715L20.8474 7.66153L21.0858 8.39517L20.4616 7.94173L19.8374 8.39517L20.0759 7.66153L19.4517 7.20794H20.2231L20.4616 6.4743Z" fill="#F0F0F0"/>
<path d="M22.9239 6.4743L23.1623 7.20794H23.9338L23.3097 7.66153L23.5481 8.39517L22.9239 7.94173L22.2997 8.39517L22.5382 7.66153L21.9141 7.20794H22.6855L22.9239 6.4743Z" fill="#F0F0F0"/>
<path d="M17.9992 3.91302L18.2376 4.64681H19.0091L18.385 5.10025L18.6233 5.83403L17.9992 5.38059L17.375 5.83403L17.6135 5.10025L16.9893 4.64681H17.7608L17.9992 3.91302Z" fill="#F0F0F0"/>
<path d="M20.4616 3.91302L20.7001 4.64681H21.4715L20.8474 5.10025L21.0858 5.83403L20.4616 5.38059L19.8374 5.83403L20.0759 5.10025L19.4517 4.64681H20.2231L20.4616 3.91302Z" fill="#F0F0F0"/>
<path d="M22.9239 3.91302L23.1623 4.64681H23.9338L23.3097 5.10025L23.5481 5.83403L22.9239 5.38059L22.2997 5.83403L22.5382 5.10025L21.9141 4.64681H22.6855L22.9239 3.91302Z" fill="#F0F0F0"/>
</g>
<defs>
<clipPath id="clip0_214_250">
<rect width="36" height="36" fill="white"/>
</clipPath>
</defs>
</svg>
