<svg width="28" height="29" viewBox="0 0 28 29" fill="none" xmlns="http://www.w3.org/2000/svg">
<g clip-path="url(#clip0_214_280)">
<path d="M7.68612 23.7246C7.48118 23.7246 7.27624 23.6464 7.11993 23.49C4.37018 20.7403 4.37018 16.2662 7.11993 13.5165C7.4326 13.2038 7.93965 13.2038 8.25238 13.5165C8.5651 13.8292 8.5651 14.3362 8.25238 14.6489C6.12707 16.7742 6.12707 20.2323 8.25238 22.3576C8.5651 22.6703 8.5651 23.1773 8.25238 23.49C8.09601 23.6464 7.89107 23.7246 7.68612 23.7246Z" fill="url(#paint0_linear_214_280)"/>
<path d="M10.6895 21.2543C10.4845 21.2543 10.2796 21.1761 10.1233 21.0197C8.7356 19.6321 8.7356 17.3741 10.1233 15.9865C10.436 15.6738 10.943 15.6738 11.2557 15.9865C11.5685 16.2991 11.5685 16.8062 11.2557 17.1189C10.4925 17.8822 10.4925 19.1241 11.2557 19.8873C11.5685 20.2 11.5685 20.707 11.2557 21.0197C11.0993 21.1762 10.8944 21.2543 10.6895 21.2543Z" fill="url(#paint1_linear_214_280)"/>
<path d="M4.67394 26.1274C4.469 26.1274 4.26405 26.0491 4.10774 25.8928C0.0330961 21.8181 0.0330961 15.1881 4.10774 11.1134C4.42047 10.8007 4.92752 10.8007 5.24019 11.1134C5.55292 11.4261 5.55292 11.9331 5.24019 12.2459C1.78999 15.6961 1.78999 21.3101 5.24019 24.7603C5.55292 25.073 5.55292 25.5801 5.24019 25.8928C5.08383 26.0491 4.87889 26.1274 4.67394 26.1274Z" fill="url(#paint2_linear_214_280)"/>
<path d="M25.4814 28.0333C25.1763 28.0333 24.8849 27.858 24.7512 27.5619L23.6715 25.1713C23.504 24.8004 23.1314 24.5648 22.7261 24.5723C21.3043 24.5972 19.5582 24.6234 18.6671 24.6058C17.7084 24.5869 17.1497 24.1799 16.8498 23.8418C16.4343 23.3734 16.2436 22.7335 16.313 22.04C16.3531 21.6382 16.2445 21.5012 16.0283 21.2286C15.8647 21.0224 15.6611 20.7657 15.5629 20.4003C15.4138 19.8454 15.6316 19.2407 16.1176 18.8596C16.1393 18.8427 16.1619 18.8267 16.1853 18.812L17.7943 17.7998L15.3896 16.8875C15.3691 16.8797 15.3489 16.8711 15.3291 16.8617C14.7547 16.5879 14.4367 15.9601 14.5558 15.3351L14.8669 13.7021C14.8986 13.5356 14.862 13.3679 14.7637 13.2298C14.6655 13.0916 14.519 13.002 14.3513 12.9773L12.7682 12.7446C12.3301 12.6801 11.9545 12.4032 11.7635 12.0038C11.5725 11.6045 11.5926 11.1383 11.8173 10.7569L14.8347 5.63527C15.2937 4.85623 15.4748 3.93443 15.3446 3.03965L15.1375 1.61609C15.0739 1.17844 15.377 0.772024 15.8147 0.708389C16.2524 0.644754 16.6588 0.947927 16.7224 1.38558L16.9295 2.80913C17.112 4.06368 16.8581 5.35607 16.2146 6.44827L13.4038 11.2193L14.5843 11.3929C15.188 11.4817 15.7152 11.8044 16.0688 12.3015C16.4224 12.7987 16.5543 13.4025 16.4401 14.0018L16.161 15.4673L18.8636 16.4926C19.3402 16.6734 19.6677 17.1007 19.7182 17.6079C19.7688 18.1151 19.5323 18.5988 19.1008 18.8702L17.169 20.0854C17.2027 20.1321 17.2453 20.1858 17.283 20.2333C17.5554 20.5767 18.0114 21.1515 17.9066 22.1994C17.8925 22.3405 17.8921 22.6034 18.0479 22.7789C18.2066 22.9579 18.4895 23.0004 18.6987 23.0046C19.5632 23.0216 21.2902 22.9957 22.6981 22.971C23.745 22.9547 24.7 23.5576 25.1311 24.5121L26.2108 26.9027C26.3928 27.3058 26.2136 27.7801 25.8105 27.9621C25.7036 28.0104 25.5916 28.0333 25.4814 28.0333ZM18.2956 17.99H18.2961H18.2956Z" fill="url(#paint3_linear_214_280)"/>
</g>
<defs>
<linearGradient id="paint0_linear_214_280" x1="8.48692" y1="18.3541" x2="5.05762" y2="18.3541" gradientUnits="userSpaceOnUse">
<stop stop-color="#F92B74"/>
<stop offset="1" stop-color="#FB4C59"/>
</linearGradient>
<linearGradient id="paint1_linear_214_280" x1="11.4903" y1="18.4245" x2="9.08252" y2="18.4245" gradientUnits="userSpaceOnUse">
<stop stop-color="#F92B74"/>
<stop offset="1" stop-color="#FB4C59"/>
</linearGradient>
<linearGradient id="paint2_linear_214_280" x1="5.47474" y1="18.2853" x2="1.05176" y2="18.2853" gradientUnits="userSpaceOnUse">
<stop stop-color="#F92B74"/>
<stop offset="1" stop-color="#FB4C59"/>
</linearGradient>
<linearGradient id="paint3_linear_214_280" x1="26.2819" y1="13.9761" x2="11.6333" y2="13.9761" gradientUnits="userSpaceOnUse">
<stop stop-color="#F92B74"/>
<stop offset="1" stop-color="#FB4C59"/>
</linearGradient>
<clipPath id="clip0_214_280">
<rect width="27.3333" height="27.3333" fill="white" transform="translate(0 0.699951)"/>
</clipPath>
</defs>
</svg>
