<svg width="111" height="27" viewBox="0 0 111 27" fill="none" xmlns="http://www.w3.org/2000/svg">
<g filter="url(#filter0_i_1008_523)">
<path d="M12.7871 25.5742H7.68652V5.1184H0V0H20.4558V5.1184H12.7871V25.5742ZM33.9027 25.5742H28.8022V5.1184H21.1157V0H41.5715V5.1184H33.9027V25.5742ZM42.6059 7.66871C42.6059 6.61054 42.808 5.61775 43.2121 4.6904C43.6166 3.76301 44.1634 2.95453 44.853 2.26494C45.5544 1.56346 46.3689 1.0106 47.2961 0.606361C48.2236 0.20212 49.2165 0 50.2744 0H62.0094V5.1184H50.2744C49.9178 5.1184 49.5848 5.18381 49.2758 5.31459C48.9665 5.44538 48.6931 5.62964 48.4555 5.86745C48.2297 6.09333 48.0511 6.36087 47.9204 6.66998C47.7897 6.9791 47.7244 7.31201 47.7244 7.66871C47.7244 8.02537 47.7897 8.36421 47.9204 8.68523C48.0511 8.99438 48.2297 9.26784 48.4555 9.50562C48.6931 9.7315 48.9665 9.90986 49.2758 10.0406C49.5848 10.1714 49.9178 10.2368 50.2744 10.2368H55.3928C56.451 10.2368 57.4439 10.4389 58.3714 10.8432C59.3106 11.2355 60.1249 11.7824 60.8145 12.4839C61.5158 13.1735 62.063 13.9879 62.4551 14.9272C62.8595 15.8546 63.0616 16.8474 63.0616 17.9055C63.0616 18.9637 62.8595 19.9564 62.4551 20.8838C62.063 21.8112 61.5158 22.6256 60.8145 23.3271C60.1249 24.0167 59.3106 24.5636 58.3714 24.9678C57.4439 25.3721 56.451 25.5742 55.3928 25.5742H44.0324V20.4558H55.3928C55.7497 20.4558 56.0824 20.3904 56.3917 20.2596C56.7007 20.1288 56.9684 19.9505 57.1942 19.7246C57.4318 19.4868 57.6161 19.2134 57.7471 18.9042C57.8778 18.5951 57.9432 18.2622 57.9432 17.9055C57.9432 17.5488 57.8778 17.2159 57.7471 16.9068C57.6161 16.5977 57.4318 16.3301 57.1942 16.1043C56.9684 15.8665 56.7007 15.6822 56.3917 15.5514C56.0824 15.4206 55.7497 15.3552 55.3928 15.3552H50.2744C49.2165 15.3552 48.2236 15.1531 47.2961 14.7488C46.3689 14.3446 45.5544 13.7977 44.853 13.1081C44.1634 12.4066 43.6166 11.5922 43.2121 10.6648C42.808 9.72557 42.6059 8.72684 42.6059 7.66871Z" fill="url(#paint0_linear_1008_523)"/>
<path d="M71.9077 23.755C71.9077 24.183 71.8303 24.5872 71.6758 24.9677C71.521 25.3363 71.3072 25.6573 71.0338 25.9307C70.7603 26.2042 70.4393 26.4182 70.0707 26.5728C69.7021 26.7392 69.3037 26.8224 68.8758 26.8224C68.4596 26.8224 68.0612 26.7392 67.6809 26.5728C67.3123 26.4182 66.9853 26.2042 66.6998 25.9307C66.4263 25.6573 66.2065 25.3363 66.04 24.9677C65.8855 24.5872 65.8081 24.183 65.8081 23.755C65.8081 23.3388 65.8855 22.9465 66.04 22.5779C66.2065 22.2093 66.4263 21.8883 66.6998 21.6149C66.9853 21.3414 67.3123 21.1274 67.6809 20.9728C68.0612 20.8064 68.4596 20.7231 68.8758 20.7231C69.3037 20.7231 69.7021 20.8064 70.0707 20.9728C70.4393 21.1274 70.7603 21.3414 71.0338 21.6149C71.3072 21.8883 71.521 22.2093 71.6758 22.5779C71.8303 22.9465 71.9077 23.3388 71.9077 23.755ZM89.5811 23.3448C89.1887 23.7014 88.7669 24.0403 88.3148 24.3613C87.8752 24.6704 87.4114 24.9439 86.9239 25.1817C86.4363 25.4076 85.931 25.5859 85.408 25.7167C84.8966 25.8594 84.3735 25.9307 83.8384 25.9307C82.6616 25.9307 81.5558 25.7226 80.5214 25.3065C79.487 24.8904 78.5776 24.3019 77.7928 23.5409C77.0201 22.7681 76.4075 21.8348 75.9558 20.741C75.5159 19.6353 75.2961 18.3988 75.2961 17.0315V6.47363H80.1468V17.0315C80.1468 17.6735 80.2419 18.2501 80.4323 18.7614C80.6343 19.2607 80.9017 19.6828 81.2348 20.0276C81.5675 20.3724 81.9542 20.634 82.3939 20.8123C82.8459 20.9907 83.3274 21.0798 83.8384 21.0798C84.338 21.0798 84.8075 20.9669 85.2474 20.741C85.6991 20.5032 86.0915 20.1941 86.4246 19.8136C86.7573 19.4332 87.019 19.0051 87.2094 18.5296C87.3994 18.0421 87.4945 17.5427 87.4945 17.0315V6.47363H92.3633V25.574H91.1862L89.5811 23.3448ZM111 25.574H95.0742L103.117 11.3602H95.0742V6.50932H111L102.957 20.7231H111V25.574Z" fill="#6261F3"/>
</g>
<defs>
<filter id="filter0_i_1008_523" x="0" y="0" width="111" height="27.4926" filterUnits="userSpaceOnUse" color-interpolation-filters="sRGB">
<feFlood flood-opacity="0" result="BackgroundImageFix"/>
<feBlend mode="normal" in="SourceGraphic" in2="BackgroundImageFix" result="shape"/>
<feColorMatrix in="SourceAlpha" type="matrix" values="0 0 0 0 0 0 0 0 0 0 0 0 0 0 0 0 0 0 127 0" result="hardAlpha"/>
<feOffset dy="1.34034"/>
<feGaussianBlur stdDeviation="0.335086"/>
<feComposite in2="hardAlpha" operator="arithmetic" k2="-1" k3="1"/>
<feColorMatrix type="matrix" values="0 0 0 0 1 0 0 0 0 1 0 0 0 0 1 0 0 0 0.25 0"/>
<feBlend mode="normal" in2="shape" result="effect1_innerShadow_1008_523"/>
</filter>
<linearGradient id="paint0_linear_1008_523" x1="63.0616" y1="12.4218" x2="-1.12581e-07" y2="12.4218" gradientUnits="userSpaceOnUse">
<stop stop-color="#F92B74"/>
<stop offset="1" stop-color="#FB4C59"/>
</linearGradient>
</defs>
</svg>
